<svg width="48" height="48" viewBox="0 0 48 48" fill="none" xmlns="http://www.w3.org/2000/svg">
<g clip-path="url(#clip0_264_24958)">
<path d="M31.6797 23.0625C32.1975 23.0625 32.6172 22.6428 32.6172 22.125C32.6172 21.6072 32.1975 21.1875 31.6797 21.1875C31.1619 21.1875 30.7422 21.6072 30.7422 22.125C30.7422 22.6428 31.1619 23.0625 31.6797 23.0625Z" fill="url(#paint0_linear_264_24958)"/>
<path d="M31.8409 26.1421C31.3291 26.0661 30.852 26.42 30.7761 26.9321C30.5199 28.6623 29.0574 30.0972 26.8641 30.7707C24.5196 31.4906 21.2655 31.2493 19.2803 29.0876C18.9301 28.7062 18.337 28.6811 17.9557 29.0311C17.5744 29.3814 17.5491 29.9744 17.8993 30.3557C19.0485 31.6072 20.6093 32.4601 22.4131 32.8223C23.05 32.9501 23.7108 33.0136 24.3758 33.0136C25.4031 33.0136 26.4406 32.8622 27.4145 32.5631C30.316 31.6722 32.2661 29.6699 32.6309 27.2068C32.7067 26.6947 32.353 26.218 31.8409 26.1421Z" fill="url(#paint1_linear_264_24958)"/>
<path d="M44.871 17.851C43.167 15.8756 40.8152 14.5948 37.9843 14.0804C40.6946 12.2513 43.0323 10.4311 44.6992 8.84278C47.2407 6.42112 48.0929 4.71938 47.3813 3.48759C46.5895 2.11566 44.3038 2.12512 40.1876 3.51769C36.7098 4.69425 32.3772 6.73772 27.9882 9.27178C27.23 9.70941 26.479 10.1575 25.7442 10.6091C25.1992 9.07003 25.5587 7.31194 26.7611 5.78747C27.6618 4.64559 27.8628 3.19528 27.286 2.00231C26.6813 0.751969 25.3542 0.003375 23.7337 0H23.6897C17.9704 0 12.3762 2.25666 7.93779 6.35428C3.49385 10.457 0.773224 15.8881 0.277099 21.6471C-0.319807 28.5827 1.89719 35.1765 6.51954 40.2138C11.0602 45.1621 17.4976 48 24.1809 48C27.779 48 31.1568 47.3417 34.2203 46.0432C37.0216 44.8558 39.5091 43.1604 41.614 41.0039C43.5656 39.0043 45.1043 36.7025 46.1874 34.1621C47.2181 31.7449 47.7812 29.1833 47.816 26.7543C47.8668 23.222 46.8483 20.1433 44.871 17.851ZM25.8538 12.7489C26.846 12.1231 27.8794 11.4996 28.9256 10.8956C32.9837 8.55262 37.0247 6.62278 40.3043 5.4615C43.9146 4.18322 45.3928 4.26666 45.7374 4.43166C45.7076 4.64981 45.4367 5.62041 43.0675 7.80216C41.0892 9.624 38.2003 11.7665 34.933 13.8349C33.9002 14.489 32.8252 15.139 31.7382 15.7668C30.2396 16.6317 28.7421 17.4405 27.2724 18.181C26.9792 17.3252 26.6033 16.4947 26.1459 15.7023C25.7026 14.9344 25.1883 14.2134 24.6136 13.5464C25.0203 13.2798 25.4343 13.0132 25.8538 12.7489ZM25.5738 19.0127C22.9266 20.2681 20.4976 21.2252 18.5578 21.7804C18.4568 21.2954 18.2793 20.8267 18.0273 20.39C17.7886 19.9761 17.489 19.606 17.1428 19.2869C18.595 17.8854 20.6389 16.2617 23.0457 14.6005C23.6044 15.225 24.0998 15.9081 24.5222 16.6396C24.9589 17.3962 25.3105 18.1919 25.5738 19.0127ZM45.9412 26.7274C45.8075 36.0563 37.45 46.125 24.1809 46.125C18.0213 46.125 12.0876 43.5084 7.90113 38.9462C3.63804 34.3005 1.59401 28.214 2.14526 21.8079C3.09204 10.8169 12.7568 1.875 23.6897 1.875H23.7318C24.6287 1.87688 25.3089 2.22075 25.5979 2.81859C25.8637 3.36816 25.7482 4.04391 25.2888 4.62628C23.5992 6.76847 23.1754 9.40313 24.1301 11.6245C23.6275 11.9483 23.1335 12.2736 22.6563 12.5962C22.654 12.5977 22.6518 12.5992 22.6496 12.6007C19.6684 14.6122 17.1511 16.6132 15.4761 18.297C14.2058 17.8628 12.8101 17.9894 11.6238 18.6742C9.676 19.7992 7.11851 25.0422 6.62566 26.0818C6.49366 26.3601 6.50688 26.6855 6.66082 26.9522C6.81485 27.2189 7.09 27.393 7.39694 27.4179C7.9151 27.4599 9.38651 27.5661 11.0242 27.5661C13.0115 27.5661 15.2435 27.4097 16.3113 26.7929C17.468 26.1252 18.2698 25.0096 18.5475 23.7271C20.8465 23.1236 23.8503 21.943 27.1037 20.358C28.9264 19.4708 30.8011 18.4725 32.6757 17.3906C33.6266 16.8414 34.5667 16.2753 35.4804 15.7042C35.4859 15.7045 35.4913 15.7054 35.4968 15.7056C43.3108 15.9296 46.0156 21.546 45.9412 26.7274ZM16.7756 22.9097C16.7156 23.8525 16.1917 24.697 15.3738 25.1692C14.4873 25.6813 11.4415 25.7503 8.94072 25.6359C10.0915 23.4137 11.6739 20.8106 12.5614 20.298C13.3994 19.8142 14.4124 19.7931 15.2719 20.2415C15.7443 20.4875 16.1355 20.8627 16.4032 21.3269C16.6818 21.8097 16.8105 22.357 16.7756 22.9097Z" fill="url(#paint2_linear_264_24958)"/>
<path d="M16.6807 5.79761C14.6129 5.79761 12.9307 7.47986 12.9307 9.54761C12.9307 11.6154 14.6129 13.2976 16.6807 13.2976C18.7484 13.2976 20.4307 11.6154 20.4307 9.54761C20.4307 7.47986 18.7484 5.79761 16.6807 5.79761ZM16.6807 11.4226C15.6468 11.4226 14.8057 10.5815 14.8057 9.54761C14.8057 8.51373 15.6468 7.67261 16.6807 7.67261C17.7145 7.67261 18.5557 8.51373 18.5557 9.54761C18.5557 10.5815 17.7145 11.4226 16.6807 11.4226Z" fill="url(#paint3_linear_264_24958)"/>
<path d="M11.9932 30.989C9.92541 30.989 8.24316 32.6713 8.24316 34.739C8.24316 36.8068 9.92541 38.489 11.9932 38.489C14.0609 38.489 15.7432 36.8068 15.7432 34.739C15.7432 32.6713 14.0609 30.989 11.9932 30.989ZM11.9932 36.614C10.9593 36.614 10.1182 35.7729 10.1182 34.739C10.1182 33.7051 10.9593 32.864 11.9932 32.864C13.027 32.864 13.8682 33.7051 13.8682 34.739C13.8682 35.7729 13.027 36.614 11.9932 36.614Z" fill="url(#paint4_linear_264_24958)"/>
<path d="M21.3682 36.614C19.3004 36.614 17.6182 38.2963 17.6182 40.364C17.6182 42.4318 19.3004 44.114 21.3682 44.114C23.4359 44.114 25.1182 42.4318 25.1182 40.364C25.1182 38.2963 23.4359 36.614 21.3682 36.614ZM21.3682 42.239C20.3343 42.239 19.4932 41.3979 19.4932 40.364C19.4932 39.3301 20.3343 38.489 21.3682 38.489C22.402 38.489 23.2432 39.3301 23.2432 40.364C23.2432 41.3979 22.402 42.239 21.3682 42.239Z" fill="url(#paint5_linear_264_24958)"/>
<path d="M32.6182 34.739C30.5504 34.739 28.8682 36.4213 28.8682 38.489C28.8682 40.5568 30.5504 42.239 32.6182 42.239C34.6859 42.239 36.3682 40.5568 36.3682 38.489C36.3682 36.4213 34.6859 34.739 32.6182 34.739ZM32.6182 40.364C31.5843 40.364 30.7432 39.5229 30.7432 38.489C30.7432 37.4551 31.5843 36.614 32.6182 36.614C33.652 36.614 34.4932 37.4551 34.4932 38.489C34.4932 39.5229 33.652 40.364 32.6182 40.364Z" fill="url(#paint6_linear_264_24958)"/>
<path d="M40.1182 25.364C38.0504 25.364 36.3682 27.0463 36.3682 29.114C36.3682 31.1818 38.0504 32.864 40.1182 32.864C42.1859 32.864 43.8682 31.1818 43.8682 29.114C43.8682 27.0463 42.1859 25.364 40.1182 25.364ZM40.1182 30.989C39.0843 30.989 38.2432 30.1479 38.2432 29.114C38.2432 28.0801 39.0843 27.239 40.1182 27.239C41.152 27.239 41.9932 28.0801 41.9932 29.114C41.9932 30.1479 41.152 30.989 40.1182 30.989Z" fill="url(#paint7_linear_264_24958)"/>
</g>
<defs>
<linearGradient id="paint0_linear_264_24958" x1="34.4599" y1="21.1875" x2="25.0692" y2="22.4781" gradientUnits="userSpaceOnUse">
<stop stop-color="#05D5FF"/>
<stop offset="1" stop-color="#5533FF"/>
</linearGradient>
<linearGradient id="paint1_linear_264_24958" x1="47.3715" y1="26.1318" x2="-22.8255" y2="47.1449" gradientUnits="userSpaceOnUse">
<stop stop-color="#05D5FF"/>
<stop offset="1" stop-color="#5533FF"/>
</linearGradient>
<linearGradient id="paint2_linear_264_24958" x1="94.6327" y1="-7.08678e-06" x2="-144.013" y2="32.5502" gradientUnits="userSpaceOnUse">
<stop stop-color="#05D5FF"/>
<stop offset="1" stop-color="#5533FF"/>
</linearGradient>
<linearGradient id="paint3_linear_264_24958" x1="27.8014" y1="5.79761" x2="-9.76128" y2="10.9601" gradientUnits="userSpaceOnUse">
<stop stop-color="#05D5FF"/>
<stop offset="1" stop-color="#5533FF"/>
</linearGradient>
<linearGradient id="paint4_linear_264_24958" x1="23.1139" y1="30.989" x2="-14.4488" y2="36.1515" gradientUnits="userSpaceOnUse">
<stop stop-color="#05D5FF"/>
<stop offset="1" stop-color="#5533FF"/>
</linearGradient>
<linearGradient id="paint5_linear_264_24958" x1="32.4889" y1="36.614" x2="-5.07378" y2="41.7765" gradientUnits="userSpaceOnUse">
<stop stop-color="#05D5FF"/>
<stop offset="1" stop-color="#5533FF"/>
</linearGradient>
<linearGradient id="paint6_linear_264_24958" x1="43.7389" y1="34.739" x2="6.17621" y2="39.9015" gradientUnits="userSpaceOnUse">
<stop stop-color="#05D5FF"/>
<stop offset="1" stop-color="#5533FF"/>
</linearGradient>
<linearGradient id="paint7_linear_264_24958" x1="51.2389" y1="25.364" x2="13.6762" y2="30.5265" gradientUnits="userSpaceOnUse">
<stop stop-color="#05D5FF"/>
<stop offset="1" stop-color="#5533FF"/>
</linearGradient>
<clipPath id="clip0_264_24958">
<rect width="48" height="48" fill="white"/>
</clipPath>
</defs>
</svg>
