<svg width="48" height="48" viewBox="0 0 48 48" fill="none" xmlns="http://www.w3.org/2000/svg">
<path d="M24 17.0001C24.6143 17.0007 25.2275 17.0529 25.833 17.1561C25.9625 17.178 26.095 17.1742 26.2231 17.1449C26.3511 17.1157 26.4721 17.0614 26.5791 16.9854C26.6862 16.9093 26.7772 16.8129 26.847 16.7017C26.9169 16.5905 26.9641 16.4666 26.986 16.3371C27.0079 16.2076 27.0042 16.0751 26.9749 15.9471C26.9456 15.819 26.8914 15.698 26.8153 15.591C26.7393 15.4839 26.6429 15.3929 26.5316 15.3231C26.4204 15.2532 26.2965 15.206 26.167 15.1841C23.5403 14.74 20.8405 15.1137 18.4331 16.2545C16.0257 17.3953 14.0269 19.2482 12.7072 21.5624C11.3875 23.8766 10.8106 26.5403 11.0547 29.1931C11.2987 31.846 12.3519 34.3598 14.0717 36.3944C15.7914 38.4289 18.0948 39.886 20.6699 40.5685C23.245 41.2509 25.9677 41.1257 28.4693 40.2098C30.971 39.2939 33.1308 37.6316 34.6566 35.4478C36.1824 33.264 37.0004 30.6641 37 28.0001C37.0096 25.4416 36.2539 22.9388 34.83 20.8131C34.7579 20.7016 34.6643 20.6056 34.5547 20.5307C34.4451 20.4558 34.3216 20.4035 34.1916 20.3768C34.0615 20.3501 33.9275 20.3496 33.7972 20.3752C33.6669 20.4009 33.5431 20.4522 33.4329 20.5262C33.3227 20.6003 33.2283 20.6955 33.1553 20.8064C33.0823 20.9173 33.0321 21.0416 33.0076 21.1721C32.9831 21.3026 32.9849 21.4366 33.0128 21.5664C33.0407 21.6962 33.0941 21.8192 33.17 21.9281C34.3714 23.7245 35.0087 25.839 35 28.0001C35 30.1757 34.3549 32.3024 33.1462 34.1114C31.9375 35.9203 30.2195 37.3302 28.2095 38.1628C26.1995 38.9953 23.9878 39.2132 21.854 38.7887C19.7202 38.3643 17.7602 37.3166 16.2218 35.7783C14.6835 34.2399 13.6358 32.2799 13.2114 30.1461C12.7869 28.0123 13.0048 25.8006 13.8373 23.7906C14.6699 21.7806 16.0798 20.0626 17.8887 18.8539C19.6977 17.6452 21.8244 17.0001 24 17.0001Z" fill="url(#paint0_linear_264_24984)"/>
<path d="M24 21.0001C22.6155 21.0001 21.2622 21.4106 20.111 22.1798C18.9599 22.949 18.0627 24.0422 17.5328 25.3213C17.003 26.6004 16.8644 28.0079 17.1345 29.3657C17.4046 30.7236 18.0713 31.9709 19.0503 32.9499C20.0292 33.9288 21.2765 34.5955 22.6344 34.8656C23.9922 35.1357 25.3997 34.9971 26.6788 34.4673C27.9579 33.9374 29.0511 33.0402 29.8203 31.8891C30.5895 30.738 31 29.3846 31 28.0001V9.5171L35.908 11.6171C36.1359 11.715 36.3846 11.7549 36.6317 11.7331C36.8787 11.7113 37.1166 11.6286 37.3239 11.4924C37.5312 11.3561 37.7014 11.1706 37.8194 10.9524C37.9374 10.7342 37.9995 10.4902 38 10.2421V6.0611C38.0007 5.47341 37.8288 4.89845 37.5056 4.4076C37.1824 3.91676 36.7222 3.53166 36.182 3.3001L31.092 1.1181C30.8635 1.01997 30.6143 0.98017 30.3666 1.00228C30.1189 1.02439 29.8807 1.10772 29.6732 1.24478C29.4657 1.38183 29.2956 1.56831 29.1781 1.78743C29.0606 2.00656 28.9994 2.25146 29 2.5001V23.1111C28.35 22.4429 27.5726 21.9118 26.7138 21.5492C25.855 21.1866 24.9322 20.9999 24 21.0001ZM31 3.2591L35.394 5.1421C35.5738 5.2192 35.7271 5.34736 35.8348 5.51071C35.9426 5.67407 36 5.86543 36 6.0611V9.4831L31 7.3411V3.2591ZM24 33.0001C23.0111 33.0001 22.0444 32.7069 21.2222 32.1575C20.3999 31.608 19.759 30.8272 19.3806 29.9135C19.0022 28.9999 18.9032 27.9946 19.0961 27.0247C19.289 26.0547 19.7652 25.1638 20.4645 24.4646C21.1637 23.7653 22.0546 23.2891 23.0246 23.0962C23.9945 22.9032 24.9998 23.0023 25.9134 23.3807C26.8271 23.7591 27.6079 24.4 28.1574 25.2223C28.7068 26.0445 29 27.0112 29 28.0001C28.9984 29.3257 28.4711 30.5965 27.5338 31.5339C26.5964 32.4712 25.3256 32.9985 24 33.0001Z" fill="url(#paint1_linear_264_24984)"/>
<path d="M36.8139 13.982C36.7176 13.8903 36.6039 13.8188 36.4795 13.7715C36.3552 13.7243 36.2226 13.7024 36.0897 13.707C35.9568 13.7117 35.8261 13.7428 35.7053 13.7985C35.5846 13.8543 35.4761 13.9336 35.3864 14.0318C35.2967 14.13 35.2274 14.2451 35.1827 14.3704C35.138 14.4956 35.1188 14.6286 35.1261 14.7614C35.1334 14.8942 35.1671 15.0242 35.2253 15.1438C35.2835 15.2635 35.365 15.3703 35.4649 15.458C38.3887 18.1343 40.2849 21.7486 40.8254 25.6753C41.3658 29.602 40.5164 33.5942 38.4243 36.9608C36.3321 40.3274 33.1288 42.8567 29.3687 44.1109C25.6086 45.3652 21.5284 45.2654 17.8341 43.8289C14.1398 42.3924 11.0639 39.7096 9.13878 36.2448C7.21364 32.78 6.56037 28.7511 7.29204 24.8555C8.02371 20.9598 10.0943 17.4426 13.1454 14.9123C16.1965 12.3821 20.0362 10.9982 23.9999 11C24.6329 10.9999 25.2655 11.0332 25.8949 11.1C26.1587 11.1279 26.4227 11.0498 26.6289 10.883C26.8351 10.7162 26.9666 10.4743 26.9944 10.2105C27.0223 9.94675 26.9442 9.68273 26.7774 9.47654C26.6106 9.27034 26.3687 9.13886 26.1049 9.11101C25.4057 9.03703 24.7031 8.99998 23.9999 9.00001C19.5624 8.99558 15.263 10.543 11.8461 13.3743C8.42919 16.2056 6.10986 20.1426 5.28965 24.5036C4.46944 28.8647 5.2 33.3753 7.35483 37.2545C9.50967 41.1337 12.9531 44.1373 17.0891 45.7454C21.225 47.3534 25.793 47.4646 30.0023 46.0597C34.2115 44.6548 37.797 41.8223 40.138 38.0525C42.4791 34.2827 43.4282 29.813 42.8211 25.4172C42.2141 21.0214 40.089 16.9762 36.8139 13.982Z" fill="url(#paint2_linear_264_24984)"/>
<defs>
<linearGradient id="paint0_linear_264_24984" x1="62.5519" y1="15.0022" x2="-67.6657" y2="32.899" gradientUnits="userSpaceOnUse">
<stop stop-color="#05D5FF"/>
<stop offset="1" stop-color="#5533FF"/>
</linearGradient>
<linearGradient id="paint1_linear_264_24984" x1="58.6379" y1="0.996333" x2="-47.7576" y2="10.027" gradientUnits="userSpaceOnUse">
<stop stop-color="#05D5FF"/>
<stop offset="1" stop-color="#5533FF"/>
</linearGradient>
<linearGradient id="paint2_linear_264_24984" x1="80.3822" y1="8.99999" x2="-110.126" y2="35.1829" gradientUnits="userSpaceOnUse">
<stop stop-color="#05D5FF"/>
<stop offset="1" stop-color="#5533FF"/>
</linearGradient>
</defs>
</svg>
