<svg width="1920" height="1058" viewBox="0 0 1920 1058" fill="none" xmlns="http://www.w3.org/2000/svg">
<g style="mix-blend-mode:color-dodge" filter="url(#filter0_f_279_33871)">
<path opacity="0.0144928" d="M1907.5 1768.65C1916.57 1774.11 1928.15 1772.91 1935.9 1765.72L2182.27 1537.09C2186.86 1532.83 2189.58 1526.94 2189.84 1520.69L2210.1 1039.98C2210.3 1035.07 2208.98 1030.21 2206.3 1026.08L1977.22 672.406C1972.37 664.917 1963.73 660.78 1954.86 661.697L1663.31 691.809C1654.43 692.725 1646.82 698.541 1643.6 706.863L1491.64 1099.89C1489.87 1104.48 1489.56 1109.51 1490.77 1114.28L1608.84 1580.69C1610.38 1586.76 1614.25 1591.97 1619.61 1595.2L1907.5 1768.65Z" stroke="url(#paint0_linear_279_33871)" stroke-width="4.12898"/>
<path opacity="0.0289855" d="M1854.85 1764.26C1863.61 1770.15 1875.2 1769.57 1883.31 1762.82L2139.8 1549.35C2144.61 1545.34 2147.65 1539.59 2148.24 1533.35L2193.44 1058.79C2193.91 1053.88 2192.83 1048.94 2190.36 1044.67L1981.43 682.918C1976.97 675.201 1968.57 670.63 1959.67 671.081L1668.68 685.804C1659.78 686.254 1651.89 691.65 1648.23 699.777L1476.88 1080.77C1474.86 1085.27 1474.28 1090.29 1475.25 1095.13L1568.11 1562.71C1569.33 1568.85 1572.93 1574.27 1578.13 1577.77L1854.85 1764.26Z" stroke="url(#paint1_linear_279_33871)" stroke-width="4.12898"/>
<path opacity="0.0434783" d="M1802.71 1758.28C1811.13 1764.6 1822.7 1764.62 1831.14 1758.33L2096.84 1560.46C2101.87 1556.71 2105.22 1551.12 2106.14 1544.91L2175.69 1077.78C2176.42 1072.88 2175.6 1067.88 2173.34 1063.47L1984.77 694.771C1980.72 686.848 1972.58 681.856 1963.68 681.84L1674.06 681.318C1665.16 681.302 1657 686.264 1652.92 694.172L1463.02 1062.19C1460.75 1066.59 1459.91 1071.59 1460.62 1076.49L1528.48 1543.87C1529.38 1550.08 1532.71 1555.68 1537.73 1559.45L1802.71 1758.28Z" stroke="url(#paint2_linear_279_33871)" stroke-width="4.12898"/>
<path opacity="0.057971" d="M1751.14 1750.78C1759.2 1757.5 1770.72 1758.12 1779.46 1752.31L2053.45 1570.4C2058.69 1566.92 2062.33 1561.51 2063.59 1555.35L2156.83 1096.87C2157.82 1092.01 2157.26 1086.95 2155.23 1082.42L1987.17 707.907C1983.53 699.798 1975.67 694.401 1966.79 693.92L1679.34 678.335C1670.47 677.854 1662.07 682.37 1657.57 690.037L1450 1044.19C1447.49 1048.47 1446.39 1053.44 1446.85 1058.38L1489.98 1524.25C1490.56 1530.51 1493.6 1536.28 1498.42 1540.31L1751.14 1750.78Z" stroke="url(#paint3_linear_279_33871)" stroke-width="4.12898"/>
<path opacity="0.0724638" d="M1700.23 1741.79C1707.92 1748.89 1719.35 1750.11 1728.37 1744.8L2009.71 1579.17C2015.13 1575.97 2019.07 1570.76 2020.65 1564.66L2136.88 1116.03C2138.13 1111.21 2137.83 1106.12 2136.02 1101.47L1988.56 722.266C1985.35 713.995 1977.79 708.207 1968.96 707.264L1684.45 676.841C1675.63 675.898 1667.01 679.955 1662.12 687.36L1437.81 1026.82C1435.07 1030.97 1433.7 1035.89 1433.9 1040.87L1452.65 1503.93C1452.9 1510.22 1455.64 1516.15 1460.27 1520.42L1700.23 1741.79Z" stroke="url(#paint4_linear_279_33871)" stroke-width="4.12898"/>
<path opacity="0.0869565" d="M1650.03 1731.36C1657.33 1738.82 1668.65 1740.63 1677.91 1735.83L1965.65 1586.74C1971.25 1583.84 1975.47 1578.84 1977.37 1572.82L2115.81 1135.18C2117.32 1130.42 2117.29 1125.3 2115.71 1120.56L1988.89 737.775C1986.1 729.362 1978.86 723.202 1970.11 721.799L1689.3 676.804C1680.54 675.402 1671.74 678.991 1666.46 686.112L1426.39 1010.1C1423.41 1014.12 1421.78 1018.97 1421.72 1023.97L1416.5 1482.95C1416.42 1489.26 1418.86 1495.33 1423.27 1499.84L1650.03 1731.36Z" stroke="url(#paint5_linear_279_33871)" stroke-width="4.12898"/>
<path opacity="0.101449" d="M1600.64 1719.55C1607.53 1727.34 1618.7 1729.74 1628.18 1725.46L1921.37 1593.13C1927.13 1590.53 1931.61 1585.75 1933.83 1579.84L2093.66 1154.27C2095.42 1149.57 2095.66 1144.44 2094.32 1139.61L1988.09 754.366C1985.74 745.834 1978.84 739.319 1970.18 737.464L1693.81 678.198C1685.16 676.342 1676.19 679.454 1670.55 686.271L1415.7 994.083C1412.5 997.945 1410.61 1002.72 1410.29 1007.72L1381.57 1461.41C1381.17 1467.71 1383.3 1473.91 1387.49 1478.64L1600.64 1719.55Z" stroke="url(#paint6_linear_279_33871)" stroke-width="4.12898"/>
<path opacity="0.115942" d="M1552.13 1706.41C1558.6 1714.52 1569.59 1717.49 1579.27 1713.74L1876.94 1598.32C1882.84 1596.04 1887.58 1591.49 1890.11 1585.7L2070.45 1173.23C2072.46 1168.62 2072.96 1163.49 2071.87 1158.58L1986.15 771.97C1984.24 763.342 1977.69 756.49 1969.16 754.188L1697.95 680.993C1689.42 678.69 1680.31 681.317 1674.32 687.811L1405.72 978.796C1402.31 982.492 1400.16 987.177 1399.59 992.174L1347.91 1439.37C1347.18 1445.65 1348.99 1451.96 1352.94 1456.9L1552.13 1706.41Z" stroke="url(#paint7_linear_279_33871)" stroke-width="4.12898"/>
<path opacity="0.130435" d="M1504.55 1692.01C1510.59 1700.41 1521.37 1703.94 1531.2 1700.73L1832.41 1602.33C1838.43 1600.36 1843.41 1596.07 1846.25 1590.41L2046.16 1192.01C2048.42 1187.49 2049.19 1182.38 2048.35 1177.4L1982.99 790.511C1981.52 781.81 1975.34 774.642 1966.96 771.899L1701.6 685.15C1693.21 682.408 1684 684.545 1677.67 690.698L1396.4 964.27C1392.78 967.789 1390.38 972.369 1389.54 977.346L1315.5 1416.9C1314.45 1423.14 1315.94 1429.55 1319.63 1434.7L1504.55 1692.01Z" stroke="url(#paint8_linear_279_33871)" stroke-width="4.12898"/>
<path opacity="0.144928" d="M1457.96 1676.41C1463.55 1685.08 1474.09 1689.15 1484.06 1686.48L1787.83 1605.15C1793.96 1603.51 1799.17 1599.48 1802.32 1593.97L2020.82 1210.54C2023.33 1206.14 2024.36 1201.06 2023.77 1196.03L1978.57 809.911C1977.55 801.16 1971.76 793.695 1963.54 790.523L1704.71 690.63C1696.49 687.458 1687.19 689.099 1680.55 694.893L1387.67 950.531C1383.85 953.862 1381.2 958.324 1380.11 963.268L1284.37 1394.08C1282.99 1400.27 1284.15 1406.76 1287.59 1412.09L1457.96 1676.41Z" stroke="url(#paint9_linear_279_33871)" stroke-width="4.12898"/>
<path opacity="0.15942" d="M1412.42 1659.67C1417.55 1668.59 1427.83 1673.19 1437.89 1671.07L1743.28 1606.8C1749.49 1605.49 1754.93 1601.74 1758.36 1596.39L1994.45 1228.79C1997.2 1224.51 1998.5 1219.47 1998.17 1214.4L1972.86 830.098C1972.28 821.319 1966.9 813.58 1958.87 809.987L1707.2 697.394C1699.17 693.801 1689.81 694.944 1682.88 700.364L1379.5 937.611C1375.5 940.742 1372.61 945.073 1371.25 949.97L1254.52 1370.98C1252.82 1377.1 1253.65 1383.65 1256.82 1389.16L1412.42 1659.67Z" stroke="url(#paint10_linear_279_33871)" stroke-width="4.12898"/>
<path opacity="0.173913" d="M1367.99 1641.87C1372.64 1651.01 1382.63 1656.12 1392.76 1654.55L1698.81 1607.29C1705.1 1606.32 1710.74 1602.86 1714.46 1597.69L1967.08 1246.68C1970.06 1242.54 1971.63 1237.56 1971.55 1232.46L1965.83 850.991C1965.7 842.207 1960.73 834.214 1952.91 830.212L1709.03 705.393C1701.21 701.391 1691.82 702.034 1684.61 707.064L1371.85 925.531C1367.67 928.451 1364.54 932.639 1362.92 937.475L1225.96 1347.68C1223.94 1353.71 1224.44 1360.31 1227.33 1365.98L1367.99 1641.87Z" stroke="url(#paint11_linear_279_33871)" stroke-width="4.12898"/>
<path opacity="0.188406" d="M1324.71 1623.08C1328.88 1632.41 1338.55 1638.01 1348.72 1637L1654.51 1606.63C1660.85 1606 1666.67 1602.84 1670.67 1597.87L1938.74 1264.18C1941.94 1260.19 1943.77 1255.27 1943.96 1250.16L1957.46 872.506C1957.77 863.741 1953.23 855.518 1945.64 851.119L1710.12 714.577C1702.54 710.178 1693.14 710.32 1685.69 714.947L1364.67 914.308C1360.32 917.008 1356.96 921.039 1355.09 925.803L1198.7 1324.25C1196.37 1330.18 1196.52 1336.8 1199.13 1342.62L1324.71 1623.08Z" stroke="url(#paint12_linear_279_33871)" stroke-width="4.12898"/>
<path opacity="0.202899" d="M1282.62 1603.37C1286.3 1612.86 1295.64 1618.94 1305.81 1618.49L1610.4 1604.85C1616.78 1604.56 1622.78 1601.72 1627.04 1596.96L1909.44 1281.22C1912.87 1277.39 1914.96 1272.56 1915.4 1267.44L1947.71 894.564C1948.46 885.841 1944.36 877.409 1937.02 872.627L1710.43 724.893C1703.09 720.11 1693.72 719.754 1686.04 723.965L1357.89 903.962C1353.39 906.431 1349.81 910.294 1347.69 914.971L1172.72 1300.75C1170.08 1306.57 1169.9 1313.2 1172.21 1319.16L1282.62 1603.37Z" stroke="url(#paint13_linear_279_33871)" stroke-width="4.12898"/>
<path opacity="0.217391" d="M1241.76 1582.81C1244.96 1592.45 1253.92 1598.98 1264.07 1599.08L1566.57 1601.96C1572.97 1602.02 1579.12 1599.5 1583.63 1594.97L1879.23 1297.76C1882.87 1294.11 1885.21 1289.37 1885.92 1284.27L1936.58 917.087C1937.77 908.427 1934.11 899.811 1927.05 894.66L1709.9 736.29C1702.83 731.139 1693.51 730.286 1685.63 734.07L1351.5 894.51C1346.85 896.741 1343.06 900.423 1340.69 905.001L1148.03 1277.28C1145.09 1282.97 1144.57 1289.59 1146.58 1295.67L1241.76 1582.81Z" stroke="url(#paint14_linear_279_33871)" stroke-width="4.12898"/>
<path opacity="0.231884" d="M1202.16 1561.49C1204.85 1571.24 1213.43 1578.21 1223.53 1578.85L1523.04 1598C1529.43 1598.41 1535.72 1596.22 1540.48 1591.92L1848.12 1313.76C1851.95 1310.29 1854.55 1305.66 1855.52 1300.58L1924.02 939.988C1925.65 931.414 1922.45 922.637 1915.67 917.133L1708.45 748.707C1701.68 743.203 1692.43 741.857 1684.37 745.204L1345.39 885.961C1340.62 887.945 1336.62 891.435 1334.01 895.9L1124.59 1253.9C1121.36 1259.43 1120.5 1266.03 1122.2 1272.21L1202.16 1561.49Z" stroke="url(#paint15_linear_279_33871)" stroke-width="4.12898"/>
<path opacity="0.246377" d="M1163.88 1539.47C1166.07 1549.31 1174.24 1556.7 1184.25 1557.89L1479.91 1592.99C1486.29 1593.75 1492.7 1591.89 1497.68 1587.84L1816.18 1329.16C1820.21 1325.89 1823.06 1321.38 1824.28 1316.34L1910.09 963.187C1912.15 954.721 1909.4 945.808 1902.94 939.967L1706.1 762.086C1699.63 756.245 1690.49 754.413 1682.27 757.314L1339.59 878.327C1334.69 880.056 1330.5 883.343 1327.65 887.683L1102.44 1230.67C1098.91 1236.04 1097.71 1242.6 1099.11 1248.87L1163.88 1539.47Z" stroke="url(#paint16_linear_279_33871)" stroke-width="4.12898"/>
<path opacity="0.26087" d="M1126.9 1516.85C1128.59 1526.75 1136.33 1534.52 1146.23 1536.25L1437.19 1586.96C1443.53 1588.06 1450.04 1586.55 1455.24 1582.76L1783.42 1343.93C1787.63 1340.86 1790.72 1336.49 1792.21 1331.5L1894.72 986.6C1897.2 978.263 1894.92 969.239 1888.78 963.078L1702.74 776.365C1696.6 770.204 1687.59 767.892 1679.24 770.34L1333.98 871.613C1328.98 873.08 1324.6 876.152 1321.51 880.355L1081.5 1207.67C1077.69 1212.85 1076.16 1219.36 1077.24 1225.7L1126.9 1516.85Z" stroke="url(#paint17_linear_279_33871)" stroke-width="4.12898"/>
<path opacity="0.275362" d="M1091.27 1493.7C1092.46 1503.64 1099.75 1511.77 1109.5 1514.02L1394.97 1579.94C1401.24 1581.39 1407.84 1580.23 1413.24 1576.72L1749.9 1358.02C1754.29 1355.17 1757.61 1350.95 1759.35 1346.02L1877.96 1010.15C1880.85 1001.96 1879.04 992.85 1873.24 986.388L1698.38 791.48C1692.59 785.018 1683.72 782.235 1675.27 784.224L1328.55 865.823C1323.45 867.021 1318.9 869.869 1315.59 873.923L1061.78 1184.96C1057.71 1189.95 1055.84 1196.39 1056.6 1202.78L1091.27 1493.7Z" stroke="url(#paint18_linear_279_33871)" stroke-width="4.12898"/>
<path opacity="0.289855" d="M1056.99 1470.09C1057.67 1480.05 1064.5 1488.51 1074.08 1491.28L1353.25 1571.97C1359.45 1573.77 1366.11 1572.96 1371.7 1569.73L1715.64 1371.41C1720.19 1368.78 1723.74 1364.72 1725.74 1359.86L1859.78 1033.75C1863.07 1025.73 1861.74 1016.56 1856.3 1009.82L1692.96 807.368C1687.52 800.624 1678.83 797.38 1670.3 798.905L1323.22 860.959C1318.05 861.884 1313.33 864.497 1309.8 868.39L1043.24 1162.62C1038.91 1167.4 1036.71 1173.74 1037.15 1180.18L1056.99 1470.09Z" stroke="url(#paint19_linear_279_33871)" stroke-width="4.12898"/>
<path opacity="0.304348" d="M1024.07 1446.12C1024.25 1456.06 1030.6 1464.83 1039.99 1468.11L1312.1 1563.09C1318.21 1565.22 1324.92 1564.77 1330.68 1561.84L1680.7 1384.04C1685.4 1381.65 1689.17 1377.77 1691.42 1373L1840.2 1057.32C1843.89 1049.5 1843.03 1040.29 1837.96 1033.28L1686.45 823.961C1681.38 816.954 1672.9 813.259 1664.31 814.318L1317.96 857.018C1312.73 857.664 1307.86 860.033 1304.12 863.754L1025.86 1140.69C1021.27 1145.25 1018.75 1151.48 1018.87 1157.95L1024.07 1446.12Z" stroke="url(#paint20_linear_279_33871)" stroke-width="4.12898"/>
<path opacity="0.318841" d="M992.538 1421.86C992.22 1431.76 998.077 1440.81 1007.23 1444.58L1271.58 1553.34C1277.57 1555.81 1284.3 1555.72 1290.23 1553.09L1645.12 1395.9C1649.96 1393.76 1653.95 1390.05 1656.45 1385.38L1819.25 1080.8C1823.32 1073.18 1822.93 1063.96 1818.24 1056.71L1678.84 841.196C1674.15 833.946 1665.9 829.814 1657.28 830.404L1312.72 854.002C1307.44 854.363 1302.43 856.481 1298.49 860.018L1009.6 1119.26C1004.78 1123.58 1001.94 1129.69 1001.73 1136.16L992.538 1421.86Z" stroke="url(#paint21_linear_279_33871)" stroke-width="4.12898"/>
<path opacity="0.333333" d="M962.376 1397.38C961.565 1407.22 966.916 1416.52 975.82 1420.77L1231.7 1542.76C1237.56 1545.55 1244.3 1545.82 1250.37 1543.51L1608.96 1406.95C1613.93 1405.06 1618.12 1401.55 1620.86 1396.99L1796.94 1104.09C1801.38 1096.7 1801.47 1087.49 1797.17 1080.02L1670.1 858.998C1665.8 851.528 1657.8 846.971 1649.18 847.092L1307.46 851.895C1302.14 851.969 1297 853.827 1292.87 857.169L994.43 1098.36C989.383 1102.44 986.226 1108.41 985.692 1114.87L962.376 1397.38Z" stroke="url(#paint22_linear_279_33871)" stroke-width="4.12898"/>
<path opacity="0.347826" d="M933.591 1372.78C932.292 1382.52 937.128 1392.05 945.754 1396.76L1192.52 1531.38C1198.23 1534.5 1204.96 1535.13 1211.15 1533.15L1572.26 1417.16C1577.34 1415.53 1581.73 1412.23 1584.71 1407.8L1773.29 1127.12C1778.09 1119.98 1778.65 1110.81 1774.76 1103.14L1660.21 877.303C1656.32 869.634 1648.58 864.668 1639.99 864.321L1302.11 850.694C1296.78 850.478 1291.53 852.068 1287.21 855.205L980.312 1078.07C975.051 1081.89 971.587 1087.7 970.729 1094.14L933.591 1372.78Z" stroke="url(#paint23_linear_279_33871)" stroke-width="4.12898"/>
<path opacity="0.362319" d="M906.159 1348.12C904.381 1357.75 908.692 1367.48 917.015 1372.63L1154.05 1519.27C1159.59 1522.7 1166.3 1523.7 1172.6 1522.04L1535.06 1426.52C1540.25 1425.15 1544.82 1422.07 1548.03 1417.77L1748.33 1149.82C1753.47 1142.95 1754.5 1133.84 1751.02 1125.99L1649.14 896.044C1645.66 888.197 1638.22 882.837 1629.68 882.026L1296.63 850.386C1291.3 849.879 1285.94 851.194 1281.45 854.116L967.186 1058.43C961.725 1061.98 957.963 1067.62 956.78 1074.03L906.159 1348.12Z" stroke="url(#paint24_linear_279_33871)" stroke-width="4.12898"/>
<path opacity="0.376812" d="M880.084 1323.49C877.836 1332.98 881.614 1342.87 889.611 1348.44L1116.35 1506.46C1121.7 1510.19 1128.36 1511.56 1134.75 1510.23L1497.43 1434.99C1502.7 1433.9 1507.44 1431.05 1510.88 1426.9L1722.1 1172.13C1727.57 1165.53 1729.06 1156.51 1726 1148.51L1636.91 915.148C1633.85 907.147 1626.72 901.411 1618.26 900.138L1290.99 850.956C1285.66 850.156 1280.22 851.19 1275.56 853.889L955.024 1039.5C949.377 1042.77 945.325 1048.22 943.82 1054.57L880.084 1323.49Z" stroke="url(#paint25_linear_279_33871)" stroke-width="4.12898"/>
<path opacity="0.391304" d="M855.343 1298.96C852.634 1308.28 855.874 1318.31 863.523 1324.29L1079.43 1493.01C1084.58 1497.03 1091.16 1498.75 1097.62 1497.77L1459.4 1442.57C1464.75 1441.76 1469.66 1439.14 1473.31 1435.15L1694.62 1193.96C1700.4 1187.66 1702.35 1178.75 1699.72 1170.62L1623.49 934.549C1620.86 926.416 1614.07 920.322 1605.7 918.594L1285.12 852.39C1279.83 851.296 1274.31 852.044 1269.5 854.509L943.77 1021.33C937.95 1024.31 933.618 1029.56 931.793 1035.84L855.343 1298.96Z" stroke="url(#paint26_linear_279_33871)" stroke-width="4.12898"/>
<path opacity="0.405797" d="M831.911 1274.6C828.753 1283.74 831.45 1293.88 838.73 1300.24L1043.31 1478.95C1048.24 1483.26 1054.74 1485.34 1061.26 1484.7L1421.03 1449.24C1426.44 1448.71 1431.5 1446.34 1435.37 1442.52L1665.93 1215.27C1672.01 1209.28 1674.4 1200.49 1672.21 1192.25L1608.88 954.179C1606.69 945.938 1600.24 939.505 1592 937.328L1278.99 854.669C1273.74 853.281 1268.17 853.738 1263.21 855.962L933.369 1003.95C927.392 1006.64 922.789 1011.67 920.649 1017.86L831.911 1274.6Z" stroke="url(#paint27_linear_279_33871)" stroke-width="4.12898"/>
<path opacity="0.42029" d="M809.771 1250.48C806.176 1259.41 808.328 1269.63 815.22 1276.35L1008.02 1464.34C1012.72 1468.93 1019.11 1471.36 1025.67 1471.06L1382.39 1454.98C1387.84 1454.73 1393.04 1452.62 1397.11 1448.98L1636.09 1235.96C1642.44 1230.3 1645.28 1221.67 1643.52 1213.35L1593.09 973.964C1591.34 965.637 1585.26 958.886 1577.16 956.268L1272.56 857.765C1267.37 856.085 1261.75 856.246 1256.66 858.221L923.776 987.418C917.657 989.793 912.794 994.595 910.343 1000.68L809.771 1250.48Z" stroke="url(#paint28_linear_279_33871)" stroke-width="4.12898"/>
<path opacity="0.434783" d="M788.903 1226.69C784.884 1235.39 786.491 1245.65 792.976 1252.71L973.602 1449.24C978.052 1454.08 984.312 1456.86 990.889 1456.92L1343.52 1459.79C1349 1459.83 1354.33 1457.98 1358.6 1454.54L1605.14 1256.01C1611.75 1250.68 1615.02 1242.23 1613.7 1233.85L1576.13 993.843C1574.82 985.455 1569.13 978.407 1561.21 975.358L1265.79 861.663C1260.68 859.693 1255.03 859.556 1249.83 861.274L914.945 971.764C908.699 973.825 903.588 978.384 900.831 984.355L788.903 1226.69Z" stroke="url(#paint29_linear_279_33871)" stroke-width="4.12898"/>
<path opacity="0.449275" d="M769.251 1203.27C764.823 1211.72 765.885 1222.01 771.947 1229.37L940.037 1433.69C944.224 1438.78 950.338 1441.9 956.916 1442.31L1304.45 1463.66C1309.95 1464 1315.4 1462.41 1319.86 1459.18L1573.11 1275.34C1579.96 1270.37 1583.65 1262.11 1582.78 1253.69L1558 1013.75C1557.13 1005.33 1551.83 998.002 1544.11 994.533L1258.63 866.338C1253.6 864.081 1247.95 863.642 1242.63 865.097L906.796 957.029C900.439 958.769 895.092 963.072 892.034 968.91L769.251 1203.27Z" stroke="url(#paint30_linear_279_33871)" stroke-width="4.12898"/>
<path opacity="0.463768" d="M750.8 1180.31C745.978 1188.49 746.498 1198.76 752.121 1206.41L907.363 1417.75C911.272 1423.07 917.222 1426.53 923.782 1427.28L1265.28 1466.59C1270.78 1467.22 1276.32 1465.91 1280.96 1462.89L1540.07 1293.9C1547.15 1289.29 1551.24 1281.26 1550.81 1272.82L1538.71 1033.62C1538.28 1025.18 1533.4 1017.61 1525.89 1013.73L1251.05 871.759C1246.13 869.219 1240.48 868.477 1235.07 869.662L899.29 943.239C892.839 944.653 887.269 948.689 883.917 954.379L750.8 1180.31Z" stroke="url(#paint31_linear_279_33871)" stroke-width="4.12898"/>
<path opacity="0.478261" d="M733.506 1157.85C728.307 1165.74 728.289 1175.97 733.459 1183.89L875.585 1401.46C879.204 1407 884.971 1410.78 891.495 1411.88L1226.03 1468.57C1231.51 1469.5 1237.15 1468.48 1241.96 1465.67L1506.07 1311.65C1513.36 1307.4 1517.84 1299.61 1517.86 1291.18L1518.28 1053.39C1518.3 1044.96 1513.84 1037.15 1506.58 1032.88L1243.02 877.897C1238.22 875.077 1232.59 874.031 1227.1 874.94L892.364 930.423C885.836 931.505 880.055 935.262 876.417 940.789L733.506 1157.85Z" stroke="url(#paint32_linear_279_33871)" stroke-width="4.12898"/>
<path opacity="0.492754" d="M717.322 1135.96C711.763 1143.55 711.212 1153.71 715.917 1161.86L844.707 1384.88C848.023 1390.62 853.589 1394.72 860.059 1396.17L1186.76 1469.62C1192.21 1470.85 1197.93 1470.11 1202.89 1467.54L1471.17 1328.52C1478.64 1324.66 1483.5 1317.13 1483.96 1308.73L1496.74 1072.99C1497.19 1064.59 1493.17 1056.58 1486.17 1051.93L1234.49 884.725C1229.83 881.631 1224.23 880.28 1218.68 880.91L885.951 918.608C879.362 919.355 873.386 922.823 869.468 928.173L717.322 1135.96Z" stroke="url(#paint33_linear_279_33871)" stroke-width="4.12898"/>
<path opacity="0.507246" d="M702.21 1114.7C696.309 1121.97 695.233 1132.03 699.463 1140.38L814.742 1368.06C817.743 1373.99 823.092 1378.38 829.488 1380.19L1147.53 1469.73C1152.94 1471.26 1158.71 1470.81 1163.82 1468.48L1435.43 1344.49C1443.06 1341.01 1448.29 1333.76 1449.18 1325.42L1474.1 1092.37C1474.99 1084.03 1471.42 1075.84 1464.69 1070.82L1225.44 892.208C1220.94 888.847 1215.39 887.192 1209.78 887.536L879.999 907.813C873.366 908.221 867.208 911.389 863.021 916.549L702.21 1114.7Z" stroke="url(#paint34_linear_279_33871)" stroke-width="4.12898"/>
<path opacity="0.521739" d="M688.113 1094.12C681.889 1101.05 680.297 1110.99 684.043 1119.52L785.682 1351.05C788.359 1357.14 793.473 1361.84 799.777 1363.98L1108.38 1468.92C1113.73 1470.74 1119.55 1470.59 1124.8 1468.51L1398.9 1359.52C1406.67 1356.43 1412.25 1349.47 1413.57 1341.21L1450.38 1111.46C1451.71 1103.2 1448.59 1094.86 1442.17 1089.49L1215.84 900.315C1211.51 896.693 1206.02 894.735 1200.38 894.791L874.435 898.057C867.776 898.123 861.451 900.984 857.003 905.939L688.113 1094.12Z" stroke="url(#paint35_linear_279_33871)" stroke-width="4.12898"/>
<path opacity="0.536232" d="M674.98 1074.27C668.453 1080.85 666.355 1090.63 669.609 1099.32L757.527 1333.9C759.869 1340.15 764.733 1345.12 770.927 1347.61L1069.36 1467.2C1074.63 1469.31 1080.49 1469.47 1085.86 1467.63L1361.65 1373.56C1369.54 1370.87 1375.45 1364.22 1377.2 1356.07L1425.63 1130.22C1427.38 1122.07 1424.71 1113.59 1418.62 1107.89L1205.65 909.011C1201.5 905.136 1196.1 902.876 1190.43 902.641L869.197 889.352C862.529 889.076 856.053 891.619 851.355 896.359L674.98 1074.27Z" stroke="url(#paint36_linear_279_33871)" stroke-width="4.12898"/>
<path opacity="0.550725" d="M662.765 1055.19C655.954 1061.41 653.363 1071.01 656.119 1079.82L654.149 1080.43L656.119 1079.82L730.28 1316.66C732.278 1323.05 736.876 1328.29 742.942 1331.1L1030.53 1464.58C1035.71 1466.98 1041.58 1467.44 1047.07 1465.86L1323.74 1386.59C1331.74 1384.29 1337.95 1377.98 1340.12 1369.95L1399.86 1148.59C1402.03 1140.56 1399.83 1131.98 1394.07 1125.97L1194.86 918.256C1190.91 914.137 1185.6 911.579 1179.92 911.05L864.227 881.707C857.568 881.088 850.957 883.306 846.018 887.816L662.765 1055.19Z" stroke="url(#paint37_linear_279_33871)" stroke-width="4.12898"/>
<path opacity="0.565217" d="M651.417 1036.94C644.344 1042.78 641.273 1052.18 643.527 1061.07L703.94 1299.39C705.586 1305.89 709.903 1311.39 715.823 1314.53L991.944 1461.08C997.013 1463.77 1002.89 1464.53 1008.47 1463.22L1285.25 1398.57C1293.33 1396.69 1299.83 1390.72 1302.41 1382.83L1373.13 1166.52C1375.71 1158.63 1373.98 1149.97 1368.58 1143.67L1183.44 928.019C1179.7 923.665 1174.51 920.812 1168.83 919.988L859.469 875.131C852.836 874.169 846.105 876.056 840.939 880.325L651.417 1036.94Z" stroke="url(#paint38_linear_279_33871)" stroke-width="4.12898"/>
<path opacity="0.57971" d="M640.866 1019.54C633.552 1025 630.014 1034.16 631.765 1043.12L678.483 1282.13C679.772 1288.72 683.793 1294.46 689.549 1297.92L953.631 1456.71C958.577 1459.68 964.436 1460.76 970.114 1459.72L1246.22 1409.5C1254.36 1408.02 1261.15 1402.4 1264.12 1394.69L1345.46 1183.95C1348.43 1176.23 1347.18 1167.52 1342.15 1160.96L1171.37 938.258C1167.85 933.679 1162.79 930.535 1157.13 929.415L854.845 869.623C848.255 868.319 841.422 869.868 836.038 873.886L640.866 1019.54Z" stroke="url(#paint39_linear_279_33871)" stroke-width="4.12898"/>
<path opacity="0.594203" d="M631.054 1003.03C623.521 1008.1 619.533 1017.01 620.78 1026L653.901 1264.92C654.826 1271.59 658.538 1277.55 664.114 1281.33L915.641 1451.5C920.448 1454.76 926.28 1456.14 932.034 1455.38L1206.74 1419.33C1214.92 1418.26 1221.96 1413.02 1225.32 1405.49L1316.88 1200.85C1320.25 1193.32 1319.47 1184.58 1314.82 1177.76L1158.61 948.932C1155.34 944.139 1150.43 940.71 1144.8 939.293L850.294 865.18C843.766 863.537 836.846 864.743 831.258 868.498L631.054 1003.03Z" stroke="url(#paint40_linear_279_33871)" stroke-width="4.12898"/>
<path opacity="0.608696" d="M621.925 987.458C614.195 992.116 609.774 1000.75 610.517 1009.75L630.182 1247.83C630.738 1254.55 634.129 1260.72 639.507 1264.8L878.021 1445.49C882.674 1449.01 888.463 1450.7 894.281 1450.23L1166.87 1428.08C1175.06 1427.41 1182.33 1422.55 1186.08 1415.23L1287.45 1217.16C1291.2 1209.84 1290.89 1201.1 1286.63 1194.07L1145.17 960.009C1142.15 955.013 1137.4 951.305 1131.82 949.592L845.758 861.805C839.307 859.825 832.319 860.684 826.539 864.166L621.925 987.458Z" stroke="url(#paint41_linear_279_33871)" stroke-width="4.12898"/>
<path opacity="0.623188" d="M613.425 972.832C605.52 977.078 600.685 985.418 600.928 994.388L607.32 1230.87C607.503 1237.64 610.56 1244 615.725 1248.36L840.825 1438.68C845.309 1442.47 851.038 1444.46 856.907 1444.28L1126.68 1435.71C1134.88 1435.45 1142.35 1430.98 1146.47 1423.89L1257.22 1232.86C1261.33 1225.77 1261.49 1217.05 1257.65 1209.81L1131.04 971.439C1128.28 966.254 1123.71 962.273 1118.19 960.265L841.183 859.48C834.828 857.167 827.788 857.675 821.83 860.875L613.425 972.832Z" stroke="url(#paint42_linear_279_33871)" stroke-width="4.12898"/>
<path opacity="0.637681" d="M605.48 959.185C597.423 963.015 592.193 971.037 591.94 979.953L585.283 1214.12C585.09 1220.9 587.803 1227.43 592.738 1232.08L804.079 1431.11C808.379 1435.16 814.034 1437.46 819.94 1437.56L1086.24 1442.23C1094.41 1442.37 1102.08 1438.3 1106.54 1431.45L1226.22 1247.9C1230.68 1241.05 1231.31 1232.39 1227.88 1224.97L1116.18 983.19C1113.7 977.828 1109.32 973.581 1103.88 971.28L836.498 858.199C830.255 855.558 823.181 855.713 817.058 858.622L605.48 959.185Z" stroke="url(#paint43_linear_279_33871)" stroke-width="4.12898"/>
<path opacity="0.652174" d="M598.032 946.539C589.846 949.946 584.241 957.631 583.498 966.467L564.055 1197.6C563.485 1204.37 565.844 1211.06 570.533 1215.98L767.829 1422.82C771.931 1427.12 777.497 1429.72 783.427 1430.12L1045.61 1447.63C1053.74 1448.17 1061.57 1444.51 1066.37 1437.93L1194.5 1262.25C1199.3 1255.66 1200.39 1247.08 1197.39 1239.51L1100.6 995.219C1098.41 989.694 1094.23 985.19 1088.88 982.599L831.648 857.947C825.534 854.984 818.443 854.783 812.17 857.394L598.032 946.539Z" stroke="url(#paint44_linear_279_33871)" stroke-width="4.12898"/>
<path opacity="0.666667" d="M591.016 934.903C582.725 937.886 576.767 945.216 575.542 953.942L543.614 1181.36C542.667 1188.1 544.662 1194.93 549.091 1200.1L732.112 1413.83C736.002 1418.37 741.463 1421.28 747.403 1421.97L1004.87 1451.91C1012.93 1452.85 1020.91 1449.6 1026.03 1443.3L1162.12 1275.87C1167.24 1269.57 1168.78 1261.09 1166.22 1253.39L1084.29 1007.48C1082.4 1001.81 1078.44 997.056 1073.2 994.176L826.576 858.7C820.607 855.421 813.517 854.864 807.109 857.169L591.016 934.903Z" stroke="url(#paint45_linear_279_33871)" stroke-width="4.12898"/>
<path opacity="0.681159" d="M584.361 924.293C575.986 926.849 569.697 933.808 568 942.398L523.924 1165.43C522.601 1172.13 524.224 1179.07 528.38 1184.49L696.954 1404.18C700.617 1408.95 705.958 1412.16 711.895 1413.15L964.066 1455.08C972.045 1456.41 980.152 1453.58 985.575 1447.58L1129.11 1288.74C1134.53 1282.74 1136.53 1274.39 1134.4 1266.59L1067.23 1019.94C1065.65 1014.13 1061.92 1009.14 1056.8 1005.98L821.215 860.439C815.408 856.851 808.337 855.937 801.807 857.93L584.361 924.293Z" stroke="url(#paint46_linear_279_33871)" stroke-width="4.12898"/>
<path opacity="0.695652" d="M578.01 914.718C569.574 916.846 562.979 923.418 560.82 931.846L504.97 1149.86C503.272 1156.49 504.516 1163.53 508.385 1169.17L662.397 1393.91C665.821 1398.9 671.026 1402.4 676.946 1403.69L923.283 1457.15C931.159 1458.86 939.366 1456.45 945.075 1450.76L1095.54 1300.84C1101.25 1295.15 1103.68 1286.96 1102 1279.07L1049.43 1032.55C1048.17 1026.62 1044.69 1021.4 1039.7 1017.96L815.522 863.139C809.891 859.251 802.857 857.981 796.222 859.655L578.01 914.718Z" stroke="url(#paint47_linear_279_33871)" stroke-width="4.12898"/>
<path opacity="0.710145" d="M571.898 906.181C563.425 907.883 556.546 914.055 553.938 922.294L486.72 1134.67C484.65 1141.21 485.51 1148.33 489.078 1154.18L628.469 1383.05C631.641 1388.26 636.696 1392.05 642.585 1393.63L882.58 1458.13C890.335 1460.21 898.619 1458.23 904.596 1452.87L1061.45 1312.15C1067.43 1306.78 1070.29 1298.76 1069.06 1290.83L1030.89 1045.27C1029.95 1039.24 1026.73 1033.81 1021.9 1030.09L809.441 866.772C804.003 862.592 797.022 860.968 790.297 862.318L571.898 906.181Z" stroke="url(#paint48_linear_279_33871)" stroke-width="4.12898"/>
<path opacity="0.724638" d="M565.953 898.683C557.465 899.96 550.327 905.719 547.284 913.745L469.135 1119.9C466.698 1126.33 467.168 1133.5 470.424 1139.56L595.192 1371.65C598.099 1377.06 602.987 1381.13 608.831 1383.01L842.013 1458.03C849.628 1460.48 857.966 1458.93 864.192 1453.91L1026.9 1322.64C1033.12 1317.61 1036.4 1309.79 1035.62 1301.83L1011.59 1058.06C1010.99 1051.95 1008.05 1046.31 1003.38 1042.33L802.913 871.306C797.681 866.843 790.772 864.868 783.972 865.891L565.953 898.683Z" stroke="url(#paint49_linear_279_33871)" stroke-width="4.12898"/>
<path opacity="0.73913" d="M560.133 892.219C551.653 893.074 544.281 898.41 540.819 906.199L452.206 1105.58C449.406 1111.88 449.482 1119.09 452.415 1125.33L562.611 1359.74C565.241 1365.34 569.949 1369.69 575.735 1371.86L801.665 1456.89C809.123 1459.69 817.492 1458.57 823.947 1453.9L991.95 1332.3C998.405 1327.63 1002.09 1320.03 1001.75 1312.07L991.576 1070.88C991.315 1064.71 988.656 1058.87 984.163 1054.63L795.91 876.706C790.901 871.972 784.08 869.648 777.222 870.339L560.133 892.219Z" stroke="url(#paint50_linear_279_33871)" stroke-width="4.12898"/>
<path opacity="0.753623" d="M554.345 886.784C545.893 887.221 538.313 892.124 534.449 899.653L435.866 1091.74C432.711 1097.89 432.391 1105.11 434.989 1111.51L530.718 1347.38C533.059 1353.15 537.573 1357.76 543.286 1360.24L761.565 1454.71C768.849 1457.86 777.226 1457.17 783.89 1452.86L956.628 1341.12C963.292 1336.81 967.362 1329.46 967.473 1321.52L970.806 1083.7L972.87 1083.73L970.806 1083.7C970.893 1077.47 968.532 1071.46 964.23 1066.96L788.356 882.937C783.581 877.942 776.867 875.274 769.966 875.631L554.345 886.784Z" stroke="url(#paint51_linear_279_33871)" stroke-width="4.12898"/>
<path opacity="0.768116" d="M548.559 882.365C540.158 882.39 532.396 886.853 528.148 894.101L420.115 1078.41C416.611 1084.38 415.893 1091.59 418.149 1098.14L499.567 1334.59C501.608 1340.52 505.913 1345.4 511.54 1348.17L721.804 1451.53C728.897 1455.02 737.26 1454.75 744.112 1450.81L921.02 1349.1C927.872 1345.16 932.315 1338.07 932.87 1330.18L949.326 1096.46C949.766 1090.21 947.714 1084.03 943.617 1079.28L780.239 889.96C775.713 884.715 769.121 881.709 762.194 881.73L548.559 882.365Z" stroke="url(#paint52_linear_279_33871)" stroke-width="4.12898"/>
<path opacity="0.782609" d="M542.686 878.952C534.357 878.571 526.438 882.588 521.825 889.534L404.885 1065.6C401.043 1071.39 399.926 1078.57 401.83 1085.25L469.144 1321.43C470.876 1327.51 474.957 1332.64 480.485 1335.7L682.406 1447.39C689.293 1451.2 697.619 1451.35 704.638 1447.79L885.149 1356.22C892.167 1352.66 896.965 1345.86 897.96 1338.05L927.113 1109.15C927.911 1102.88 926.179 1096.55 922.3 1091.57L771.486 897.736C767.221 892.255 760.77 888.916 753.832 888.599L542.686 878.952Z" stroke="url(#paint53_linear_279_33871)" stroke-width="4.12898"/>
<path opacity="0.797101" d="M536.694 876.52C528.457 875.742 520.409 879.308 515.452 885.932L390.169 1053.35C385.997 1058.92 384.483 1066.05 386.027 1072.84L439.494 1307.94C440.905 1314.15 444.75 1319.53 450.165 1322.87L643.454 1442.3C650.119 1446.42 658.387 1446.99 665.551 1443.81L849.093 1362.49C856.257 1359.32 861.393 1352.81 862.82 1345.11L904.208 1121.7C905.368 1115.44 903.965 1108.98 900.316 1103.77L762.087 906.216C758.095 900.511 751.8 896.846 744.868 896.191L536.694 876.52Z" stroke="url(#paint54_linear_279_33871)" stroke-width="4.12898"/>
<path opacity="0.811594" d="M530.497 875.056C522.373 873.889 514.222 877.001 508.942 883.286L375.9 1041.66C371.41 1047.01 369.5 1054.06 370.678 1060.94L410.599 1294.17C411.682 1300.49 415.276 1306.11 420.564 1309.74L604.969 1436.32C611.4 1440.74 619.588 1441.71 626.874 1438.93L812.878 1367.91C820.165 1365.13 825.62 1358.95 827.472 1351.37L880.595 1134.1C882.119 1127.87 881.056 1121.29 877.649 1115.85L751.978 915.361C748.271 909.447 742.148 905.463 735.238 904.47L530.497 875.056Z" stroke="url(#paint55_linear_279_33871)" stroke-width="4.12898"/>
<path opacity="0.826087" d="M524.075 874.529C516.083 872.983 507.855 875.64 502.276 881.569L362.074 1030.57C357.278 1035.66 354.975 1042.62 355.78 1049.57L382.504 1280.16C383.249 1286.58 386.58 1292.42 391.729 1296.33L567.035 1429.48C573.217 1434.17 581.303 1435.55 588.69 1433.16L776.589 1372.49C783.976 1370.1 789.73 1364.25 791.998 1356.83L856.323 1146.3L858.298 1146.91L856.323 1146.3C858.213 1140.12 857.499 1133.43 854.346 1127.79L741.159 925.12C737.747 919.009 731.812 914.716 724.94 913.386L524.075 874.529Z" stroke="url(#paint56_linear_279_33871)" stroke-width="4.12898"/>
<path opacity="0.84058" d="M517.352 874.916C509.509 873.002 501.231 875.204 495.376 880.762L348.628 1020.07C343.539 1024.9 340.848 1031.74 341.277 1038.74L355.193 1265.96C355.592 1272.46 358.647 1278.52 363.643 1282.7L529.672 1421.81C535.593 1426.77 543.558 1428.54 551.023 1426.56L740.251 1376.22C747.716 1374.24 753.749 1368.74 756.422 1361.49L831.387 1158.28C833.642 1152.16 833.285 1145.39 830.399 1139.54L729.578 935.446C726.47 929.155 720.738 924.56 713.921 922.896L517.352 874.916Z" stroke="url(#paint57_linear_279_33871)" stroke-width="4.12898"/>
<path opacity="0.855072" d="M510.281 876.183C502.606 873.912 494.304 875.661 488.198 880.835L335.531 1010.19C330.163 1014.73 327.089 1021.43 327.137 1028.46L328.676 1251.61C328.721 1258.18 331.489 1264.44 336.319 1268.89L492.93 1413.37C498.579 1418.58 506.402 1420.74 513.923 1419.15L703.921 1379.13C711.442 1377.54 717.731 1372.42 720.797 1365.37L805.809 1169.99C808.431 1163.96 808.438 1157.12 805.829 1151.09L717.212 946.287C714.418 939.83 708.905 934.945 702.158 932.949L510.281 876.183Z" stroke="url(#paint58_linear_279_33871)" stroke-width="4.12898"/>
<path opacity="0.869565" d="M502.822 878.296C495.332 875.682 487.032 876.981 480.7 881.759L322.748 1000.92C317.117 1005.17 313.667 1011.7 313.332 1018.75L302.962 1237.16C302.648 1243.78 305.115 1250.23 309.767 1254.95L456.855 1404.2C462.222 1409.65 469.883 1412.18 477.437 1410.99L667.654 1381.22C675.208 1380.03 681.73 1375.29 685.176 1368.46L779.619 1181.4C782.606 1175.48 782.984 1168.59 780.662 1162.38L704.046 957.59C701.574 950.984 696.293 945.818 689.633 943.494L502.822 878.296Z" stroke="url(#paint59_linear_279_33871)" stroke-width="4.12898"/>
<path opacity="0.884058" d="M494.905 881.226C487.617 878.282 479.345 879.137 472.812 883.508L310.219 992.296C304.341 996.229 300.522 1002.58 299.803 1009.61L278.027 1222.66C277.347 1229.31 279.503 1235.94 283.964 1240.91L421.46 1394.35C426.535 1400.02 434.016 1402.91 441.581 1402.13L631.473 1382.51C639.038 1381.73 645.77 1377.37 649.58 1370.79L752.814 1192.49C756.164 1186.71 756.919 1179.78 754.894 1173.41L690.036 969.311C687.894 962.57 682.858 957.136 676.3 954.487L494.905 881.226Z" stroke="url(#paint60_linear_279_33871)" stroke-width="4.12898"/>
<path opacity="0.898551" d="M486.521 884.929C479.45 881.67 471.23 882.086 464.523 886.042L297.937 984.303C291.829 987.906 287.651 994.051 286.547 1001.06L253.901 1208.15C252.851 1214.81 254.684 1221.61 258.943 1226.84L386.812 1383.88C391.587 1389.74 398.87 1392.98 406.423 1392.6L595.457 1383.03C603.009 1382.65 609.928 1378.69 614.086 1372.38L725.451 1203.23C729.16 1197.6 730.298 1190.65 728.581 1184.13L675.198 981.39C673.392 974.533 668.615 968.841 662.175 965.873L486.521 884.929Z" stroke="url(#paint61_linear_279_33871)" stroke-width="4.12898"/>
<path opacity="0.913043" d="M477.605 889.366C470.764 885.807 462.621 885.793 455.768 889.327L285.839 976.948C279.519 980.206 274.993 986.126 273.504 993.078L230.554 1193.68C229.129 1200.33 230.629 1207.28 234.673 1212.75L352.916 1372.82C357.384 1378.87 364.451 1382.44 371.97 1382.45L559.623 1382.79C567.142 1382.8 574.222 1379.26 578.711 1373.23L697.531 1213.59C701.595 1208.13 703.12 1201.19 701.719 1194.53L659.493 993.775C658.029 986.817 653.524 980.881 647.216 977.599L477.605 889.366Z" stroke="url(#paint62_linear_279_33871)" stroke-width="4.12898"/>
<path opacity="0.927536" d="M468.134 894.495C461.537 890.652 453.495 890.216 446.522 893.323L273.902 970.231C267.39 973.132 262.526 978.807 260.655 985.686L207.993 1179.29C206.19 1185.91 207.347 1193 211.165 1198.71L319.814 1361.24C323.967 1367.45 330.804 1371.34 338.266 1371.75L524.03 1381.82C531.492 1382.22 538.71 1379.09 543.51 1373.36L669.094 1223.54C673.507 1218.27 675.424 1211.36 674.348 1204.57L642.926 1006.41C641.809 999.37 637.588 993.203 631.427 989.615L468.134 894.495Z" stroke="url(#paint63_linear_279_33871)" stroke-width="4.12898"/>
<path opacity="0.942029" d="M458.058 900.274C451.718 896.164 443.8 895.317 436.734 897.993L262.071 964.153C255.386 966.685 250.198 972.095 247.947 978.88L186.191 1165.02C184.007 1171.61 184.811 1178.82 188.392 1184.76L287.512 1349.18C291.346 1355.55 297.936 1359.75 305.321 1360.53L488.7 1380.14C496.085 1380.93 503.413 1378.22 508.506 1372.82L640.152 1233.06C644.908 1228.01 647.218 1221.14 646.475 1214.24L625.474 1019.25C624.708 1012.14 620.781 1005.76 614.783 1001.87L458.058 900.274Z" stroke="url(#paint64_linear_279_33871)" stroke-width="4.12898"/>
<path opacity="0.956522" d="M447.36 906.648C441.288 902.288 433.516 901.043 426.385 903.288L250.324 958.704C243.487 960.855 237.989 965.981 235.362 972.65L165.15 1150.93C162.583 1157.44 163.025 1164.76 166.358 1170.92L256.046 1336.71C259.557 1343.2 265.885 1347.69 273.171 1348.86L453.686 1377.78C460.972 1378.95 468.387 1376.67 473.75 1371.6L610.748 1242.13C615.839 1237.32 618.545 1230.5 618.143 1223.51L607.148 1032.22C606.737 1025.07 603.115 1018.48 597.293 1014.3L447.36 906.648Z" stroke="url(#paint65_linear_279_33871)" stroke-width="4.12898"/>
<path opacity="0.971014" d="M436.013 913.581C430.218 908.988 422.614 907.358 415.446 909.17L238.625 953.884C231.657 955.646 225.863 960.469 222.866 967.001L144.854 1137.04C141.903 1143.48 141.975 1150.89 145.049 1157.26L225.43 1323.89C228.614 1330.49 234.669 1335.25 241.835 1336.79L419.023 1374.78C426.19 1376.32 433.664 1374.46 439.275 1369.74L580.91 1250.73C586.327 1246.17 589.432 1239.44 589.378 1232.37L587.947 1045.29C587.892 1038.1 584.585 1031.33 578.953 1026.86L436.013 913.581Z" stroke="url(#paint66_linear_279_33871)" stroke-width="4.12898"/>
<path opacity="0.985507" d="M423.983 921.017C418.475 916.21 411.059 914.209 403.881 915.592L226.929 949.681C219.853 951.044 213.779 955.547 210.419 961.921L125.277 1123.41C121.943 1129.74 121.636 1137.22 124.441 1143.8L195.669 1310.76C198.524 1317.45 204.293 1322.46 211.32 1324.36L384.736 1371.16C391.763 1373.06 399.271 1371.63 405.107 1367.28L550.662 1258.83C556.395 1254.56 559.898 1247.93 560.198 1240.79L567.866 1058.39C568.169 1051.19 565.185 1044.24 559.756 1039.51L423.983 921.017Z" stroke="url(#paint67_linear_279_33871)" stroke-width="4.12898"/>
<path d="M411.24 928.907C406.026 923.904 398.819 921.548 391.657 922.505L215.194 946.084C208.032 947.041 201.696 951.207 197.979 957.403L106.391 1110.07C102.674 1116.27 101.981 1123.82 104.508 1130.59L166.763 1297.38C169.289 1304.15 174.761 1309.4 181.628 1311.64L350.847 1366.96C357.715 1369.21 365.231 1368.2 371.268 1364.23L520.025 1266.42C526.062 1262.45 529.963 1255.95 530.624 1248.76L546.902 1071.47C547.563 1064.28 544.911 1057.17 539.698 1052.17L411.24 928.907Z" stroke="url(#paint68_linear_279_33871)" stroke-width="4.12898"/>
</g>
<defs>
<filter id="filter0_f_279_33871" x="0.944336" y="559.507" width="2311.24" height="1314.61" filterUnits="userSpaceOnUse" color-interpolation-filters="sRGB">
<feFlood flood-opacity="0" result="BackgroundImageFix"/>
<feBlend mode="normal" in="SourceGraphic" in2="BackgroundImageFix" result="shape"/>
<feGaussianBlur stdDeviation="50" result="effect1_foregroundBlur_279_33871"/>
</filter>
<linearGradient id="paint0_linear_279_33871" x1="1923.07" y1="1780.44" x2="1798.42" y2="573.47" gradientUnits="userSpaceOnUse">
<stop stop-color="#FF1CF7"/>
<stop offset="1" stop-color="#00F0FF"/>
</linearGradient>
<linearGradient id="paint1_linear_279_33871" x1="1869.75" y1="1776.78" x2="1808.98" y2="575.64" gradientUnits="userSpaceOnUse">
<stop stop-color="#FF1CF7"/>
<stop offset="1" stop-color="#00F0FF"/>
</linearGradient>
<linearGradient id="paint2_linear_279_33871" x1="1816.9" y1="1771.51" x2="1819.05" y2="579.544" gradientUnits="userSpaceOnUse">
<stop stop-color="#FF1CF7"/>
<stop offset="1" stop-color="#00F0FF"/>
</linearGradient>
<linearGradient id="paint3_linear_279_33871" x1="1764.59" y1="1764.67" x2="1828.54" y2="585.139" gradientUnits="userSpaceOnUse">
<stop stop-color="#FF1CF7"/>
<stop offset="1" stop-color="#00F0FF"/>
</linearGradient>
<linearGradient id="paint4_linear_279_33871" x1="1712.91" y1="1756.3" x2="1837.36" y2="592.382" gradientUnits="userSpaceOnUse">
<stop stop-color="#FF1CF7"/>
<stop offset="1" stop-color="#00F0FF"/>
</linearGradient>
<linearGradient id="paint5_linear_279_33871" x1="1661.91" y1="1746.45" x2="1845.42" y2="601.212" gradientUnits="userSpaceOnUse">
<stop stop-color="#FF1CF7"/>
<stop offset="1" stop-color="#00F0FF"/>
</linearGradient>
<linearGradient id="paint6_linear_279_33871" x1="1611.69" y1="1735.17" x2="1852.64" y2="611.576" gradientUnits="userSpaceOnUse">
<stop stop-color="#FF1CF7"/>
<stop offset="1" stop-color="#00F0FF"/>
</linearGradient>
<linearGradient id="paint7_linear_279_33871" x1="1562.34" y1="1722.51" x2="1858.97" y2="623.415" gradientUnits="userSpaceOnUse">
<stop stop-color="#FF1CF7"/>
<stop offset="1" stop-color="#00F0FF"/>
</linearGradient>
<linearGradient id="paint8_linear_279_33871" x1="1513.89" y1="1708.55" x2="1864.31" y2="636.663" gradientUnits="userSpaceOnUse">
<stop stop-color="#FF1CF7"/>
<stop offset="1" stop-color="#00F0FF"/>
</linearGradient>
<linearGradient id="paint9_linear_279_33871" x1="1466.42" y1="1693.34" x2="1868.6" y2="651.25" gradientUnits="userSpaceOnUse">
<stop stop-color="#FF1CF7"/>
<stop offset="1" stop-color="#00F0FF"/>
</linearGradient>
<linearGradient id="paint10_linear_279_33871" x1="1419.98" y1="1676.95" x2="1871.77" y2="667.11" gradientUnits="userSpaceOnUse">
<stop stop-color="#FF1CF7"/>
<stop offset="1" stop-color="#00F0FF"/>
</linearGradient>
<linearGradient id="paint11_linear_279_33871" x1="1374.63" y1="1659.44" x2="1873.77" y2="684.168" gradientUnits="userSpaceOnUse">
<stop stop-color="#FF1CF7"/>
<stop offset="1" stop-color="#00F0FF"/>
</linearGradient>
<linearGradient id="paint12_linear_279_33871" x1="1330.42" y1="1640.9" x2="1874.55" y2="702.345" gradientUnits="userSpaceOnUse">
<stop stop-color="#FF1CF7"/>
<stop offset="1" stop-color="#00F0FF"/>
</linearGradient>
<linearGradient id="paint13_linear_279_33871" x1="1287.4" y1="1621.38" x2="1874.06" y2="721.562" gradientUnits="userSpaceOnUse">
<stop stop-color="#FF1CF7"/>
<stop offset="1" stop-color="#00F0FF"/>
</linearGradient>
<linearGradient id="paint14_linear_279_33871" x1="1245.61" y1="1600.97" x2="1872.24" y2="741.743" gradientUnits="userSpaceOnUse">
<stop stop-color="#FF1CF7"/>
<stop offset="1" stop-color="#00F0FF"/>
</linearGradient>
<linearGradient id="paint15_linear_279_33871" x1="1205.06" y1="1579.74" x2="1869.05" y2="762.801" gradientUnits="userSpaceOnUse">
<stop stop-color="#FF1CF7"/>
<stop offset="1" stop-color="#00F0FF"/>
</linearGradient>
<linearGradient id="paint16_linear_279_33871" x1="1165.84" y1="1557.78" x2="1864.5" y2="784.652" gradientUnits="userSpaceOnUse">
<stop stop-color="#FF1CF7"/>
<stop offset="1" stop-color="#00F0FF"/>
</linearGradient>
<linearGradient id="paint17_linear_279_33871" x1="1127.93" y1="1535.15" x2="1858.5" y2="807.211" gradientUnits="userSpaceOnUse">
<stop stop-color="#FF1CF7"/>
<stop offset="1" stop-color="#00F0FF"/>
</linearGradient>
<linearGradient id="paint18_linear_279_33871" x1="1091.37" y1="1511.95" x2="1851.07" y2="830.393" gradientUnits="userSpaceOnUse">
<stop stop-color="#FF1CF7"/>
<stop offset="1" stop-color="#00F0FF"/>
</linearGradient>
<linearGradient id="paint19_linear_279_33871" x1="1056.16" y1="1488.25" x2="1842.16" y2="854.11" gradientUnits="userSpaceOnUse">
<stop stop-color="#FF1CF7"/>
<stop offset="1" stop-color="#00F0FF"/>
</linearGradient>
<linearGradient id="paint20_linear_279_33871" x1="1022.34" y1="1464.13" x2="1831.76" y2="878.275" gradientUnits="userSpaceOnUse">
<stop stop-color="#FF1CF7"/>
<stop offset="1" stop-color="#00F0FF"/>
</linearGradient>
<linearGradient id="paint21_linear_279_33871" x1="989.899" y1="1439.68" x2="1819.89" y2="902.804" gradientUnits="userSpaceOnUse">
<stop stop-color="#FF1CF7"/>
<stop offset="1" stop-color="#00F0FF"/>
</linearGradient>
<linearGradient id="paint22_linear_279_33871" x1="958.853" y1="1414.97" x2="1806.52" y2="927.605" gradientUnits="userSpaceOnUse">
<stop stop-color="#FF1CF7"/>
<stop offset="1" stop-color="#00F0FF"/>
</linearGradient>
<linearGradient id="paint23_linear_279_33871" x1="929.202" y1="1390.08" x2="1791.66" y2="952.595" gradientUnits="userSpaceOnUse">
<stop stop-color="#FF1CF7"/>
<stop offset="1" stop-color="#00F0FF"/>
</linearGradient>
<linearGradient id="paint24_linear_279_33871" x1="900.924" y1="1365.1" x2="1775.3" y2="977.688" gradientUnits="userSpaceOnUse">
<stop stop-color="#FF1CF7"/>
<stop offset="1" stop-color="#00F0FF"/>
</linearGradient>
<linearGradient id="paint25_linear_279_33871" x1="874.026" y1="1340.1" x2="1757.48" y2="1002.8" gradientUnits="userSpaceOnUse">
<stop stop-color="#FF1CF7"/>
<stop offset="1" stop-color="#00F0FF"/>
</linearGradient>
<linearGradient id="paint26_linear_279_33871" x1="848.486" y1="1315.16" x2="1738.19" y2="1027.85" gradientUnits="userSpaceOnUse">
<stop stop-color="#FF1CF7"/>
<stop offset="1" stop-color="#00F0FF"/>
</linearGradient>
<linearGradient id="paint27_linear_279_33871" x1="824.281" y1="1290.36" x2="1717.45" y2="1052.76" gradientUnits="userSpaceOnUse">
<stop stop-color="#FF1CF7"/>
<stop offset="1" stop-color="#00F0FF"/>
</linearGradient>
<linearGradient id="paint28_linear_279_33871" x1="801.397" y1="1265.76" x2="1695.3" y2="1077.44" gradientUnits="userSpaceOnUse">
<stop stop-color="#FF1CF7"/>
<stop offset="1" stop-color="#00F0FF"/>
</linearGradient>
<linearGradient id="paint29_linear_279_33871" x1="779.815" y1="1241.44" x2="1671.77" y2="1101.82" gradientUnits="userSpaceOnUse">
<stop stop-color="#FF1CF7"/>
<stop offset="1" stop-color="#00F0FF"/>
</linearGradient>
<linearGradient id="paint30_linear_279_33871" x1="759.481" y1="1217.47" x2="1646.87" y2="1125.82" gradientUnits="userSpaceOnUse">
<stop stop-color="#FF1CF7"/>
<stop offset="1" stop-color="#00F0FF"/>
</linearGradient>
<linearGradient id="paint31_linear_279_33871" x1="740.382" y1="1193.92" x2="1620.65" y2="1149.38" gradientUnits="userSpaceOnUse">
<stop stop-color="#FF1CF7"/>
<stop offset="1" stop-color="#00F0FF"/>
</linearGradient>
<linearGradient id="paint32_linear_279_33871" x1="722.475" y1="1170.85" x2="1593.16" y2="1172.42" gradientUnits="userSpaceOnUse">
<stop stop-color="#FF1CF7"/>
<stop offset="1" stop-color="#00F0FF"/>
</linearGradient>
<linearGradient id="paint33_linear_279_33871" x1="705.714" y1="1148.32" x2="1564.43" y2="1194.88" gradientUnits="userSpaceOnUse">
<stop stop-color="#FF1CF7"/>
<stop offset="1" stop-color="#00F0FF"/>
</linearGradient>
<linearGradient id="paint34_linear_279_33871" x1="690.063" y1="1126.39" x2="1534.52" y2="1216.69" gradientUnits="userSpaceOnUse">
<stop stop-color="#FF1CF7"/>
<stop offset="1" stop-color="#00F0FF"/>
</linearGradient>
<linearGradient id="paint35_linear_279_33871" x1="675.466" y1="1105.12" x2="1503.46" y2="1237.79" gradientUnits="userSpaceOnUse">
<stop stop-color="#FF1CF7"/>
<stop offset="1" stop-color="#00F0FF"/>
</linearGradient>
<linearGradient id="paint36_linear_279_33871" x1="661.873" y1="1084.56" x2="1471.32" y2="1258.14" gradientUnits="userSpaceOnUse">
<stop stop-color="#FF1CF7"/>
<stop offset="1" stop-color="#00F0FF"/>
</linearGradient>
<linearGradient id="paint37_linear_279_33871" x1="649.238" y1="1064.75" x2="1438.15" y2="1277.66" gradientUnits="userSpaceOnUse">
<stop stop-color="#FF1CF7"/>
<stop offset="1" stop-color="#00F0FF"/>
</linearGradient>
<linearGradient id="paint38_linear_279_33871" x1="637.513" y1="1045.75" x2="1404.02" y2="1296.33" gradientUnits="userSpaceOnUse">
<stop stop-color="#FF1CF7"/>
<stop offset="1" stop-color="#00F0FF"/>
</linearGradient>
<linearGradient id="paint39_linear_279_33871" x1="626.626" y1="1027.59" x2="1368.98" y2="1314.09" gradientUnits="userSpaceOnUse">
<stop stop-color="#FF1CF7"/>
<stop offset="1" stop-color="#00F0FF"/>
</linearGradient>
<linearGradient id="paint40_linear_279_33871" x1="616.521" y1="1010.31" x2="1333.09" y2="1330.9" gradientUnits="userSpaceOnUse">
<stop stop-color="#FF1CF7"/>
<stop offset="1" stop-color="#00F0FF"/>
</linearGradient>
<linearGradient id="paint41_linear_279_33871" x1="607.141" y1="993.956" x2="1296.41" y2="1346.72" gradientUnits="userSpaceOnUse">
<stop stop-color="#FF1CF7"/>
<stop offset="1" stop-color="#00F0FF"/>
</linearGradient>
<linearGradient id="paint42_linear_279_33871" x1="598.434" y1="978.541" x2="1259.03" y2="1361.53" gradientUnits="userSpaceOnUse">
<stop stop-color="#FF1CF7"/>
<stop offset="1" stop-color="#00F0FF"/>
</linearGradient>
<linearGradient id="paint43_linear_279_33871" x1="590.325" y1="964.103" x2="1221" y2="1375.29" gradientUnits="userSpaceOnUse">
<stop stop-color="#FF1CF7"/>
<stop offset="1" stop-color="#00F0FF"/>
</linearGradient>
<linearGradient id="paint44_linear_279_33871" x1="582.756" y1="950.662" x2="1182.4" y2="1387.98" gradientUnits="userSpaceOnUse">
<stop stop-color="#FF1CF7"/>
<stop offset="1" stop-color="#00F0FF"/>
</linearGradient>
<linearGradient id="paint45_linear_279_33871" x1="575.663" y1="938.232" x2="1143.28" y2="1399.58" gradientUnits="userSpaceOnUse">
<stop stop-color="#FF1CF7"/>
<stop offset="1" stop-color="#00F0FF"/>
</linearGradient>
<linearGradient id="paint46_linear_279_33871" x1="568.971" y1="926.831" x2="1103.72" y2="1410.07" gradientUnits="userSpaceOnUse">
<stop stop-color="#FF1CF7"/>
<stop offset="1" stop-color="#00F0FF"/>
</linearGradient>
<linearGradient id="paint47_linear_279_33871" x1="562.628" y1="916.47" x2="1063.8" y2="1419.45" gradientUnits="userSpaceOnUse">
<stop stop-color="#FF1CF7"/>
<stop offset="1" stop-color="#00F0FF"/>
</linearGradient>
<linearGradient id="paint48_linear_279_33871" x1="556.564" y1="907.155" x2="1023.57" y2="1427.7" gradientUnits="userSpaceOnUse">
<stop stop-color="#FF1CF7"/>
<stop offset="1" stop-color="#00F0FF"/>
</linearGradient>
<linearGradient id="paint49_linear_279_33871" x1="550.708" y1="898.889" x2="983.107" y2="1434.83" gradientUnits="userSpaceOnUse">
<stop stop-color="#FF1CF7"/>
<stop offset="1" stop-color="#00F0FF"/>
</linearGradient>
<linearGradient id="paint50_linear_279_33871" x1="545.018" y1="891.668" x2="942.496" y2="1440.83" gradientUnits="userSpaceOnUse">
<stop stop-color="#FF1CF7"/>
<stop offset="1" stop-color="#00F0FF"/>
</linearGradient>
<linearGradient id="paint51_linear_279_33871" x1="539.398" y1="885.49" x2="901.773" y2="1445.71" gradientUnits="userSpaceOnUse">
<stop stop-color="#FF1CF7"/>
<stop offset="1" stop-color="#00F0FF"/>
</linearGradient>
<linearGradient id="paint52_linear_279_33871" x1="533.818" y1="880.344" x2="861.039" y2="1449.48" gradientUnits="userSpaceOnUse">
<stop stop-color="#FF1CF7"/>
<stop offset="1" stop-color="#00F0FF"/>
</linearGradient>
<linearGradient id="paint53_linear_279_33871" x1="528.187" y1="876.223" x2="820.329" y2="1452.15" gradientUnits="userSpaceOnUse">
<stop stop-color="#FF1CF7"/>
<stop offset="1" stop-color="#00F0FF"/>
</linearGradient>
<linearGradient id="paint54_linear_279_33871" x1="522.474" y1="873.103" x2="779.735" y2="1453.74" gradientUnits="userSpaceOnUse">
<stop stop-color="#FF1CF7"/>
<stop offset="1" stop-color="#00F0FF"/>
</linearGradient>
<linearGradient id="paint55_linear_279_33871" x1="516.59" y1="870.972" x2="739.291" y2="1454.27" gradientUnits="userSpaceOnUse">
<stop stop-color="#FF1CF7"/>
<stop offset="1" stop-color="#00F0FF"/>
</linearGradient>
<linearGradient id="paint56_linear_279_33871" x1="510.513" y1="869.803" x2="699.09" y2="1453.77" gradientUnits="userSpaceOnUse">
<stop stop-color="#FF1CF7"/>
<stop offset="1" stop-color="#00F0FF"/>
</linearGradient>
<linearGradient id="paint57_linear_279_33871" x1="504.165" y1="869.572" x2="659.168" y2="1452.25" gradientUnits="userSpaceOnUse">
<stop stop-color="#FF1CF7"/>
<stop offset="1" stop-color="#00F0FF"/>
</linearGradient>
<linearGradient id="paint58_linear_279_33871" x1="497.499" y1="870.249" x2="619.587" y2="1449.77" gradientUnits="userSpaceOnUse">
<stop stop-color="#FF1CF7"/>
<stop offset="1" stop-color="#00F0FF"/>
</linearGradient>
<linearGradient id="paint59_linear_279_33871" x1="490.473" y1="871.799" x2="580.408" y2="1446.33" gradientUnits="userSpaceOnUse">
<stop stop-color="#FF1CF7"/>
<stop offset="1" stop-color="#00F0FF"/>
</linearGradient>
<linearGradient id="paint60_linear_279_33871" x1="483.015" y1="874.197" x2="541.657" y2="1441.99" gradientUnits="userSpaceOnUse">
<stop stop-color="#FF1CF7"/>
<stop offset="1" stop-color="#00F0FF"/>
</linearGradient>
<linearGradient id="paint61_linear_279_33871" x1="475.113" y1="877.399" x2="503.418" y2="1436.79" gradientUnits="userSpaceOnUse">
<stop stop-color="#FF1CF7"/>
<stop offset="1" stop-color="#00F0FF"/>
</linearGradient>
<linearGradient id="paint62_linear_279_33871" x1="466.701" y1="881.366" x2="465.71" y2="1430.76" gradientUnits="userSpaceOnUse">
<stop stop-color="#FF1CF7"/>
<stop offset="1" stop-color="#00F0FF"/>
</linearGradient>
<linearGradient id="paint63_linear_279_33871" x1="457.754" y1="886.059" x2="428.59" y2="1423.96" gradientUnits="userSpaceOnUse">
<stop stop-color="#FF1CF7"/>
<stop offset="1" stop-color="#00F0FF"/>
</linearGradient>
<linearGradient id="paint64_linear_279_33871" x1="448.219" y1="891.435" x2="392.083" y2="1416.42" gradientUnits="userSpaceOnUse">
<stop stop-color="#FF1CF7"/>
<stop offset="1" stop-color="#00F0FF"/>
</linearGradient>
<linearGradient id="paint65_linear_279_33871" x1="438.079" y1="897.443" x2="356.238" y2="1408.2" gradientUnits="userSpaceOnUse">
<stop stop-color="#FF1CF7"/>
<stop offset="1" stop-color="#00F0FF"/>
</linearGradient>
<linearGradient id="paint66_linear_279_33871" x1="427.302" y1="904.043" x2="321.088" y2="1399.34" gradientUnits="userSpaceOnUse">
<stop stop-color="#FF1CF7"/>
<stop offset="1" stop-color="#00F0FF"/>
</linearGradient>
<linearGradient id="paint67_linear_279_33871" x1="415.854" y1="911.183" x2="286.654" y2="1389.91" gradientUnits="userSpaceOnUse">
<stop stop-color="#FF1CF7"/>
<stop offset="1" stop-color="#00F0FF"/>
</linearGradient>
<linearGradient id="paint68_linear_279_33871" x1="403.702" y1="918.813" x2="252.953" y2="1379.94" gradientUnits="userSpaceOnUse">
<stop stop-color="#FF1CF7"/>
<stop offset="1" stop-color="#00F0FF"/>
</linearGradient>
</defs>
</svg>
