<svg width="48" height="48" viewBox="0 0 48 48" fill="none" xmlns="http://www.w3.org/2000/svg">
<path d="M45.818 26.1819C45.1634 26.1819 44.7271 26.6183 44.7271 27.2728V41.4546C44.7271 42.1092 44.2907 42.5455 43.6363 42.5455H4.36345C3.70888 42.5455 3.27257 42.1091 3.27257 41.4546V27.2728C3.27257 26.6182 2.83616 26.1819 2.1817 26.1819C1.52723 26.1819 1.09082 26.6183 1.09082 27.2728V41.4546C1.09082 43.3092 2.50898 44.7273 4.36354 44.7273H43.6363C45.4908 44.7273 46.909 43.3092 46.909 41.4546V27.2728C46.909 26.6182 46.4726 26.1819 45.818 26.1819Z" fill="url(#paint0_linear_264_25011)"/>
<path d="M44.7273 10.9092H3.27272C1.41816 10.9092 0 12.3273 0 14.1819V21.1637C0 22.6909 1.09087 24.0001 2.50912 24.3273L19.6364 28.1455V31.6364C19.6364 32.2909 20.0728 32.7272 20.7273 32.7272H27.2727C27.9273 32.7272 28.3636 32.2908 28.3636 31.6364V28.1455L45.4909 24.3273C46.9091 24.0001 48 22.6909 48 21.1636V14.1818C48 12.3273 46.5818 10.9092 44.7273 10.9092ZM26.1818 30.5455H21.8182V26.1819H26.1818V30.5455ZM45.8182 21.1636C45.8182 21.7091 45.4909 22.1455 44.9454 22.2545L28.3636 25.9636V25.0909C28.3636 24.4364 27.9272 24.0001 27.2727 24.0001H20.7273C20.0727 24.0001 19.6364 24.4365 19.6364 25.0909V25.9636L3.05456 22.2546C2.50912 22.1455 2.18184 21.7092 2.18184 21.1637V14.1819C2.18184 13.5273 2.61825 13.091 3.27272 13.091H44.7273C45.3818 13.091 45.8182 13.5274 45.8182 14.1819V21.1636Z" fill="url(#paint1_linear_264_25011)"/>
<path d="M29.4543 3.27271H18.5452C16.6906 3.27271 15.2725 4.69086 15.2725 6.54542V7.6363C15.2725 8.29086 15.7089 8.72717 16.3633 8.72717C17.0178 8.72717 17.4542 8.29077 17.4542 7.6363V6.54542C17.4542 5.89086 17.8906 5.45455 18.5451 5.45455H29.4542C30.1088 5.45455 30.5451 5.89096 30.5451 6.54542V7.6363C30.5451 8.29086 30.9815 8.72717 31.636 8.72717C32.2905 8.72717 32.7268 8.29077 32.7268 7.6363V6.54542C32.727 4.69086 31.3089 3.27271 29.4543 3.27271Z" fill="url(#paint2_linear_264_25011)"/>
<defs>
<linearGradient id="paint0_linear_264_25011" x1="91.9372" y1="26.1819" x2="-117.701" y2="97.3646" gradientUnits="userSpaceOnUse">
<stop stop-color="#05D5FF"/>
<stop offset="1" stop-color="#5533FF"/>
</linearGradient>
<linearGradient id="paint1_linear_264_25011" x1="95.1724" y1="10.9092" x2="-129.252" y2="78.7669" gradientUnits="userSpaceOnUse">
<stop stop-color="#05D5FF"/>
<stop offset="1" stop-color="#5533FF"/>
</linearGradient>
<linearGradient id="paint2_linear_264_25011" x1="49.8803" y1="3.2727" x2="-24.7527" y2="36.0964" gradientUnits="userSpaceOnUse">
<stop stop-color="#05D5FF"/>
<stop offset="1" stop-color="#5533FF"/>
</linearGradient>
</defs>
</svg>
