<svg width="12" height="12" viewBox="0 0 12 12" fill="none" xmlns="http://www.w3.org/2000/svg">
<path d="M11.3535 5.64652L7.8535 2.14652C7.7592 2.05544 7.6329 2.00504 7.5018 2.00618C7.3707 2.00732 7.24529 2.05991 7.15259 2.15261C7.05989 2.24532 7.0073 2.37072 7.00616 2.50182C7.00502 2.63292 7.05542 2.75922 7.1465 2.85352L9.793 5.50002H1C0.867392 5.50002 0.740215 5.5527 0.646447 5.64647C0.552678 5.74024 0.5 5.86741 0.5 6.00002C0.5 6.13263 0.552678 6.25981 0.646447 6.35357C0.740215 6.44734 0.867392 6.50002 1 6.50002H9.793L7.1465 9.14652C7.09874 9.19264 7.06065 9.24782 7.03445 9.30882C7.00824 9.36982 6.99445 9.43543 6.99387 9.50182C6.9933 9.56821 7.00595 9.63405 7.03109 9.6955C7.05623 9.75694 7.09336 9.81277 7.1403 9.85972C7.18725 9.90666 7.24307 9.94379 7.30452 9.96893C7.36597 9.99407 7.43181 10.0067 7.4982 10.0061C7.56459 10.0056 7.6302 9.99178 7.6912 9.96557C7.7522 9.93937 7.80738 9.90128 7.8535 9.85352L11.3535 6.35352C11.4472 6.25976 11.4999 6.1326 11.4999 6.00002C11.4999 5.86744 11.4472 5.74028 11.3535 5.64652Z" fill="url(#paint0_linear_311_33468)"/>
<defs>
<linearGradient id="paint0_linear_311_33468" x1="22.3101" y1="2.00616" x2="-31.8864" y2="12.2479" gradientUnits="userSpaceOnUse">
<stop stop-color="#05D5FF"/>
<stop offset="1" stop-color="#5533FF"/>
</linearGradient>
</defs>
</svg>
