<svg width="16" height="16" viewBox="0 0 16 16" fill="none" xmlns="http://www.w3.org/2000/svg">
<path d="M15.1383 7.52861L10.4717 2.86195C10.3459 2.74051 10.1775 2.67331 10.0027 2.67483C9.82793 2.67635 9.66072 2.74646 9.53711 2.87007C9.41351 2.99367 9.3434 3.16088 9.34188 3.33568C9.34036 3.51048 9.40755 3.67888 9.52899 3.80461L13.0577 7.33328H1.33366C1.15685 7.33328 0.987279 7.40352 0.862254 7.52854C0.73723 7.65357 0.666992 7.82313 0.666992 7.99995C0.666992 8.17676 0.73723 8.34633 0.862254 8.47135C0.987279 8.59637 1.15685 8.66661 1.33366 8.66661H13.0577L9.52899 12.1953C9.46532 12.2568 9.41453 12.3303 9.37959 12.4117C9.34465 12.493 9.32626 12.5805 9.32549 12.669C9.32472 12.7575 9.34159 12.8453 9.37511 12.9272C9.40863 13.0092 9.45813 13.0836 9.52073 13.1462C9.58332 13.2088 9.65776 13.2583 9.73969 13.2918C9.82162 13.3253 9.90941 13.3422 9.99793 13.3414C10.0864 13.3407 10.1739 13.3223 10.2553 13.2873C10.3366 13.2524 10.4102 13.2016 10.4717 13.1379L15.1383 8.47128C15.2633 8.34626 15.3335 8.17672 15.3335 7.99995C15.3335 7.82317 15.2633 7.65363 15.1383 7.52861V7.52861Z" fill="white"/>
</svg>
