<svg width="48" height="48" viewBox="0 0 48 48" fill="none" xmlns="http://www.w3.org/2000/svg">
<g clip-path="url(#clip0_264_25037)">
<path d="M25.7393 24.3001C26.4824 23.911 27.0736 23.2841 27.4184 22.5195C27.7633 21.7549 27.8418 20.8968 27.6415 20.0822C27.4412 19.2677 26.9736 18.5439 26.3135 18.0264C25.6533 17.509 24.8388 17.2278 24 17.2278C23.1612 17.2278 22.3467 17.509 21.6865 18.0264C21.0264 18.5439 20.5588 19.2677 20.3585 20.0822C20.1582 20.8968 20.2367 21.7549 20.5816 22.5195C20.9264 23.2841 21.5176 23.911 22.2607 24.3001C21.2355 24.6608 20.3474 25.3306 19.7187 26.2171C19.0899 27.1036 18.7515 28.1632 18.75 29.2501C18.75 29.449 18.829 29.6397 18.9697 29.7804C19.1103 29.921 19.3011 30.0001 19.5 30.0001H28.5C28.6989 30.0001 28.8897 29.921 29.0303 29.7804C29.171 29.6397 29.25 29.449 29.25 29.2501C29.2485 28.1632 28.9101 27.1036 28.2813 26.2171C27.6526 25.3306 26.7645 24.6608 25.7393 24.3001ZM24 18.7501C24.445 18.7501 24.88 18.882 25.25 19.1293C25.62 19.3765 25.9084 19.7279 26.0787 20.139C26.249 20.5502 26.2936 21.0026 26.2068 21.439C26.12 21.8755 25.9057 22.2764 25.591 22.591C25.2763 22.9057 24.8754 23.12 24.439 23.2068C24.0025 23.2936 23.5501 23.2491 23.139 23.0788C22.7278 22.9085 22.3764 22.6201 22.1292 22.2501C21.882 21.8801 21.75 21.4451 21.75 21.0001C21.75 20.4033 21.9871 19.831 22.409 19.4091C22.831 18.9871 23.4033 18.7501 24 18.7501ZM20.325 28.5001C20.4971 27.6523 20.957 26.8902 21.6268 26.3428C22.2966 25.7953 23.135 25.4963 24 25.4963C24.865 25.4963 25.7034 25.7953 26.3732 26.3428C27.043 26.8902 27.5029 27.6523 27.675 28.5001H20.325Z" fill="url(#paint0_linear_264_25037)"/>
<path d="M39.7498 32.25C38.0201 32.2487 36.3436 32.848 35.0068 33.9457L31.3963 30.3352C32.8232 28.6738 33.6458 26.5784 33.7303 24.39L41.3893 24.1065C41.6029 24.7988 42.0615 25.3896 42.6792 25.7682C43.297 26.1468 44.0315 26.2874 44.7454 26.1635C45.4592 26.0396 46.1035 25.6597 46.5575 25.0951C47.0115 24.5305 47.2442 23.8197 47.212 23.0959C47.1798 22.3721 46.8849 21.6848 46.3825 21.1627C45.8801 20.6407 45.2047 20.3196 44.4827 20.2596C43.7606 20.1996 43.0414 20.4048 42.4598 20.8368C41.8781 21.2687 41.4738 21.8979 41.3226 22.6065L33.6816 22.8892C33.5179 21.469 33.044 20.1022 32.2933 18.8856C31.5426 17.6689 30.5335 16.6323 29.3376 15.849L30.7708 13.2435C31.8376 13.6159 33.0054 13.5738 34.0427 13.1257C35.08 12.6776 35.911 11.8562 36.3712 10.8242C36.8313 9.79218 36.887 8.62498 36.527 7.5539C36.1671 6.48282 35.4179 5.58606 34.428 5.04135C33.438 4.49664 32.2795 4.34375 31.1821 4.61297C30.0847 4.8822 29.1285 5.55389 28.5031 6.49491C27.8776 7.43594 27.6285 8.57762 27.8052 9.69366C27.9818 10.8097 28.5713 11.8186 29.4568 12.5205L28.0228 15.1275C26.3364 14.3552 24.4637 14.0837 22.6274 14.3451C20.7911 14.6065 19.0685 15.3898 17.6646 16.602L14.0541 12.9915C15.274 11.4994 15.8739 9.59556 15.7295 7.67366C15.5851 5.75177 14.7075 3.95889 13.2783 2.66588C11.849 1.37288 9.97751 0.678663 8.0508 0.726837C6.12409 0.775011 4.2896 1.56189 2.92678 2.9247C1.56396 4.28752 0.777086 6.12201 0.728912 8.04872C0.680738 9.97544 1.37495 11.847 2.66796 13.2762C3.96097 14.7054 5.75384 15.583 7.67574 15.7274C9.59764 15.8718 11.5015 15.272 12.9936 14.052L16.6041 17.6625C15.6486 18.7655 14.956 20.071 14.5783 21.4806C14.2007 22.8901 14.1479 24.367 14.4238 25.8L7.83657 27.573C7.41901 26.7627 6.71856 26.134 5.8681 25.8059C5.01765 25.4779 4.07638 25.4735 3.22288 25.7935C2.36939 26.1135 1.66306 26.7357 1.23792 27.542C0.812773 28.3483 0.698398 29.2826 0.916491 30.1677C1.13459 31.0527 1.66997 31.8269 2.42107 32.3434C3.17217 32.8598 4.08671 33.0826 4.99117 32.9694C5.89564 32.8562 6.72709 32.4149 7.32776 31.7293C7.92844 31.0437 8.25654 30.1615 8.24982 29.25C8.24982 29.175 8.23182 29.1 8.22657 29.025L14.8183 27.2505C15.5772 29.3811 17.0504 31.1832 18.9876 32.3505L17.3998 35.52C16.1384 35.0976 14.7639 35.1686 13.5528 35.7188C12.3417 36.2691 11.384 37.2576 10.8724 38.4856C10.3608 39.7135 10.3334 41.0896 10.7956 42.337C11.2578 43.5843 12.1753 44.6103 13.3635 45.2084C14.5517 45.8065 15.9223 45.9323 17.1996 45.5605C18.4768 45.1886 19.5657 44.3468 20.2473 43.2045C20.9288 42.0621 21.1523 40.7039 20.8728 39.4034C20.5933 38.1029 19.8315 36.9565 18.7408 36.195L20.3248 33.0255C21.9812 33.7045 23.7932 33.9117 25.5601 33.6241C27.3269 33.3364 28.9797 32.5651 30.3351 31.3957L33.9456 35.0062C32.8694 36.3248 32.2739 37.9703 32.2571 39.6723C32.2403 41.3742 32.8032 43.0311 33.8531 44.3707C34.9031 45.7102 36.3777 46.6526 38.0343 47.0428C39.691 47.433 41.4311 47.2479 42.9686 46.5178C44.506 45.7877 45.7493 44.5561 46.4939 43.0257C47.2384 41.4952 47.44 39.7568 47.0655 38.0966C46.6909 36.4363 45.7625 34.9529 44.433 33.8903C43.1034 32.8278 41.4518 32.2493 39.7498 32.25ZM44.2498 21.75C44.5465 21.75 44.8365 21.838 45.0832 22.0028C45.3299 22.1676 45.5221 22.4019 45.6356 22.676C45.7492 22.9501 45.7789 23.2517 45.721 23.5426C45.6631 23.8336 45.5203 24.1009 45.3105 24.3107C45.1007 24.5204 44.8334 24.6633 44.5425 24.7212C44.2515 24.779 43.9499 24.7493 43.6758 24.6358C43.4017 24.5223 43.1674 24.33 43.0026 24.0833C42.8378 23.8367 42.7498 23.5467 42.7498 23.25C42.7498 22.8522 42.9079 22.4706 43.1892 22.1893C43.4705 21.908 43.852 21.75 44.2498 21.75ZM32.2498 5.99999C32.8432 5.99999 33.4232 6.17594 33.9165 6.50558C34.4099 6.83523 34.7944 7.30376 35.0215 7.85194C35.2485 8.40012 35.3079 9.00332 35.1922 9.58526C35.0764 10.1672 34.7907 10.7018 34.3711 11.1213C33.9516 11.5409 33.417 11.8266 32.8351 11.9423C32.2532 12.0581 31.65 11.9987 31.1018 11.7716C30.5536 11.5446 30.0851 11.1601 29.7554 10.6667C29.4258 10.1734 29.2498 9.59334 29.2498 8.99999C29.2498 8.20434 29.5659 7.44128 30.1285 6.87867C30.6911 6.31606 31.4542 5.99999 32.2498 5.99999ZM4.49982 31.5C4.05481 31.5 3.6198 31.368 3.24979 31.1208C2.87978 30.8736 2.59139 30.5222 2.42109 30.111C2.25079 29.6999 2.20624 29.2475 2.29305 28.811C2.37987 28.3746 2.59416 27.9737 2.90883 27.659C3.2235 27.3443 3.62441 27.13 4.06087 27.0432C4.49732 26.9564 4.94972 27.001 5.36086 27.1713C5.77199 27.3416 6.12339 27.6299 6.37063 28C6.61786 28.37 6.74982 28.805 6.74982 29.25C6.74982 29.8467 6.51277 30.419 6.09081 30.841C5.66885 31.2629 5.09656 31.5 4.49982 31.5ZM19.4998 40.5C19.4998 41.2417 19.2799 41.9667 18.8678 42.5834C18.4558 43.2001 17.8701 43.6807 17.1849 43.9645C16.4997 44.2484 15.7457 44.3226 15.0182 44.1779C14.2908 44.0332 13.6226 43.6761 13.0982 43.1516C12.5737 42.6272 12.2166 41.959 12.0719 41.2316C11.9272 40.5042 12.0014 39.7502 12.2853 39.0649C12.5691 38.3797 13.0497 37.794 13.6664 37.382C14.2831 36.9699 15.0081 36.75 15.7498 36.75C16.744 36.7512 17.6972 37.1467 18.4002 37.8497C19.1032 38.5527 19.4986 39.5058 19.4998 40.5ZM2.24982 8.24999C2.24749 7.27511 2.48274 6.31435 2.93522 5.45083C3.3877 4.58731 4.04378 3.84706 4.84668 3.29412C5.64959 2.74118 6.57513 2.39221 7.54323 2.2774C8.51133 2.1626 9.49283 2.28542 10.4028 2.63524C11.3127 2.98506 12.1238 3.55134 12.7657 4.28507C13.4075 5.01881 13.861 5.89791 14.0867 6.8463C14.3125 7.79468 14.3037 8.78379 14.0612 9.72804C13.8188 10.6723 13.3498 11.5432 12.6951 12.2655C12.7297 12.1812 12.7482 12.0911 12.7498 12C12.7517 11.4088 12.6363 10.8231 12.4102 10.2769C12.1841 9.73064 11.8519 9.23468 11.4328 8.81774C11.1339 8.51889 10.7946 8.26341 10.4248 8.05874C10.8302 7.63375 11.1019 7.09913 11.2062 6.52117C11.3106 5.94321 11.243 5.34733 11.0118 4.80743C10.7807 4.26753 10.3961 3.80734 9.90588 3.48395C9.41564 3.16055 8.84125 2.98816 8.25394 2.98816C7.66664 2.98816 7.09225 3.16055 6.60201 3.48395C6.11176 3.80734 5.72722 4.26753 5.49607 4.80743C5.26492 5.34733 5.19733 5.94321 5.30167 6.52117C5.40602 7.09913 5.67772 7.63375 6.08307 8.05874C5.37696 8.44667 4.78794 9.01704 4.37751 9.71032C3.96709 10.4036 3.75031 11.1943 3.74982 12C3.75135 12.0902 3.76913 12.1794 3.80232 12.2632C2.804 11.165 2.25052 9.73421 2.24982 8.24999ZM8.24982 7.49999C7.95315 7.49999 7.66314 7.41202 7.41646 7.2472C7.16979 7.08238 6.97753 6.84811 6.864 6.57402C6.75047 6.29993 6.72076 5.99833 6.77864 5.70736C6.83652 5.41639 6.97938 5.14911 7.18916 4.93933C7.39894 4.72955 7.66621 4.58669 7.95718 4.52882C8.24816 4.47094 8.54976 4.50064 8.82384 4.61417C9.09793 4.72771 9.3322 4.91996 9.49702 5.16664C9.66185 5.41331 9.74982 5.70332 9.74982 5.99999C9.74982 6.39782 9.59178 6.77935 9.31048 7.06065C9.02917 7.34196 8.64764 7.49999 8.24982 7.49999ZM8.24982 8.99999C8.91491 8.99999 9.56114 9.221 10.0869 9.62828C10.6127 10.0356 10.9883 10.606 11.1546 11.25H5.34432C5.51144 10.6063 5.88732 10.0363 6.41309 9.62915C6.93886 9.22199 7.58483 9.00072 8.24982 8.99999ZM4.23732 12.6975C4.32091 12.7308 4.40986 12.7486 4.49982 12.75H11.9998C12.0912 12.7487 12.1815 12.7304 12.2661 12.696C11.1683 13.6947 9.73763 14.2481 8.25357 14.2481C6.76952 14.2481 5.3388 13.6947 4.24107 12.696L4.23732 12.6975ZM15.7498 24C15.7498 22.3683 16.2337 20.7732 17.1402 19.4165C18.0467 18.0598 19.3352 17.0024 20.8427 16.378C22.3502 15.7536 24.009 15.5902 25.6093 15.9085C27.2097 16.2268 28.6797 17.0126 29.8335 18.1664C30.9872 19.3201 31.773 20.7902 32.0913 22.3905C32.4096 23.9908 32.2463 25.6496 31.6218 27.1571C30.9974 28.6646 29.94 29.9531 28.5833 30.8596C27.2266 31.7661 25.6315 32.25 23.9998 32.25C21.8126 32.2474 19.7157 31.3774 18.169 29.8308C16.6224 28.2842 15.7524 26.1872 15.7498 24ZM35.7373 44.1975C35.8209 44.2308 35.9099 44.2486 35.9998 44.25H43.4998C43.5912 44.2487 43.6815 44.2304 43.7661 44.196C42.6683 45.1947 41.2376 45.7481 39.7536 45.7481C38.2695 45.7481 36.8388 45.1947 35.7411 44.196L35.7373 44.1975ZM39.7498 39C39.4532 39 39.1631 38.912 38.9165 38.7472C38.6698 38.5824 38.4775 38.3481 38.364 38.074C38.2505 37.7999 38.2208 37.4983 38.2786 37.2074C38.3365 36.9164 38.4794 36.6491 38.6892 36.4393C38.8989 36.2296 39.1662 36.0867 39.4572 36.0288C39.7482 35.9709 40.0498 36.0006 40.3238 36.1142C40.5979 36.2277 40.8322 36.42 40.997 36.6666C41.1618 36.9133 41.2498 37.2033 41.2498 37.5C41.2498 37.8978 41.0918 38.2794 40.8105 38.5607C40.5292 38.842 40.1476 39 39.7498 39ZM39.7498 40.5C40.4149 40.5 41.0611 40.721 41.5869 41.1283C42.1128 41.5356 42.4883 42.106 42.6546 42.75H36.8443C37.0114 42.1063 37.3873 41.5363 37.9131 41.1292C38.4389 40.722 39.0848 40.5007 39.7498 40.5ZM44.1943 43.7655C44.2292 43.6812 44.248 43.5912 44.2498 43.5C44.2517 42.9088 44.1363 42.3231 43.9102 41.7769C43.6842 41.2306 43.3519 40.7347 42.9328 40.3177C42.6339 40.0189 42.2946 39.7634 41.9248 39.5587C42.3302 39.1338 42.6019 38.5991 42.7062 38.0212C42.8106 37.4432 42.743 36.8473 42.5118 36.3074C42.2807 35.7675 41.8961 35.3073 41.4059 34.9839C40.9156 34.6605 40.3413 34.4882 39.7539 34.4882C39.1666 34.4882 38.5923 34.6605 38.102 34.9839C37.6118 35.3073 37.2272 35.7675 36.9961 36.3074C36.7649 36.8473 36.6973 37.4432 36.8017 38.0212C36.906 38.5991 37.1777 39.1338 37.5831 39.5587C36.877 39.9467 36.2879 40.517 35.8775 41.2103C35.4671 41.9036 35.2503 42.6943 35.2498 43.5C35.2514 43.5902 35.2691 43.6794 35.3023 43.7632C34.5224 42.9025 34.0091 41.8338 33.8248 40.687C33.6404 39.5402 33.7929 38.3646 34.2636 37.3027C34.7344 36.2409 35.5033 35.3385 36.477 34.7051C37.4506 34.0718 38.5872 33.7346 39.7487 33.7346C40.9102 33.7346 42.0468 34.0718 43.0204 34.7051C43.9941 35.3385 44.763 36.2409 45.2338 37.3027C45.7045 38.3646 45.857 39.5402 45.6726 40.687C45.4882 41.8338 44.975 42.9025 44.1951 43.7632L44.1943 43.7655Z" fill="url(#paint1_linear_264_25037)"/>
</g>
<defs>
<linearGradient id="paint0_linear_264_25037" x1="39.569" y1="17.2278" x2="-13.3367" y2="23.2054" gradientUnits="userSpaceOnUse">
<stop stop-color="#05D5FF"/>
<stop offset="1" stop-color="#5533FF"/>
</linearGradient>
<linearGradient id="paint1_linear_264_25037" x1="92.9698" y1="0.72448" x2="-140.031" y2="32.7507" gradientUnits="userSpaceOnUse">
<stop stop-color="#05D5FF"/>
<stop offset="1" stop-color="#5533FF"/>
</linearGradient>
<clipPath id="clip0_264_25037">
<rect width="48" height="48" fill="white"/>
</clipPath>
</defs>
</svg>
