<svg width="20" height="20" viewBox="0 0 20 20" fill="none" xmlns="http://www.w3.org/2000/svg">
<g clip-path="url(#clip0_279_34036)">
<path d="M1.47425e-05 9.99319C0.0087831 4.45967 4.48503 -0.00900071 10.006 -0.000231256C15.5388 0.0085382 20.0075 4.48284 19.9994 10.0051C19.9912 15.5273 15.5144 20.0079 9.99344 19.9991C4.4725 19.9904 -0.00937993 15.5123 1.47425e-05 9.99319ZM10.2715 14.7625C10.3918 14.755 10.5722 14.7531 10.7506 14.7325C11.7205 14.6288 12.6336 14.224 13.3617 13.5749C13.4796 13.4761 13.5636 13.3428 13.6018 13.1938C13.64 13.0448 13.6305 12.8876 13.5747 12.7443C13.4601 12.4424 13.2308 12.2864 12.9171 12.2588C12.6477 12.235 12.4473 12.3841 12.2475 12.5445C11.7178 12.965 11.07 13.2095 10.3946 13.2439C9.71918 13.2782 9.0499 13.1007 8.48027 12.7362C7.90863 12.3738 7.46612 11.84 7.21596 11.211C6.9658 10.582 6.92079 9.89008 7.08736 9.234C7.22005 8.69907 7.48678 8.20674 7.8624 7.80345C8.23802 7.40015 8.71015 7.09918 9.23427 6.9289C9.7584 6.75862 10.3172 6.72465 10.8581 6.83018C11.399 6.93572 11.9041 7.17728 12.3258 7.53211C12.711 7.84843 13.1757 7.82588 13.4532 7.49264C13.7306 7.1594 13.6668 6.69212 13.2885 6.37767C12.2162 5.48757 10.9861 5.13303 9.60262 5.30341C7.43683 5.57025 5.66563 7.42562 5.50341 9.60107C5.29485 12.3935 7.42118 14.7231 10.2721 14.7625H10.2715Z" fill="white"/>
</g>
<defs>
<clipPath id="clip0_279_34036">
<rect width="20" height="20" fill="white"/>
</clipPath>
</defs>
</svg>
