<svg width="48" height="48" viewBox="0 0 48 48" fill="none" xmlns="http://www.w3.org/2000/svg">
<path d="M32.9001 28.6L24.9001 9.60005C24.5001 8.70005 23.5001 8.70005 23.1001 9.60005L15.1001 28.6C14.9001 29 15.0001 29.4 15.3001 29.7C17.2001 31.7 18.5001 34.3 19.0001 37H18.0001C17.4001 37 17.0001 37.4 17.0001 38V45C17.0001 45.6 17.4001 46 18.0001 46H30.0001C30.6001 46 31.0001 45.6 31.0001 45V38C31.0001 37.4 30.6001 37 30.0001 37H29.1001C29.6001 34.3 30.8001 31.7 32.7001 29.7C33.0001 29.4 33.1001 29 32.9001 28.6ZM24.0001 28C24.6001 28 25.0001 28.4 25.0001 29C25.0001 29.6 24.6001 30 24.0001 30C23.4001 30 23.0001 29.6 23.0001 29C23.0001 28.4 23.4001 28 24.0001 28ZM29.0001 44H19.0001V39H29.0001V44ZM27.0001 37H21.0001C20.6001 34 19.3001 31.1 17.2001 28.8L23.0001 15V26.2C21.4001 26.8 20.6001 28.5 21.2001 30C21.8001 31.6 23.5001 32.4 25.0001 31.8C26.5001 31.2 27.4001 29.5 26.8001 28C26.5001 27.1 25.8001 26.5 25.0001 26.2V15L30.8001 28.8C28.8001 31.1 27.5001 34 27.0001 37Z" fill="url(#paint0_linear_264_25063)"/>
<path d="M26.0002 2H22.0002C21.4002 2 21.0002 2.4 21.0002 3V4H10.8002C10.3002 2.4 8.60019 1.6 7.00019 2.2C5.40019 2.8 4.60019 4.4 5.20019 6C5.80019 7.6 7.40019 8.4 9.00019 7.8C9.90019 7.5 10.5002 6.8 10.8002 6H14.7002C8.40019 10 7.00019 18.7 7.00019 18.9C6.90019 19.4 7.10019 20 8.00019 20C8.50019 20 8.90019 19.6 9.00019 19.1C9.00019 19 10.9002 6.8 21.0002 6V7C21.0002 7.6 21.4002 8 22.0002 8H26.0002C26.6002 8 27.0002 7.6 27.0002 7V6C36.3002 6.8 39.0002 19 39.0002 19.2C39.1002 19.7 39.5002 20.1 40.0002 20C41.2002 19.9 41.0002 18.8 41.0002 18.8C41.0002 18.7 39.0002 10 32.8002 6H37.2002C37.8002 7.6 39.5002 8.4 41.0002 7.8C42.6002 7.2 43.4002 5.5 42.8002 4C42.2002 2.4 40.5002 1.6 39.0002 2.2C38.1002 2.5 37.5002 3.2 37.2002 4H27.0002V3C27.0002 2.4 26.6002 2 26.0002 2ZM8.00019 6C7.40019 6 7.00019 5.6 7.00019 5C7.00019 4.4 7.40019 4 8.00019 4C8.60019 4 9.00019 4.4 9.00019 5C9.00019 5.6 8.60019 6 8.00019 6ZM25.0002 6H23.0002V4H25.0002V6ZM40.0002 4C40.6002 4 41.0002 4.4 41.0002 5C41.0002 5.6 40.6002 6 40.0002 6C39.4002 6 39.0002 5.6 39.0002 5C39.0002 4.4 39.4002 4 40.0002 4Z" fill="url(#paint1_linear_264_25063)"/>
<defs>
<linearGradient id="paint0_linear_264_25063" x1="50.7018" y1="8.92504" x2="-40.785" y2="15.0324" gradientUnits="userSpaceOnUse">
<stop stop-color="#05D5FF"/>
<stop offset="1" stop-color="#5533FF"/>
</linearGradient>
<linearGradient id="paint1_linear_264_25063" x1="80.3427" y1="2" x2="-98.5303" y2="53.8525" gradientUnits="userSpaceOnUse">
<stop stop-color="#05D5FF"/>
<stop offset="1" stop-color="#5533FF"/>
</linearGradient>
</defs>
</svg>
