<svg width="48" height="48" viewBox="0 0 48 48" fill="none" xmlns="http://www.w3.org/2000/svg">
<g clip-path="url(#clip0_264_25090)">
<path d="M1.9888 19.8029C1.00767 19.962 0.248709 20.7486 0.124795 21.7349C-0.03995 23.2286 -0.0416086 24.7359 0.119977 26.23C0.232598 27.2315 0.996221 28.0366 1.99038 28.202L4.53595 28.6188C5.02465 30.7003 5.84964 32.6883 6.97829 34.5043L5.47995 36.5971C4.88289 37.4066 4.89734 38.5145 5.51518 39.3083C5.99204 39.8917 6.49946 40.4496 7.03516 40.9795C7.52639 41.4716 8.06951 41.9659 8.72154 42.5139C9.50902 43.1195 10.6017 43.1321 11.4031 42.5451L13.5063 41.0363C15.3204 42.1648 17.3064 42.99 19.3862 43.4795L19.8038 46.029C19.9626 47.0105 20.7493 47.7698 21.7358 47.8938C22.1918 47.945 22.655 47.981 23.1214 48.0002H23.1894C23.6063 47.9999 24.0073 47.8395 24.3094 47.5522C24.6235 47.2521 24.8007 46.8363 24.7997 46.4018V39.9907C24.795 39.134 24.1188 38.4317 23.2629 38.3947C15.6059 37.9949 9.60244 31.6699 9.60244 24.0024C9.60244 16.335 15.6059 10.0099 23.2629 9.61016C24.1201 9.57257 24.7967 8.86825 24.7997 8.01017V1.60226C24.801 1.16734 24.6234 0.751132 24.3085 0.4511C23.9942 0.142697 23.5651 -0.0200736 23.1253 0.00227674C22.6597 0.0206783 22.1981 0.0542433 21.7245 0.102261C20.7385 0.229334 19.9556 0.993352 19.8045 1.97582L19.3877 4.52297C17.3079 5.01278 15.3219 5.83824 13.5078 6.96697L11.4046 5.46137C10.5958 4.86991 9.49251 4.88752 8.70306 5.50457C8.12306 5.97937 7.56793 6.48372 7.0399 7.01578C6.49567 7.54777 5.98335 8.11142 5.50554 8.70375C4.89513 9.49225 4.87949 10.5893 5.46716 11.3949L6.97513 13.5005C5.84743 15.3164 5.02355 17.3041 4.53595 19.3853L1.9888 19.8029ZM5.98319 20.2492C6.44828 17.9897 7.34056 15.8398 8.612 13.9149C8.7942 13.6381 8.78685 13.2777 8.5936 13.0085L6.76885 10.4606C6.60015 10.2379 6.59526 9.93167 6.75684 9.70375C7.19532 9.16031 7.66578 8.64341 8.16563 8.15573C8.65117 7.66528 9.16112 7.19956 9.69358 6.76053C9.92277 6.58583 10.2404 6.58583 10.4696 6.76053L13.0136 8.58615C13.2831 8.77893 13.6435 8.78557 13.92 8.60297C15.8432 7.33106 17.992 6.43846 20.2504 5.97337C20.575 5.90648 20.8248 5.64617 20.8784 5.31897L21.3815 2.23818C21.4177 1.96184 21.6299 1.7415 21.9048 1.69498C22.3279 1.65099 22.7568 1.61979 23.2 1.60218L23.1824 8.01088C14.6653 8.44589 7.98414 15.4809 7.98888 24.0091C7.99354 32.5373 14.6824 39.5649 23.2 39.9905L23.1888 46.4017C22.7591 46.384 22.3336 46.3505 21.9136 46.3033C21.6375 46.2629 21.4211 46.0452 21.3824 45.7688L20.8784 42.6864C20.8248 42.3592 20.5751 42.099 20.2504 42.032C17.992 41.5666 15.8432 40.6738 13.92 39.4017C13.6434 39.2192 13.283 39.2262 13.0136 39.4193L10.4672 41.2465C10.2501 41.4153 9.94836 41.4235 9.72241 41.2665C9.13443 40.7713 8.62479 40.3065 8.16563 39.848C7.6751 39.3634 7.20969 38.854 6.77122 38.3217C6.59865 38.0912 6.59865 37.7746 6.77122 37.5441L8.59439 34.9985C8.78741 34.7292 8.79444 34.3687 8.612 34.0921C7.34048 32.1676 6.4482 30.0178 5.98319 27.7586C5.91638 27.4341 5.65646 27.1844 5.32958 27.1305L2.24958 26.6257C1.96289 26.5783 1.74279 26.3458 1.7112 26.0569C1.56138 24.6809 1.56296 23.2926 1.71601 21.917C1.75582 21.6406 1.97316 21.4236 2.24958 21.3842L5.32871 20.8802C5.65686 20.8265 5.9174 20.5752 5.98319 20.2492V20.2492Z" fill="url(#paint0_linear_264_25090)"/>
<path d="M45.6001 21.6019C44.5867 21.6061 43.6852 22.2464 43.3473 23.2019H24.8003V20.8018H37.6002C38.9257 20.8018 40.0001 19.7274 40.0001 18.4019V14.2548C41.1022 13.8652 41.7632 12.7383 41.5655 11.5862C41.3679 10.4342 40.369 9.59208 39.2001 9.59208C38.0313 9.59208 37.0324 10.4342 36.8347 11.5862C36.637 12.7383 37.298 13.8652 38.4001 14.2548V18.4019C38.4001 18.8437 38.0419 19.2019 37.6 19.2019H24.8003V16.8019H33.6002C34.042 16.8019 34.4001 16.4438 34.4001 16.0019C34.4001 15.56 34.042 15.2019 33.6002 15.2019H24.8003V13.6019H29.6003C30.9257 13.6019 32.0003 12.5274 32.0003 11.2019V6.25485C33.1023 5.86526 33.7634 4.73835 33.5657 3.58632C33.368 2.43429 32.3691 1.59216 31.2003 1.59216C30.0314 1.59216 29.0325 2.43429 28.8348 3.58632C28.6372 4.73835 29.2982 5.86526 30.4002 6.25485V11.202C30.4002 11.6438 30.0421 12.0021 29.6002 12.0021H24.5891C24.3138 11.4905 23.7645 11.1876 23.1851 11.2277C16.4436 11.6547 11.1943 17.247 11.1943 24.002C11.1943 30.757 16.4436 36.3492 23.1851 36.7763H23.2787C23.8252 36.7808 24.3295 36.4828 24.5891 36.0019H29.6002C30.042 36.0019 30.4002 36.36 30.4002 36.8019V41.7491C29.2982 42.1387 28.6372 43.2656 28.8348 44.4176C29.0325 45.5697 30.0314 46.4118 31.2003 46.4118C32.3691 46.4118 33.368 45.5697 33.5657 44.4176C33.7634 43.2656 33.1023 42.1387 32.0003 41.7491V36.8019C32.0003 35.4765 30.9258 34.4019 29.6003 34.4019H24.8003V32.8019H33.6002C34.042 32.8019 34.4001 32.4438 34.4001 32.002C34.4001 31.5602 34.042 31.2019 33.6002 31.2019H24.8003V28.802H37.6002C38.042 28.802 38.4002 29.1602 38.4002 29.602V33.7491C37.2982 34.1387 36.6372 35.2656 36.8348 36.4176C37.0325 37.5697 38.0314 38.4118 39.2003 38.4118C40.3691 38.4118 41.368 37.5697 41.5657 36.4176C41.7634 35.2656 41.1023 34.1387 40.0003 33.7491V29.602C40.0003 28.2765 38.9258 27.202 37.6004 27.202H24.8003V24.8018H43.3473C43.7561 25.9495 44.961 26.6076 46.1477 26.3314C47.3342 26.0551 48.1246 24.9325 47.9845 23.7222C47.8443 22.5122 46.8183 21.5997 45.6001 21.6019V21.6019ZM39.2002 11.202C39.642 11.202 40.0001 11.5602 40.0001 12.0021C40.0001 12.4439 39.642 12.8021 39.2002 12.8021C38.7584 12.8021 38.4002 12.4439 38.4002 12.0021C38.4002 11.5602 38.7583 11.202 39.2002 11.202ZM31.2003 3.2021C31.6421 3.2021 32.0003 3.56026 32.0003 4.00213C32.0003 4.444 31.6421 4.80208 31.2003 4.80208C30.7584 4.80208 30.4003 4.44392 30.4003 4.00213C30.4003 3.56034 30.7584 3.2021 31.2003 3.2021ZM31.2003 44.8017C30.7585 44.8017 30.4003 44.4435 30.4003 44.0017C30.4003 43.5598 30.7585 43.2016 31.2003 43.2016C31.6421 43.2016 32.0003 43.5598 32.0003 44.0017C32.0003 44.4435 31.6421 44.8017 31.2003 44.8017ZM39.2002 36.8018C38.7584 36.8018 38.4002 36.4436 38.4002 36.0017C38.4002 35.5599 38.7584 35.2018 39.2002 35.2018C39.642 35.2018 40.0001 35.5599 40.0001 36.0017C40.0001 36.4435 39.642 36.8018 39.2002 36.8018ZM12.8004 24.0019C12.8071 18.1294 17.3434 13.2569 23.2003 12.8308V35.173C17.3434 34.7469 12.8071 29.8743 12.8004 24.0019V24.0019ZM45.6001 24.8018C45.1583 24.8018 44.8001 24.4437 44.8001 24.0018C44.8001 23.5599 45.1582 23.2019 45.6001 23.2019C46.042 23.2019 46.4002 23.56 46.4002 24.0018C46.4002 24.4436 46.0419 24.8018 45.6001 24.8018Z" fill="url(#paint1_linear_264_25090)"/>
</g>
<defs>
<linearGradient id="paint0_linear_264_25090" x1="49.1719" y1="0.000237054" x2="-76.7451" y2="8.94142" gradientUnits="userSpaceOnUse">
<stop stop-color="#05D5FF"/>
<stop offset="1" stop-color="#5533FF"/>
</linearGradient>
<linearGradient id="paint1_linear_264_25090" x1="84.1722" y1="1.59216" x2="-101.286" y2="22.5238" gradientUnits="userSpaceOnUse">
<stop stop-color="#05D5FF"/>
<stop offset="1" stop-color="#5533FF"/>
</linearGradient>
<clipPath id="clip0_264_25090">
<rect width="48" height="48" fill="white"/>
</clipPath>
</defs>
</svg>
