<svg width="24" height="24" viewBox="0 0 24 24" fill="none" xmlns="http://www.w3.org/2000/svg">
<path fill-rule="evenodd" clip-rule="evenodd" d="M23.4086 12.0041C23.4086 5.5405 18.1679 0.299805 11.7043 0.299805C5.2407 0.299805 0 5.5405 0 12.0041C0 17.8456 4.2795 22.6879 9.8757 23.567V15.3882H6.90309V12.0041H9.8757V9.4249C9.8757 6.4918 11.6237 4.87054 14.2967 4.87054C15.5772 4.87054 16.917 5.09932 16.917 5.09932V7.97977H15.4406C13.9873 7.97977 13.5329 8.88175 13.5329 9.80839V12.004H16.7787L16.2602 15.3881H13.5328V23.5669C19.129 22.6895 23.4085 17.8471 23.4085 12.004L23.4086 12.0041Z" fill="white"/>
</svg>
