<svg width="25" height="24" viewBox="0 0 25 24" fill="none" xmlns="http://www.w3.org/2000/svg">
<mask id="mask0_279_34055" style="mask-type:alpha" maskUnits="userSpaceOnUse" x="0" y="0" width="25" height="24">
<path d="M24.007 12.6986C23.9454 13.1618 23.9049 13.628 23.8197 14.0865C23.2718 17.0458 21.8649 19.5176 19.5992 21.502C18.2558 22.6789 16.6553 23.5246 14.926 23.9712C14.8966 23.9789 14.8673 23.98 14.818 23.9871V23.7223C14.818 22.2546 14.8027 20.7869 14.8239 19.3192C14.8356 18.4738 14.6554 17.7106 14.09 17.0618C14.0425 16.9992 13.9987 16.9337 13.9591 16.8658C14.4053 16.7548 14.8397 16.6679 15.2589 16.5393C16.4284 16.18 17.4428 15.5789 18.1679 14.5638C18.8929 13.5487 19.2135 12.4168 19.1471 11.1722C19.0884 10.1078 18.6616 9.18258 18.0716 8.32192C18.004 8.23326 17.9589 8.12951 17.9402 8.01959C17.9214 7.90967 17.9297 7.79684 17.9642 7.6908C18.2289 6.75147 18.0898 5.83973 17.7728 4.95264C16.9156 4.93385 16.1794 5.27436 15.4931 5.70939C14.9694 6.04168 14.4898 6.17906 13.8452 6.01409C12.4303 5.65186 10.9972 5.74932 9.58647 6.13151C9.41681 6.17671 9.27884 6.13855 9.12326 6.05695C8.49802 5.72583 7.87395 5.38708 7.22639 5.1047C6.93578 4.97789 6.59 4.97788 6.25536 4.918C5.99117 5.61546 5.8444 6.3182 5.92835 7.05381C5.95946 7.32329 6.04576 7.58689 6.07277 7.85636C6.08663 7.9829 6.05769 8.11043 5.99058 8.21859C4.74068 9.98395 4.51935 11.8685 5.4035 13.837C5.94244 15.0358 6.9082 15.8395 8.12581 16.3104C8.73872 16.5452 9.38393 16.7008 10.0303 16.8975C9.93461 17.036 9.79548 17.191 9.71211 17.3671C9.55125 17.7 9.42444 18.0493 9.27414 18.3875C9.24127 18.462 9.18197 18.553 9.11328 18.5795C8.35007 18.8695 7.6896 18.6663 7.23461 17.9859C6.8489 17.4088 6.43559 16.8705 5.80037 16.5405C5.42467 16.3379 4.99913 16.2463 4.57336 16.2763L4.69078 17.6607C5.20506 17.6777 5.50682 18.0129 5.79626 18.3652C6.10976 18.7515 6.38334 19.1871 6.75731 19.5023C7.44655 20.0894 8.28373 20.2069 9.17375 20.0307V24C8.96886 23.9413 8.76867 23.8978 8.57317 23.8356C6.28354 23.1106 4.39606 21.7955 2.87845 19.9444C1.44772 18.2008 0.518956 16.2153 0.168466 13.9908C-0.412747 10.3016 0.509561 7.0045 2.94126 4.16771C4.74361 2.0636 7.03207 0.754991 9.75144 0.2137C10.1624 0.132095 10.5851 0.101563 11.0019 0.045203C11.07 0.0358097 11.1364 0.0152642 11.2033 0H12.7972C12.8724 0.0158513 12.9464 0.0352238 13.0215 0.0463784C13.5147 0.119177 14.0143 0.163796 14.5004 0.267123C16.5521 0.692887 18.4516 1.66233 20.0002 3.07397C22.1137 4.98963 23.417 7.35969 23.8667 10.1853C23.9207 10.5223 23.9606 10.8611 24.007 11.1992V12.6986Z" fill="black"/>
</mask>
<g mask="url(#mask0_279_34055)">
<ellipse cx="12.005" cy="12.3492" rx="12.0021" ry="12.0021" fill="white"/>
</g>
</svg>
