<svg width="48" height="48" viewBox="0 0 48 48" fill="none" xmlns="http://www.w3.org/2000/svg">
<g clip-path="url(#clip0_264_25116)">
<path d="M6.75 36.888V27H5.25V36.888C4.37925 37.1985 3.75 38.0235 3.75 39C3.75 40.2405 4.7595 41.25 6 41.25C7.2405 41.25 8.25 40.2405 8.25 39C8.25 38.0235 7.62075 37.1985 6.75 36.888ZM6 39.75C5.586 39.75 5.25 39.414 5.25 39C5.25 38.586 5.586 38.25 6 38.25C6.414 38.25 6.75 38.586 6.75 39C6.75 39.414 6.414 39.75 6 39.75Z" fill="url(#paint0_linear_264_25116)"/>
<path d="M10.5 27C9.2595 27 8.25 28.0095 8.25 29.25C8.25 30.2265 8.87925 31.0515 9.75 31.362V41.25H11.25V31.362C12.1207 31.0515 12.75 30.2265 12.75 29.25C12.75 28.0095 11.7405 27 10.5 27ZM10.5 30C10.086 30 9.75 29.664 9.75 29.25C9.75 28.836 10.086 28.5 10.5 28.5C10.914 28.5 11.25 28.836 11.25 29.25C11.25 29.664 10.914 30 10.5 30Z" fill="url(#paint1_linear_264_25116)"/>
<path d="M39.75 36.888V27H38.25V36.888C37.3792 37.1985 36.75 38.0235 36.75 39C36.75 40.2405 37.7595 41.25 39 41.25C40.2405 41.25 41.25 40.2405 41.25 39C41.25 38.0235 40.6207 37.1985 39.75 36.888ZM39 39.75C38.586 39.75 38.25 39.414 38.25 39C38.25 38.586 38.586 38.25 39 38.25C39.414 38.25 39.75 38.586 39.75 39C39.75 39.414 39.414 39.75 39 39.75Z" fill="url(#paint2_linear_264_25116)"/>
<path d="M43.5 27C42.2595 27 41.25 28.0095 41.25 29.25C41.25 30.2265 41.8792 31.0515 42.75 31.362V41.25H44.25V31.362C45.1207 31.0515 45.75 30.2265 45.75 29.25C45.75 28.0095 44.7405 27 43.5 27ZM43.5 30C43.086 30 42.75 29.664 42.75 29.25C42.75 28.836 43.086 28.5 43.5 28.5C43.914 28.5 44.25 28.836 44.25 29.25C44.25 29.664 43.914 30 43.5 30Z" fill="url(#paint3_linear_264_25116)"/>
<path d="M33 24.75C32.7038 24.75 32.4225 24.8108 32.163 24.915C31.9042 23.9588 31.0373 23.25 30 23.25C29.4217 23.25 28.899 23.4757 28.5 23.835C28.101 23.475 27.5783 23.25 27 23.25C26.736 23.25 26.4855 23.304 26.25 23.388V16.9342C29.3685 16.0508 31.6762 13.3912 32.1525 10.215L35.3235 11.9595C33.4642 13.3252 32.25 15.5212 32.25 18C32.25 22.1355 35.6145 25.5 39.75 25.5C43.8855 25.5 47.25 22.1355 47.25 18C47.25 13.8645 43.8855 10.5 39.75 10.5C38.7217 10.5 37.7407 10.7085 36.8475 11.085L32.2268 8.54325C31.9883 4.2075 28.395 0.75 24 0.75C19.605 0.75 16.0118 4.2075 15.7733 8.544L11.1525 11.085C10.2592 10.7085 9.279 10.5 8.25 10.5C4.1145 10.5 0.75 13.8645 0.75 18C0.75 22.1355 4.1145 25.5 8.25 25.5C12.3855 25.5 15.75 22.1355 15.75 18C15.75 15.5205 14.5357 13.3252 12.6757 11.9587L15.8475 10.2143C16.3237 13.3935 18.63 16.0515 21.7507 16.935V30.7598C21.7507 31.101 21.672 31.443 21.5212 31.749L20.892 28.6035C20.4412 26.352 18.4478 24.7178 16.152 24.7178C15.1042 24.7178 14.2507 25.5713 14.2507 26.619C14.2507 26.9955 14.361 27.36 14.5702 27.6735L15.342 28.8315C15.6277 29.2598 15.8122 29.7562 15.876 30.267L16.395 34.4167C16.4805 35.109 16.6995 35.7668 17.0228 36.327L19.5 41.4225V42.75H18V47.25H34.5V42.75H33V41.4997L34.2 39.9C34.8773 38.9977 35.25 37.8795 35.25 36.75V27C35.25 25.7595 34.2405 24.75 33 24.75ZM39.75 24C38.4007 24 37.1587 23.547 36.156 22.7933C36.9997 21.6742 38.3273 21 39.75 21C41.1727 21 42.5003 21.6742 43.344 22.7933C42.3413 23.547 41.0993 24 39.75 24ZM37.5 17.25C37.5 16.0095 38.5095 15 39.75 15C40.9905 15 42 16.0095 42 17.25C42 18.4905 40.9905 19.5 39.75 19.5C38.5095 19.5 37.5 18.4905 37.5 17.25ZM39.75 12C43.0583 12 45.75 14.6918 45.75 18C45.75 19.4198 45.252 20.7248 44.424 21.753C43.83 21.0135 43.077 20.4307 42.2257 20.0445C43.0012 19.3568 43.5 18.3652 43.5 17.25C43.5 15.1823 41.8177 13.5 39.75 13.5C37.6823 13.5 36 15.1823 36 17.25C36 18.3652 36.4988 19.3568 37.2743 20.0445C36.423 20.4315 35.67 21.0135 35.076 21.753C34.248 20.7248 33.75 19.4198 33.75 18C33.75 14.6918 36.4417 12 39.75 12ZM8.25 24C6.90075 24 5.65875 23.547 4.656 22.7933C5.49975 21.6742 6.82725 21 8.25 21C9.67275 21 11.0002 21.6742 11.844 22.7933C10.8412 23.547 9.59925 24 8.25 24ZM6 17.25C6 16.0095 7.0095 15 8.25 15C9.4905 15 10.5 16.0095 10.5 17.25C10.5 18.4905 9.4905 19.5 8.25 19.5C7.0095 19.5 6 18.4905 6 17.25ZM14.25 18C14.25 19.4198 13.752 20.7248 12.924 21.753C12.33 21.0135 11.577 20.4307 10.7257 20.0445C11.5012 19.3568 12 18.3652 12 17.25C12 15.1823 10.3177 13.5 8.25 13.5C6.18225 13.5 4.5 15.1823 4.5 17.25C4.5 18.3652 4.99875 19.3568 5.77425 20.0445C4.923 20.4315 4.17 21.0135 3.576 21.753C2.748 20.7248 2.25 19.4198 2.25 18C2.25 14.6918 4.94175 12 8.25 12C11.5582 12 14.25 14.6918 14.25 18ZM17.25 9C17.25 5.27775 20.2778 2.25 24 2.25C27.7222 2.25 30.75 5.27775 30.75 9C30.75 10.5127 30.2362 11.9302 29.3685 13.074C28.7513 11.8297 27.729 10.8503 26.4855 10.2863C27.255 9.59925 27.75 8.61075 27.75 7.5C27.75 5.43225 26.0677 3.75 24 3.75C21.9323 3.75 20.25 5.43225 20.25 7.5C20.25 8.61075 20.745 9.59925 21.5145 10.2863C20.2703 10.8503 19.248 11.8305 18.6307 13.0748C17.763 11.9318 17.25 10.5142 17.25 9ZM26.25 7.5C26.25 8.7405 25.2405 9.75 24 9.75C22.7595 9.75 21.75 8.7405 21.75 7.5C21.75 6.2595 22.7595 5.25 24 5.25C25.2405 5.25 26.25 6.2595 26.25 7.5ZM19.7715 14.2523C20.4 12.468 22.071 11.25 24 11.25C25.9275 11.25 27.5985 12.468 28.2285 14.2507C27.5715 14.7825 26.814 15.1973 25.98 15.453C25.6012 14.7413 24.861 14.25 24 14.25C23.139 14.25 22.3988 14.7413 22.0208 15.453C21.186 15.1973 20.4285 14.7832 19.7715 14.2523ZM33 45.75H19.5V44.25H33V45.75ZM33.75 36.75C33.75 37.5563 33.4837 38.3558 33 39L31.5 41.0003V42.75H21V41.0775L18.348 35.6273C18.1005 35.196 17.9445 34.7272 17.883 34.233L17.364 30.0825C17.2717 29.3423 17.0048 28.6222 16.59 28.0012L15.8175 26.8425C15.7733 26.7765 15.75 26.6993 15.75 26.619C15.75 26.3978 15.93 26.2185 16.1512 26.2185C17.7345 26.2185 19.1092 27.3457 19.4205 28.8982L20.385 33.7185H22.2135L22.854 32.4368C23.1128 31.9193 23.25 31.3388 23.25 30.7605V16.5C23.25 16.086 23.586 15.75 24 15.75C24.414 15.75 24.75 16.086 24.75 16.5V25.5V28.5H26.25V25.5C26.25 25.086 26.586 24.75 27 24.75C27.414 24.75 27.75 25.086 27.75 25.5V28.5H29.25V25.5C29.25 25.086 29.586 24.75 30 24.75C30.414 24.75 30.75 25.086 30.75 25.5V27V28.5H32.25V27C32.25 26.586 32.586 26.25 33 26.25C33.414 26.25 33.75 26.586 33.75 27V36.75Z" fill="url(#paint4_linear_264_25116)"/>
</g>
<defs>
<linearGradient id="paint0_linear_264_25116" x1="12.6724" y1="27" x2="-10.2477" y2="27.9948" gradientUnits="userSpaceOnUse">
<stop stop-color="#05D5FF"/>
<stop offset="1" stop-color="#5533FF"/>
</linearGradient>
<linearGradient id="paint1_linear_264_25116" x1="17.1724" y1="27" x2="-5.74771" y2="27.9948" gradientUnits="userSpaceOnUse">
<stop stop-color="#05D5FF"/>
<stop offset="1" stop-color="#5533FF"/>
</linearGradient>
<linearGradient id="paint2_linear_264_25116" x1="45.6724" y1="27" x2="22.7523" y2="27.9948" gradientUnits="userSpaceOnUse">
<stop stop-color="#05D5FF"/>
<stop offset="1" stop-color="#5533FF"/>
</linearGradient>
<linearGradient id="paint3_linear_264_25116" x1="50.1724" y1="27" x2="27.2523" y2="27.9948" gradientUnits="userSpaceOnUse">
<stop stop-color="#05D5FF"/>
<stop offset="1" stop-color="#5533FF"/>
</linearGradient>
<linearGradient id="paint4_linear_264_25116" x1="92.9483" y1="0.749993" x2="-139.94" y2="32.7575" gradientUnits="userSpaceOnUse">
<stop stop-color="#05D5FF"/>
<stop offset="1" stop-color="#5533FF"/>
</linearGradient>
<clipPath id="clip0_264_25116">
<rect width="48" height="48" fill="white"/>
</clipPath>
</defs>
</svg>
