<svg width="24" height="24" viewBox="0 0 24 24" fill="none" xmlns="http://www.w3.org/2000/svg">
<path d="M6.4086 3.60293C6.37855 2.23903 5.40322 1.2002 3.81942 1.2002C2.23563 1.2002 1.2002 2.23903 1.2002 3.60293C1.2002 4.93858 2.20502 6.00732 3.75933 6.00732H3.78891C5.40322 6.00732 6.4086 4.93858 6.4086 3.60293Z" fill="white"/>
<path d="M6.10367 7.90601H1.47395V21.8164H6.10367V7.90601Z" fill="white"/>
<path d="M17.4697 7.5794C20.5162 7.5794 22.8002 9.56797 22.8002 13.8406L22.8 21.8164H18.1705V14.3744C18.1705 12.5051 17.5005 11.2295 15.8246 11.2295C14.5455 11.2295 13.7837 12.0894 13.4491 12.92C13.3266 13.2176 13.2966 13.6324 13.2966 14.0481V21.8168H8.66633C8.66633 21.8168 8.72735 9.21169 8.66633 7.90641H13.2966V9.8767C13.9111 8.92955 15.0116 7.5794 17.4697 7.5794Z" fill="white"/>
</svg>
