<svg width="20" height="20" viewBox="0 0 20 20" fill="none" xmlns="http://www.w3.org/2000/svg">
<path d="M10.0144 0C11.754 0.0141962 13.4329 0.641733 14.7553 1.77211C16.0778 2.90249 16.959 4.46322 17.2438 6.17948C17.4661 7.51683 17.1916 8.76473 16.6882 9.98762C15.8998 11.8984 14.8548 13.6691 13.688 15.3659C12.6846 16.8272 11.6212 18.2473 10.5766 19.678C10.2649 20.1041 9.77378 20.1047 9.45375 19.6952C7.65527 17.3955 5.96791 15.0192 4.5389 12.4684C3.84107 11.2227 3.20545 9.94595 2.85376 8.55137C2.49373 7.12735 2.70763 5.74666 3.29824 4.43598C4.37944 2.03241 6.24849 0.597277 8.84148 0.119454C9.22373 0.0477803 9.62154 0.0377814 10.0144 0ZM7.34414 6.68008C7.34491 7.20607 7.50143 7.72004 7.79395 8.15719C8.08647 8.59433 8.50188 8.93505 8.98781 9.13638C9.47373 9.33772 10.0084 9.39064 10.5244 9.28848C11.0403 9.18632 11.5145 8.93365 11.887 8.56234C12.2596 8.19103 12.5138 7.71771 12.6177 7.20209C12.7216 6.68646 12.6704 6.15162 12.4707 5.66502C12.271 5.17842 11.9317 4.76187 11.4955 4.46789C11.0593 4.17392 10.5459 4.01568 10.0199 4.01316C9.66895 4.01199 9.3212 4.08011 8.99661 4.21361C8.67202 4.34711 8.37697 4.54337 8.12839 4.79113C7.8798 5.0389 7.68257 5.33329 7.54799 5.65744C7.41341 5.98159 7.34413 6.32911 7.34414 6.68008Z" fill="white"/>
</svg>
