<svg width="48" height="48" viewBox="0 0 48 48" fill="none" xmlns="http://www.w3.org/2000/svg">
<path d="M41.25 1.5H6.75C6.55109 1.5 6.36032 1.57902 6.21967 1.71967C6.07902 1.86032 6 2.05109 6 2.25V30.75C6 30.9489 6.07902 31.1397 6.21967 31.2803C6.36032 31.421 6.55109 31.5 6.75 31.5H13.9532C15.11 33.9584 16.6127 36.2387 18.4156 38.2714C15.7837 39.0845 14.25 40.4362 14.25 42C14.25 44.5653 18.4417 46.5 24 46.5C29.5583 46.5 33.75 44.5653 33.75 42C33.75 40.4415 32.224 39.0924 29.6061 38.2783C31.4121 36.2468 32.913 33.9635 34.0618 31.5H41.25C41.4489 31.5 41.6397 31.421 41.7803 31.2803C41.921 31.1397 42 30.9489 42 30.75V2.25C42 2.05109 41.921 1.86032 41.7803 1.71967C41.6397 1.57902 41.4489 1.5 41.25 1.5ZM7.5 3H40.5V10.5H7.5V3ZM24.0022 41.7653C21.991 40.0049 14.25 32.8118 14.25 26.4078C14.2292 25.1143 14.466 23.8295 14.9467 22.6283C15.4273 21.4272 16.1422 20.3337 17.0496 19.4115C17.9571 18.4894 19.0389 17.7571 20.2322 17.2572C21.4254 16.7573 22.7063 16.4998 24 16.4998C25.2937 16.4998 26.5746 16.7573 27.7678 17.2572C28.9611 17.7571 30.0429 18.4894 30.9504 19.4115C31.8578 20.3337 32.5727 21.4272 33.0533 22.6283C33.534 23.8295 33.7708 25.1143 33.75 26.4078C33.75 32.8846 26.0156 40.0184 24.0022 41.7653ZM32.25 42C32.25 43.4161 28.7219 45 24 45C19.2781 45 15.75 43.4161 15.75 42C15.75 41.2439 16.9506 40.1774 19.5359 39.5247C20.7843 40.8764 22.1169 42.1477 23.5258 43.3312C23.6592 43.44 23.826 43.4996 23.9981 43.5C24.1703 43.5004 24.3374 43.4416 24.4713 43.3334C25.8898 42.1534 27.2304 40.8829 28.4847 39.5298C31.0557 40.1835 32.25 41.2472 32.25 42ZM34.6347 30C35.027 28.8423 35.2346 27.6301 35.25 26.4078C35.2708 24.9173 34.9952 23.4374 34.4391 22.0543C33.8831 20.6711 33.0578 19.4123 32.011 18.3508C30.9643 17.2894 29.7171 16.4466 28.3418 15.8713C26.9666 15.296 25.4907 14.9998 24 14.9998C22.5093 14.9998 21.0334 15.296 19.6582 15.8713C18.2829 16.4466 17.0357 17.2894 15.989 18.3508C14.9422 19.4123 14.1169 20.6711 13.5609 22.0543C13.0048 23.4374 12.7292 24.9173 12.75 26.4078C12.7663 27.6308 12.977 28.8433 13.3743 30H7.5V12H40.5V30H34.6347Z" fill="url(#paint0_linear_264_25142)"/>
<path d="M36.75 4.5C36.305 4.5 35.87 4.63196 35.5 4.87919C35.13 5.12643 34.8416 5.47783 34.6713 5.88896C34.501 6.3001 34.4564 6.7525 34.5432 7.18895C34.6301 7.62541 34.8443 8.02632 35.159 8.34099C35.4737 8.65566 35.8746 8.86995 36.311 8.95677C36.7475 9.04358 37.1999 8.99903 37.611 8.82873C38.0222 8.65843 38.3736 8.37004 38.6208 8.00003C38.868 7.63002 39 7.19501 39 6.75C38.9993 6.15346 38.7621 5.58154 38.3403 5.15973C37.9185 4.73791 37.3465 4.50065 36.75 4.5ZM36.75 7.5C36.6017 7.5 36.4567 7.45601 36.3333 7.3736C36.21 7.29119 36.1139 7.17406 36.0571 7.03701C36.0003 6.89997 35.9855 6.74917 36.0144 6.60368C36.0434 6.4582 36.1148 6.32456 36.2197 6.21967C36.3246 6.11478 36.4582 6.04335 36.6037 6.01441C36.7492 5.98547 36.9 6.00032 37.037 6.05709C37.1741 6.11386 37.2912 6.20999 37.3736 6.33332C37.456 6.45666 37.5 6.60166 37.5 6.75C37.4997 6.94883 37.4206 7.13945 37.28 7.28005C37.1394 7.42064 36.9488 7.49974 36.75 7.5Z" fill="url(#paint1_linear_264_25142)"/>
<path d="M30.75 4.5C30.305 4.5 29.87 4.63196 29.5 4.87919C29.13 5.12643 28.8416 5.47783 28.6713 5.88896C28.501 6.3001 28.4564 6.7525 28.5432 7.18895C28.6301 7.62541 28.8443 8.02632 29.159 8.34099C29.4737 8.65566 29.8746 8.86995 30.311 8.95677C30.7475 9.04358 31.1999 8.99903 31.611 8.82873C32.0222 8.65843 32.3736 8.37004 32.6208 8.00003C32.868 7.63002 33 7.19501 33 6.75C32.9993 6.15346 32.7621 5.58154 32.3403 5.15973C31.9185 4.73791 31.3465 4.50065 30.75 4.5ZM30.75 7.5C30.6017 7.5 30.4567 7.45601 30.3333 7.3736C30.21 7.29119 30.1139 7.17406 30.0571 7.03701C30.0003 6.89997 29.9855 6.74917 30.0144 6.60368C30.0434 6.4582 30.1148 6.32456 30.2197 6.21967C30.3246 6.11478 30.4582 6.04335 30.6037 6.01441C30.7492 5.98547 30.9 6.00032 31.037 6.05709C31.1741 6.11386 31.2912 6.20999 31.3736 6.33332C31.456 6.45666 31.5 6.60166 31.5 6.75C31.4997 6.94883 31.4206 7.13945 31.28 7.28005C31.1394 7.42064 30.9488 7.49974 30.75 7.5Z" fill="url(#paint2_linear_264_25142)"/>
<path d="M20.25 4.5H9.75C9.55109 4.5 9.36032 4.57902 9.21967 4.71967C9.07902 4.86032 9 5.05109 9 5.25V8.25C9 8.44891 9.07902 8.63968 9.21967 8.78033C9.36032 8.92098 9.55109 9 9.75 9H20.25C20.4489 9 20.6397 8.92098 20.7803 8.78033C20.921 8.63968 21 8.44891 21 8.25V5.25C21 5.05109 20.921 4.86032 20.7803 4.71967C20.6397 4.57902 20.4489 4.5 20.25 4.5ZM19.5 7.5H10.5V6H19.5V7.5Z" fill="url(#paint3_linear_264_25142)"/>
<path d="M24 20.25C22.9617 20.25 21.9466 20.5579 21.0833 21.1348C20.2199 21.7117 19.547 22.5316 19.1496 23.4909C18.7523 24.4502 18.6483 25.5058 18.8509 26.5242C19.0535 27.5426 19.5535 28.4781 20.2877 29.2123C21.0219 29.9465 21.9574 30.4466 22.9758 30.6491C23.9942 30.8517 25.0498 30.7477 26.0091 30.3504C26.9684 29.953 27.7883 29.2801 28.3652 28.4167C28.9421 27.5534 29.25 26.5384 29.25 25.5C29.2484 24.1081 28.6948 22.7736 27.7106 21.7894C26.7264 20.8052 25.3919 20.2516 24 20.25ZM24 29.25C23.2583 29.25 22.5333 29.0301 21.9166 28.618C21.2999 28.206 20.8193 27.6203 20.5355 26.9351C20.2516 26.2498 20.1774 25.4958 20.3221 24.7684C20.4668 24.041 20.8239 23.3728 21.3484 22.8483C21.8728 22.3239 22.541 21.9667 23.2684 21.8221C23.9958 21.6774 24.7498 21.7516 25.4351 22.0355C26.1203 22.3193 26.706 22.7999 27.118 23.4166C27.5301 24.0333 27.75 24.7583 27.75 25.5C27.7488 26.4942 27.3534 27.4474 26.6504 28.1504C25.9474 28.8534 24.9942 29.2488 24 29.25Z" fill="url(#paint4_linear_264_25142)"/>
<defs>
<linearGradient id="paint0_linear_264_25142" x1="77.3793" y1="1.49999" x2="-104.133" y2="21.4572" gradientUnits="userSpaceOnUse">
<stop stop-color="#05D5FF"/>
<stop offset="1" stop-color="#5533FF"/>
</linearGradient>
<linearGradient id="paint1_linear_264_25142" x1="43.4224" y1="4.5" x2="20.8848" y2="7.5975" gradientUnits="userSpaceOnUse">
<stop stop-color="#05D5FF"/>
<stop offset="1" stop-color="#5533FF"/>
</linearGradient>
<linearGradient id="paint2_linear_264_25142" x1="37.4224" y1="4.5" x2="14.8848" y2="7.5975" gradientUnits="userSpaceOnUse">
<stop stop-color="#05D5FF"/>
<stop offset="1" stop-color="#5533FF"/>
</linearGradient>
<linearGradient id="paint3_linear_264_25142" x1="32.7931" y1="4.5" x2="-21.1911" y2="24.2852" gradientUnits="userSpaceOnUse">
<stop stop-color="#05D5FF"/>
<stop offset="1" stop-color="#5533FF"/>
</linearGradient>
<linearGradient id="paint4_linear_264_25142" x1="39.569" y1="20.25" x2="-13.0187" y2="27.4775" gradientUnits="userSpaceOnUse">
<stop stop-color="#05D5FF"/>
<stop offset="1" stop-color="#5533FF"/>
</linearGradient>
</defs>
</svg>
