<svg width="174" height="40" viewBox="0 0 174 40" fill="none" xmlns="http://www.w3.org/2000/svg">
<g clip-path="url(#clip0_269_48976)">
<path fill-rule="evenodd" clip-rule="evenodd" d="M17.1507 15.2347V10.312L0.0507812 18.3437V23.9141L17.1501 31.9457V27.0231L3.97611 21.1073L17.1507 15.2347ZM21.7192 39.9773L34.233 0.078125H29.1808L16.7058 39.9773H21.7192ZM32.7433 26.7208V31.6435L49.8041 23.6117V18.0414L32.7433 10.0098V14.9324L45.9178 20.8482L32.7433 26.7208Z" fill="url(#paint0_linear_269_48976)"/>
<path fill-rule="evenodd" clip-rule="evenodd" d="M42.1413 25.2302C41.6512 23.5618 40.7599 22.2663 39.4674 21.3437C38.175 20.4211 36.6523 19.9599 34.8995 19.9599C33.4773 19.9405 32.078 20.3189 30.8594 21.0524C29.6408 21.7859 28.6515 22.8453 28.003 24.1111C27.3123 25.4191 26.9669 26.899 26.9668 28.5509C26.9667 30.2028 27.3121 31.6788 28.003 32.9789C28.6548 34.2372 29.6419 35.2909 30.8552 36.0233C32.0658 36.7535 33.4213 37.1185 34.9218 37.1183C36.2587 37.1183 37.4657 36.8174 38.5427 36.2158C39.5976 35.6344 40.5019 34.8145 41.1835 33.8214C41.8582 32.8475 42.3143 31.7393 42.5205 30.5726V27.6367H34.0977V30.2117H39.4456C39.2078 31.431 38.7102 32.3816 37.9527 33.0634C37.1952 33.7451 36.2222 34.0861 35.0336 34.0861C34.0677 34.0861 33.221 33.8615 32.4934 33.4123C31.7517 32.948 31.1598 32.2796 30.7888 31.4871C30.38 30.6531 30.1757 29.6745 30.176 28.5512C30.176 27.4604 30.3766 26.4978 30.7776 25.6634C31.1787 24.829 31.7356 24.1871 32.4484 23.7378C33.1837 23.2824 34.0347 23.0485 34.8995 23.064C35.7313 23.064 36.4592 23.2485 37.0832 23.6175C37.7197 24.0006 38.2307 24.5611 38.5535 25.2302H42.141H42.1413ZM54.1444 36.974H57.4425L51.8492 20.1522H48.2171L42.6242 36.974H45.8997L46.9248 33.7733H53.1194L54.1444 36.974ZM47.7713 31.0782L50.022 24.0507L52.2726 31.0782H47.7713ZM72.2702 20.1767L67.3231 32.6663L62.3766 20.1765H58.8333V36.974H61.9531V26.0484L66.1423 36.9744H68.5042L72.6712 26.0488V36.9748H75.7907V20.1765H72.2702V20.1767ZM87.702 22.8961V20.1522H78.6777V36.974H87.7019V34.2306H81.7972V29.7785H87.0339V27.1073H81.7972V22.8958H87.7019L87.702 22.8961ZM99.0221 28.3591C99.795 28.1076 100.469 27.6195 100.949 26.9637C101.432 26.3061 101.674 25.4879 101.673 24.5091C101.686 23.723 101.482 22.9487 101.083 22.2711C100.689 21.6134 100.11 21.1 99.3451 20.7309C98.5807 20.3617 97.6707 20.1773 96.6153 20.1774H90.1976V36.9748H96.9054C97.9599 36.9748 98.8736 36.7823 99.6462 36.3972C100.38 36.0474 100.995 35.4913 101.417 34.7969C101.825 34.1152 102.03 33.3251 102.03 32.4265C102.044 31.4755 101.747 30.5461 101.184 29.7796C100.619 29.0095 99.8982 28.5362 99.0221 28.3598V28.3591ZM93.3172 22.8961H96.1697C96.9122 22.8961 97.4841 23.0806 97.8855 23.4496C98.2869 23.8186 98.4874 24.3401 98.4868 25.0141C98.4868 25.6879 98.2864 26.2053 97.8855 26.5662C97.4847 26.9271 96.9127 27.1075 96.1697 27.1074H93.3172V22.896V22.8961ZM96.4597 34.2307H93.3172V29.7064H96.3929C97.1498 29.7064 97.7514 29.911 98.1976 30.32C98.6438 30.7291 98.8665 31.2946 98.8657 32.0166C98.8657 32.7228 98.654 33.2683 98.2306 33.6531C97.8072 34.0378 97.2169 34.2304 96.4597 34.2306V34.2307ZM104.127 20.1767V30.5488C104.127 31.9768 104.402 33.1841 104.952 34.1705C105.461 35.1181 106.241 35.8929 107.191 36.3966C108.165 36.9013 109.248 37.1576 110.344 37.1426C111.454 37.1575 112.552 36.9014 113.541 36.3966C114.506 35.893 115.304 35.1196 115.836 34.1705C116.408 33.1839 116.694 31.9767 116.695 30.5488V20.1765H113.552V30.5726C113.552 31.712 113.278 32.5823 112.729 33.1837C112.178 33.7853 111.398 34.0861 110.389 34.0861C109.393 34.0861 108.621 33.7853 108.071 33.1837C107.521 32.5821 107.246 31.7117 107.247 30.5726V20.1765H104.127V20.1767ZM119.522 20.1767V36.9742H122.642V20.1765H119.522V20.1767ZM128.628 20.1767H125.508V36.9742H133.754V34.3027H128.628V20.1765V20.1767ZM140.522 20.1767H135.086V36.9742H140.522C142.156 36.9742 143.593 36.6292 144.834 35.9393C146.058 35.2665 147.057 34.25 147.709 33.0154C148.384 31.7561 148.722 30.2841 148.722 28.5994C148.722 26.9148 148.384 25.4348 147.709 24.1597C147.062 22.9151 146.062 21.8895 144.834 21.2118C143.594 20.5221 142.156 20.1772 140.522 20.1769V20.1767ZM140.411 34.1104H138.205V23.0162H140.411C142.045 23.0162 143.307 23.5095 144.199 24.4961C145.091 25.4827 145.537 26.8504 145.536 28.5992C145.536 30.3481 145.091 31.7038 144.199 32.6662C143.308 33.6287 142.045 34.11 140.411 34.1101V34.1104ZM159.809 22.8961V20.1522H150.784V36.974H159.809V34.2306H153.904V29.7785H159.14V27.1073H153.904V22.8958H159.809L159.809 22.8961ZM173.936 36.974L170.215 30.1635C171.388 29.8267 172.272 29.2131 172.866 28.3226C173.459 27.4369 173.77 26.3923 173.758 25.3265C173.771 24.4163 173.552 23.5179 173.123 22.7154C172.7 21.9374 172.065 21.3197 171.218 20.8624C170.371 20.405 169.346 20.1764 168.143 20.1765H162.305V36.974H165.425V30.4285H166.895L170.327 36.974H173.936ZM165.425 22.9682H168.032C168.878 22.9682 169.509 23.1808 169.925 23.6059C170.341 24.0311 170.549 24.6287 170.549 25.3988C170.549 26.185 170.341 26.7986 169.925 27.2397C169.509 27.6807 168.878 27.9013 168.032 27.9015H165.425V22.9682Z" fill="white"/>
</g>
<defs>
<linearGradient id="paint0_linear_269_48976" x1="104.347" y1="-19.273" x2="-13.7559" y2="-11.2725" gradientUnits="userSpaceOnUse">
<stop stop-color="#05D5FF"/>
<stop offset="1" stop-color="#5533FF"/>
</linearGradient>
<clipPath id="clip0_269_48976">
<rect width="173.953" height="40" fill="white"/>
</clipPath>
</defs>
</svg>
