<svg width="1910" height="1058" viewBox="0 0 1910 1058" fill="none" xmlns="http://www.w3.org/2000/svg">
<path opacity="0.0144928" d="M1926.97 1766.86L2173.33 1538.24C2178.22 1533.7 2181.12 1527.42 2181.4 1520.75L2201.66 1040.05C2201.88 1034.81 2200.47 1029.63 2197.61 1025.23L1968.54 671.556C1963.37 663.573 1954.16 659.164 1944.7 660.141L1653.14 690.253C1643.68 691.23 1635.57 697.428 1632.14 706.299L1480.18 1099.32C1478.29 1104.22 1477.97 1109.58 1479.25 1114.66L1597.33 1581.08C1598.96 1587.54 1603.09 1593.1 1608.8 1596.54L1896.69 1769.99C1906.35 1775.81 1918.7 1774.54 1926.97 1766.86Z" stroke="url(#paint0_linear_279_33942)"/>
<path opacity="0.0289855" d="M1874.31 1764.02L2130.8 1550.55C2135.93 1546.28 2139.17 1540.15 2139.8 1533.5L2184.99 1058.94C2185.49 1053.7 2184.35 1048.44 2181.72 1043.88L1972.78 682.135C1968.03 673.91 1959.08 669.038 1949.59 669.518L1658.6 684.242C1649.12 684.722 1640.7 690.473 1636.8 699.136L1465.45 1080.13C1463.29 1084.92 1462.68 1090.28 1463.71 1095.44L1556.57 1563.01C1557.88 1569.56 1561.71 1575.33 1567.25 1579.07L1843.98 1765.55C1853.31 1771.84 1865.66 1771.21 1874.31 1764.02Z" stroke="url(#paint1_linear_279_33942)"/>
<path opacity="0.0434783" d="M1822.07 1759.59L2087.77 1561.71C2093.14 1557.72 2096.7 1551.76 2097.69 1545.14L2167.24 1078.01C2168.01 1072.79 2167.14 1067.45 2164.74 1062.76L1976.16 694.059C1971.84 685.613 1963.16 680.293 1953.68 680.276L1664.06 679.753C1654.58 679.736 1645.88 685.025 1641.53 693.455L1451.63 1061.47C1449.21 1066.16 1448.31 1071.49 1449.07 1076.71L1516.93 1544.1C1517.89 1550.72 1521.44 1556.69 1526.79 1560.7L1791.77 1759.53C1800.74 1766.27 1813.08 1766.29 1822.07 1759.59Z" stroke="url(#paint2_linear_279_33942)"/>
<path opacity="0.057971" d="M1770.33 1753.62L2044.32 1571.7C2049.9 1568 2053.78 1562.23 2055.12 1555.66L2148.36 1097.19C2149.42 1092 2148.82 1086.61 2146.65 1081.78L1978.59 707.266C1974.71 698.624 1966.33 692.871 1956.87 692.358L1669.42 676.773C1659.96 676.26 1651.01 681.073 1646.22 689.246L1438.65 1043.4C1435.98 1047.96 1434.8 1053.25 1435.29 1058.53L1478.42 1524.4C1479.04 1531.07 1482.27 1537.22 1487.42 1541.51L1740.14 1751.98C1748.73 1759.14 1761.01 1759.81 1770.33 1753.62Z" stroke="url(#paint3_linear_279_33942)"/>
<path opacity="0.0724638" d="M1719.16 1746.15L2000.5 1580.51C2006.28 1577.11 2010.48 1571.55 2012.16 1565.05L2128.39 1116.43C2129.72 1111.29 2129.4 1105.86 2127.48 1100.91L1980.02 721.699C1976.59 712.882 1968.53 706.714 1959.13 705.708L1674.61 675.286C1665.21 674.28 1656.03 678.605 1650.81 686.497L1426.51 1025.95C1423.58 1030.38 1422.12 1035.62 1422.33 1040.93L1441.08 1503.99C1441.35 1510.69 1444.28 1517.02 1449.21 1521.57L1689.16 1742.94C1697.36 1750.51 1709.55 1751.81 1719.16 1746.15Z" stroke="url(#paint4_linear_279_33942)"/>
<path opacity="0.0869565" d="M1668.63 1737.22L1956.37 1588.13C1962.34 1585.04 1966.83 1579.7 1968.86 1573.3L2107.31 1135.66C2108.91 1130.58 2108.88 1125.12 2107.2 1120.06L1980.37 737.283C1977.4 728.315 1969.68 721.749 1960.35 720.255L1679.54 675.259C1670.22 673.765 1660.83 677.59 1655.21 685.18L1415.13 1009.17C1411.96 1013.45 1410.22 1018.62 1410.16 1023.95L1404.93 1482.94C1404.86 1489.66 1407.46 1496.13 1412.16 1500.93L1638.91 1732.46C1646.69 1740.4 1658.76 1742.34 1668.63 1737.22Z" stroke="url(#paint5_linear_279_33942)"/>
<path opacity="0.101449" d="M1618.83 1726.88L1912.01 1594.56C1918.15 1591.79 1922.93 1586.69 1925.29 1580.39L2085.12 1154.82C2087 1149.81 2087.25 1144.34 2085.83 1139.19L1979.6 753.95C1977.09 744.856 1969.73 737.912 1960.51 735.934L1684.14 676.669C1674.92 674.691 1665.36 678.007 1659.34 685.274L1404.49 993.085C1401.08 997.202 1399.07 1002.29 1398.73 1007.63L1370.01 1461.31C1369.58 1468.03 1371.85 1474.64 1376.31 1479.68L1589.46 1720.59C1596.81 1728.9 1608.72 1731.45 1618.83 1726.88Z" stroke="url(#paint6_linear_279_33942)"/>
<path opacity="0.115942" d="M1569.83 1715.2L1867.51 1599.78C1873.79 1597.35 1878.84 1592.5 1881.54 1586.33L2061.88 1173.85C2064.02 1168.94 2064.56 1163.47 2063.4 1158.24L1977.68 771.631C1975.64 762.435 1968.66 755.132 1959.56 752.677L1688.35 679.482C1679.26 677.028 1669.55 679.828 1663.16 686.75L1394.57 977.735C1390.94 981.675 1388.65 986.668 1388.03 991.994L1336.35 1439.19C1335.58 1445.88 1337.51 1452.61 1341.71 1457.88L1540.9 1707.39C1547.8 1716.03 1559.52 1719.2 1569.83 1715.2Z" stroke="url(#paint7_linear_279_33942)"/>
<path opacity="0.130435" d="M1521.69 1702.21L1822.89 1603.82C1829.31 1601.72 1834.62 1597.15 1837.65 1591.11L2037.55 1192.71C2039.97 1187.9 2040.79 1182.45 2039.89 1177.14L1974.53 790.251C1972.96 780.976 1966.38 773.335 1957.44 770.412L1692.09 683.663C1683.14 680.741 1673.32 683.018 1666.58 689.576L1385.3 963.148C1381.45 966.899 1378.89 971.781 1377.99 977.086L1303.96 1416.64C1302.84 1423.3 1304.42 1430.13 1308.36 1435.61L1493.28 1692.93C1499.71 1701.88 1511.2 1705.64 1521.69 1702.21Z" stroke="url(#paint8_linear_279_33942)"/>
<path opacity="0.144928" d="M1474.46 1687.99L1778.23 1606.66C1784.76 1604.91 1790.33 1600.62 1793.67 1594.74L2012.18 1211.32C2014.85 1206.63 2015.95 1201.21 2015.33 1195.84L1970.12 809.73C1969.03 800.401 1962.86 792.445 1954.1 789.063L1695.27 689.171C1686.51 685.789 1676.59 687.538 1669.52 693.715L1376.64 949.353C1372.57 952.902 1369.75 957.659 1368.58 962.928L1272.84 1393.74C1271.37 1400.34 1272.61 1407.25 1276.27 1412.94L1446.64 1677.26C1452.6 1686.5 1463.84 1690.83 1474.46 1687.99Z" stroke="url(#paint9_linear_279_33942)"/>
<path opacity="0.15942" d="M1428.21 1672.6L1733.6 1608.33C1740.22 1606.93 1746.02 1602.94 1749.68 1597.24L1985.77 1229.63C1988.69 1225.07 1990.08 1219.7 1989.73 1214.29L1964.42 829.996C1963.8 820.638 1958.06 812.388 1949.5 808.559L1697.84 695.966C1689.28 692.136 1679.3 693.354 1671.92 699.131L1368.54 936.379C1364.27 939.715 1361.19 944.333 1359.74 949.552L1243.01 1370.56C1241.2 1377.09 1242.08 1384.07 1245.46 1389.94L1401.06 1660.45C1406.53 1669.95 1417.49 1674.86 1428.21 1672.6Z" stroke="url(#paint10_linear_279_33942)"/>
<path opacity="0.173913" d="M1383 1656.1L1689.05 1608.83C1695.76 1607.8 1701.77 1604.11 1705.73 1598.6L1958.35 1247.6C1961.53 1243.18 1963.2 1237.87 1963.12 1232.43L1957.4 850.965C1957.26 841.603 1951.96 833.083 1943.62 828.817L1699.74 703.999C1691.4 699.733 1681.4 700.418 1673.72 705.78L1360.95 924.246C1356.5 927.358 1353.16 931.822 1351.44 936.978L1214.48 1347.18C1212.33 1353.62 1212.85 1360.64 1215.93 1366.69L1356.59 1642.58C1361.55 1652.32 1372.2 1657.77 1383 1656.1Z" stroke="url(#paint11_linear_279_33942)"/>
<path opacity="0.188406" d="M1338.87 1638.56L1644.66 1608.19C1651.42 1607.52 1657.63 1604.15 1661.89 1598.85L1929.96 1265.16C1933.37 1260.91 1935.32 1255.66 1935.52 1250.21L1949.02 872.562C1949.35 863.22 1944.51 854.454 1936.42 849.765L1700.91 713.223C1692.82 708.535 1682.81 708.686 1674.86 713.618L1353.84 912.979C1349.2 915.857 1345.62 920.154 1343.63 925.231L1187.24 1323.67C1184.76 1330 1184.92 1337.06 1187.7 1343.26L1313.28 1623.72C1317.73 1633.66 1328.04 1639.64 1338.87 1638.56Z" stroke="url(#paint12_linear_279_33942)"/>
<path opacity="0.202899" d="M1295.88 1620.05L1600.47 1606.41C1607.27 1606.11 1613.66 1603.07 1618.2 1598L1900.61 1282.26C1904.25 1278.18 1906.48 1273.03 1906.96 1267.58L1939.27 894.699C1940.07 885.401 1935.69 876.414 1927.87 871.316L1701.28 723.582C1693.46 718.485 1683.47 718.105 1675.29 722.593L1347.14 902.59C1342.34 905.222 1338.52 909.34 1336.26 914.325L1161.29 1300.11C1158.48 1306.31 1158.29 1313.38 1160.75 1319.72L1271.16 1603.93C1275.09 1614.05 1285.03 1620.54 1295.88 1620.05Z" stroke="url(#paint13_linear_279_33942)"/>
<path opacity="0.217391" d="M1254.06 1600.65L1556.55 1603.53C1563.37 1603.59 1569.93 1600.9 1574.74 1596.07L1870.34 1298.87C1874.21 1294.97 1876.71 1289.92 1877.46 1284.48L1928.12 917.301C1929.4 908.07 1925.5 898.886 1917.97 893.396L1700.82 735.026C1693.29 729.535 1683.35 728.626 1674.95 732.66L1340.82 893.1C1335.86 895.478 1331.82 899.403 1329.3 904.282L1136.64 1276.56C1133.51 1282.62 1132.95 1289.68 1135.09 1296.16L1230.28 1583.3C1233.68 1593.57 1243.24 1600.54 1254.06 1600.65Z" stroke="url(#paint14_linear_279_33942)"/>
<path opacity="0.231884" d="M1213.43 1580.42L1512.94 1599.56C1519.75 1600 1526.46 1597.66 1531.52 1593.08L1839.17 1314.92C1843.25 1311.22 1846.03 1306.29 1847.05 1300.87L1915.56 940.28C1917.3 931.141 1913.88 921.786 1906.66 915.919L1699.44 747.493C1692.22 741.626 1682.36 740.192 1673.77 743.759L1334.79 884.517C1329.7 886.631 1325.44 890.351 1322.65 895.11L1113.24 1253.11C1109.79 1259 1108.87 1266.04 1110.69 1272.63L1190.65 1561.9C1193.52 1572.3 1202.67 1579.73 1213.43 1580.42Z" stroke="url(#paint15_linear_279_33942)"/>
<path opacity="0.246377" d="M1174.07 1559.44L1469.73 1594.54C1476.52 1595.35 1483.35 1593.37 1488.67 1589.06L1807.17 1330.38C1811.46 1326.89 1814.5 1322.08 1815.8 1316.71L1901.61 963.556C1903.8 954.532 1900.88 945.032 1893.99 938.806L1697.14 760.926C1690.25 754.699 1680.51 752.747 1671.75 755.839L1329.07 876.852C1323.85 878.695 1319.38 882.198 1316.34 886.824L1091.13 1229.81C1087.37 1235.53 1086.09 1242.53 1087.58 1249.21L1152.35 1539.81C1154.69 1550.3 1163.39 1558.17 1174.07 1559.44Z" stroke="url(#paint16_linear_279_33942)"/>
<path opacity="0.26087" d="M1135.95 1537.79L1426.92 1588.5C1433.68 1589.68 1440.62 1588.06 1446.16 1584.03L1774.34 1345.19C1778.83 1341.92 1782.12 1337.27 1783.7 1331.94L1886.22 987.046C1888.86 978.16 1886.43 968.54 1879.89 961.974L1693.85 775.26C1687.31 768.693 1677.7 766.23 1668.8 768.839L1323.54 870.111C1318.2 871.675 1313.54 874.95 1310.25 879.43L1070.23 1206.74C1066.18 1212.27 1064.54 1219.21 1065.69 1225.96L1115.35 1517.11C1117.15 1527.67 1125.4 1535.95 1135.95 1537.79Z" stroke="url(#paint17_linear_279_33942)"/>
<path opacity="0.275362" d="M1099.15 1515.54L1384.61 1581.46C1391.3 1583.01 1398.34 1581.77 1404.09 1578.03L1740.75 1359.33C1745.43 1356.3 1748.97 1351.8 1750.83 1346.54L1869.43 1010.67C1872.52 1001.94 1870.59 992.229 1864.41 985.341L1689.55 790.433C1683.37 783.545 1673.92 780.58 1664.91 782.699L1318.19 864.298C1312.76 865.576 1307.9 868.611 1304.38 872.932L1050.57 1183.97C1046.23 1189.29 1044.23 1196.15 1045.05 1202.96L1079.72 1493.88C1080.98 1504.48 1088.76 1513.14 1099.15 1515.54Z" stroke="url(#paint18_linear_279_33942)"/>
<path opacity="0.289855" d="M1063.65 1492.78L1342.82 1573.48C1349.42 1575.39 1356.53 1574.52 1362.48 1571.09L1706.42 1372.76C1711.27 1369.96 1715.06 1365.64 1717.19 1360.46L1851.22 1034.34C1854.74 1025.8 1853.31 1016.02 1847.51 1008.83L1684.18 806.386C1678.38 799.197 1669.12 795.739 1660.03 797.365L1312.95 859.419C1307.43 860.404 1302.4 863.19 1298.65 867.339L1032.08 1161.57C1027.46 1166.66 1025.12 1173.42 1025.59 1180.28L1045.43 1470.2C1046.16 1480.81 1053.43 1489.83 1063.65 1492.78Z" stroke="url(#paint19_linear_279_33942)"/>
<path opacity="0.304348" d="M1029.47 1469.58L1301.59 1564.57C1308.1 1566.84 1315.25 1566.36 1321.39 1563.24L1671.4 1385.44C1676.42 1382.89 1680.44 1378.75 1682.83 1373.66L1831.61 1057.99C1835.55 1049.65 1834.63 1039.83 1829.22 1032.36L1677.72 823.043C1672.31 815.574 1663.27 811.637 1654.12 812.765L1307.77 855.466C1302.19 856.153 1297 858.679 1293.01 862.645L1014.75 1139.58C1009.87 1144.44 1007.18 1151.09 1007.3 1157.98L1012.51 1446.15C1012.7 1456.74 1019.47 1466.09 1029.47 1469.58Z" stroke="url(#paint20_linear_279_33942)"/>
<path opacity="0.318841" d="M996.637 1446.02L1260.98 1554.79C1267.36 1557.41 1274.54 1557.32 1280.86 1554.52L1635.75 1397.33C1640.92 1395.05 1645.16 1391.1 1647.82 1386.12L1810.63 1081.53C1814.96 1073.42 1814.55 1063.59 1809.56 1055.86L1670.15 840.346C1665.15 832.619 1656.35 828.214 1647.17 828.843L1302.61 852.441C1296.98 852.826 1291.64 855.084 1287.44 858.853L998.553 1118.09C993.415 1122.7 990.384 1129.21 990.162 1136.11L980.972 1421.81C980.633 1432.36 986.876 1442.01 996.637 1446.02Z" stroke="url(#paint21_linear_279_33942)"/>
<path opacity="0.333333" d="M965.147 1422.18L1221.03 1544.17C1227.27 1547.14 1234.46 1547.44 1240.92 1544.97L1599.52 1408.41C1604.81 1406.39 1609.28 1402.66 1612.2 1397.8L1788.28 1104.89C1793.01 1097.02 1793.11 1087.2 1788.53 1079.24L1661.45 858.218C1656.87 850.256 1648.34 845.399 1639.16 845.528L1297.43 850.33C1291.77 850.41 1286.29 852.39 1281.88 855.952L983.447 1097.14C978.067 1101.49 974.702 1107.85 974.133 1114.74L950.817 1397.26C949.952 1407.73 955.656 1417.66 965.147 1422.18Z" stroke="url(#paint22_linear_279_33942)"/>
<path opacity="0.347826" d="M935.003 1398.13L1181.77 1532.76C1187.85 1536.08 1195.03 1536.75 1201.63 1534.64L1562.74 1418.65C1568.16 1416.91 1572.83 1413.39 1576 1408.67L1764.59 1127.99C1769.7 1120.38 1770.3 1110.6 1766.15 1102.43L1651.6 876.596C1647.45 868.421 1639.21 863.128 1630.05 862.758L1292.17 849.13C1286.49 848.901 1280.89 850.595 1276.28 853.939L969.39 1076.8C963.783 1080.87 960.091 1087.07 959.176 1093.94L922.038 1372.57C920.654 1382.96 925.809 1393.12 935.003 1398.13Z" stroke="url(#paint23_linear_279_33942)"/>
<path opacity="0.362319" d="M906.19 1373.96L1143.23 1520.6C1149.13 1524.25 1156.28 1525.32 1162.99 1523.55L1525.46 1428.03C1530.98 1426.57 1535.86 1423.29 1539.28 1418.71L1739.58 1150.76C1745.06 1143.43 1746.16 1133.72 1742.45 1125.36L1640.57 895.41C1636.86 887.046 1628.93 881.333 1619.83 880.468L1286.78 848.828C1281.09 848.288 1275.39 849.689 1270.59 852.805L956.331 1057.12C950.511 1060.91 946.501 1066.91 945.24 1073.74L894.618 1347.84C892.724 1358.1 897.318 1368.47 906.19 1373.96Z" stroke="url(#paint24_linear_279_33942)"/>
<path opacity="0.376812" d="M878.715 1349.73L1105.45 1507.74C1111.16 1511.72 1118.25 1513.17 1125.06 1511.76L1487.74 1436.53C1493.36 1435.36 1498.42 1432.32 1502.08 1427.9L1713.3 1173.13C1719.13 1166.1 1720.72 1156.48 1717.46 1147.95L1628.37 914.59C1625.11 906.061 1617.51 899.948 1608.49 898.591L1281.22 849.409C1275.54 848.556 1269.75 849.658 1264.78 852.535L944.238 1038.15C938.219 1041.63 933.9 1047.44 932.296 1054.21L868.56 1323.13C866.164 1333.24 870.191 1343.79 878.715 1349.73Z" stroke="url(#paint25_linear_279_33942)"/>
<path opacity="0.391304" d="M852.558 1325.52L1068.46 1494.24C1073.95 1498.53 1080.97 1500.37 1087.86 1499.31L1449.64 1444.12C1455.34 1443.25 1460.57 1440.46 1464.46 1436.21L1685.77 1195.02C1691.93 1188.31 1694.01 1178.8 1691.21 1170.13L1614.98 934.068C1612.18 925.399 1604.93 918.904 1596.01 917.061L1275.44 850.858C1269.79 849.692 1263.92 850.489 1258.79 853.117L933.055 1019.94C926.852 1023.11 922.233 1028.71 920.289 1035.4L843.838 1298.52C840.951 1308.46 844.404 1319.15 852.558 1325.52Z" stroke="url(#paint26_linear_279_33942)"/>
<path opacity="0.405797" d="M827.699 1301.42L1032.28 1480.13C1037.53 1484.72 1044.46 1486.94 1051.41 1486.26L1411.19 1450.8C1416.95 1450.23 1422.34 1447.7 1426.47 1443.64L1657.03 1216.38C1663.5 1210 1666.06 1200.64 1663.72 1191.85L1600.39 953.777C1598.05 944.993 1591.19 938.136 1582.4 935.815L1269.39 853.156C1263.79 851.677 1257.85 852.164 1252.57 854.535L922.727 1002.53C916.356 1005.39 911.449 1010.75 909.168 1017.35L820.43 1274.09C817.064 1283.83 819.939 1294.64 827.699 1301.42Z" stroke="url(#paint27_linear_279_33942)"/>
<path opacity="0.42029" d="M804.128 1277.47L996.931 1465.46C1001.94 1470.35 1008.75 1472.94 1015.74 1472.63L1372.46 1456.54C1378.27 1456.28 1383.81 1454.02 1388.15 1450.15L1627.13 1237.13C1633.9 1231.1 1636.92 1221.9 1635.05 1213.02L1584.62 973.641C1582.75 964.766 1576.28 957.57 1567.65 954.779L1263.04 856.276C1257.51 854.486 1251.52 854.658 1246.1 856.763L913.21 985.959C906.688 988.491 901.504 993.61 898.891 1000.1L798.32 1249.9C794.488 1259.42 796.782 1270.31 804.128 1277.47Z" stroke="url(#paint28_linear_279_33942)"/>
<path opacity="0.434783" d="M781.822 1253.76L962.448 1450.3C967.192 1455.46 973.864 1458.42 980.874 1458.48L1333.5 1461.35C1339.35 1461.4 1345.03 1459.42 1349.58 1455.76L1596.12 1257.23C1603.17 1251.55 1606.65 1242.54 1605.25 1233.6L1567.68 993.601C1566.28 984.661 1560.21 977.148 1551.77 973.898L1256.35 860.203C1250.9 858.103 1244.88 857.957 1239.33 859.788L904.453 970.279C897.796 972.475 892.348 977.335 889.408 983.699L777.48 1226.03C773.197 1235.3 774.91 1246.24 781.822 1253.76Z" stroke="url(#paint29_linear_279_33942)"/>
<path opacity="0.449275" d="M760.737 1230.37L928.827 1434.69C933.29 1440.11 939.807 1443.44 946.818 1443.87L1294.36 1465.22C1300.22 1465.58 1306.02 1463.89 1310.77 1460.44L1564.03 1276.61C1571.33 1271.3 1575.26 1262.51 1574.33 1253.53L1549.55 1013.59C1548.62 1004.61 1542.98 996.804 1534.75 993.105L1249.27 864.91C1243.91 862.505 1237.88 862.037 1232.22 863.588L896.381 955.52C889.606 957.374 883.906 961.962 880.646 968.184L757.863 1202.55C753.144 1211.55 754.275 1222.51 760.737 1230.37Z" stroke="url(#paint30_linear_279_33942)"/>
<path opacity="0.463768" d="M740.858 1207.34L896.1 1418.68C900.267 1424.35 906.608 1428.03 913.601 1428.83L1255.1 1468.14C1260.96 1468.82 1266.87 1467.42 1271.81 1464.2L1530.92 1295.21C1538.47 1290.29 1542.83 1281.73 1542.37 1272.74L1530.27 1033.54C1529.81 1024.55 1524.61 1016.47 1516.61 1012.34L1241.77 870.369C1236.52 867.661 1230.5 866.87 1224.74 868.133L888.953 941.711C882.077 943.218 876.14 947.52 872.567 953.584L739.45 1179.51C734.311 1188.23 734.865 1199.18 740.858 1207.34Z" stroke="url(#paint31_linear_279_33942)"/>
<path opacity="0.478261" d="M722.148 1184.74L864.274 1402.31C868.131 1408.22 874.278 1412.25 881.232 1413.43L1215.77 1470.12C1221.61 1471.11 1227.62 1470.01 1232.74 1467.03L1496.86 1313C1504.62 1308.47 1509.4 1300.17 1509.42 1291.18L1509.85 1053.39C1509.86 1044.4 1505.11 1036.08 1497.37 1031.53L1233.81 876.548C1228.7 873.543 1222.69 872.427 1216.84 873.397L882.106 928.879C875.148 930.033 868.987 934.038 865.108 939.929L722.198 1156.99C716.656 1165.4 716.636 1176.31 722.148 1184.74Z" stroke="url(#paint32_linear_279_33942)"/>
<path opacity="0.492754" d="M704.563 1162.64L833.352 1385.66C836.887 1391.78 842.82 1396.15 849.716 1397.7L1176.42 1471.15C1182.23 1472.45 1188.32 1471.67 1193.61 1468.93L1461.89 1329.91C1469.85 1325.79 1475.03 1317.76 1475.52 1308.81L1488.3 1073.07C1488.78 1064.12 1484.5 1055.58 1477.03 1050.62L1225.35 883.422C1220.39 880.124 1214.42 878.684 1208.5 879.355L875.775 917.053C868.752 917.849 862.381 921.546 858.206 927.248L706.059 1135.04C700.134 1143.13 699.547 1153.96 704.563 1162.64Z" stroke="url(#paint33_linear_279_33942)"/>
<path opacity="0.507246" d="M688.066 1141.09L803.344 1368.76C806.544 1375.08 812.245 1379.77 819.063 1381.69L1137.1 1471.24C1142.87 1472.86 1149.02 1472.39 1154.47 1469.9L1426.08 1345.92C1434.21 1342.2 1439.78 1334.48 1440.73 1325.59L1465.65 1092.53C1466.6 1083.64 1462.79 1074.91 1455.63 1069.56L1216.38 890.955C1211.58 887.372 1205.66 885.607 1199.69 885.975L869.901 906.251C862.831 906.686 856.267 910.064 851.804 915.563L690.993 1113.71C684.703 1121.46 683.557 1132.19 688.066 1141.09Z" stroke="url(#paint34_linear_279_33942)"/>
<path opacity="0.521739" d="M672.61 1120.15L774.249 1351.68C777.102 1358.18 782.554 1363.18 789.274 1365.46L1097.88 1470.4C1103.58 1472.34 1109.78 1472.18 1115.37 1469.96L1389.48 1360.97C1397.76 1357.68 1403.71 1350.26 1405.12 1341.46L1441.93 1111.71C1443.34 1102.91 1440.01 1094.01 1433.17 1088.29L1206.84 899.115C1202.22 895.254 1196.38 893.167 1190.36 893.227L864.419 896.492C857.321 896.563 850.58 899.612 845.839 904.894L676.948 1093.07C670.314 1100.47 668.618 1111.05 672.61 1120.15Z" stroke="url(#paint35_linear_279_33942)"/>
<path opacity="0.536232" d="M658.144 1099.86L746.062 1334.45C748.558 1341.11 753.743 1346.41 760.345 1349.06L1058.78 1468.65C1064.4 1470.9 1070.64 1471.07 1076.36 1469.11L1352.15 1375.04C1360.57 1372.17 1366.86 1365.09 1368.73 1356.39L1417.16 1130.55C1419.02 1121.86 1416.18 1112.82 1409.68 1106.75L1196.72 907.868C1192.3 903.737 1186.54 901.328 1180.49 901.078L859.261 887.789C852.154 887.495 845.252 890.206 840.244 895.257L663.869 1073.17C656.912 1080.18 654.676 1090.61 658.144 1099.86Z" stroke="url(#paint36_linear_279_33942)"/>
<path opacity="0.550725" d="M644.624 1080.28L718.785 1317.13C720.915 1323.93 725.815 1329.52 732.281 1332.52L1019.87 1466C1025.39 1468.56 1031.65 1469.04 1037.5 1467.37L1314.17 1388.09C1322.69 1385.65 1329.32 1378.92 1331.63 1370.36L1391.37 1149C1393.68 1140.44 1391.34 1131.29 1385.2 1124.89L1185.98 917.174C1181.77 912.783 1176.12 910.056 1170.06 909.493L854.37 880.149C847.272 879.489 840.225 881.854 834.961 886.661L651.708 1054.04C644.448 1060.67 641.686 1070.9 644.624 1080.28Z" stroke="url(#paint37_linear_279_33942)"/>
<path opacity="0.565217" d="M632.009 1061.46L692.421 1299.78C694.176 1306.7 698.777 1312.56 705.088 1315.91L981.209 1462.46C986.612 1465.33 992.872 1466.14 998.828 1464.75L1275.6 1400.1C1284.21 1398.08 1291.15 1391.72 1293.9 1383.32L1364.61 1167C1367.36 1158.6 1365.52 1149.37 1359.76 1142.66L1174.63 927C1170.64 922.359 1165.11 919.318 1159.06 918.44L849.692 873.582C842.621 872.557 835.447 874.568 829.94 879.119L640.419 1035.73C632.88 1041.96 629.605 1051.98 632.009 1061.46Z" stroke="url(#paint38_linear_279_33942)"/>
<path opacity="0.57971" d="M620.227 1043.42L666.946 1282.43C668.319 1289.46 672.605 1295.57 678.741 1299.26L942.823 1458.05C948.094 1461.22 954.34 1462.36 960.392 1461.26L1236.5 1411.04C1245.18 1409.46 1252.41 1403.48 1255.58 1395.25L1336.91 1184.51C1340.09 1176.29 1338.75 1167 1333.38 1160L1162.61 937.306C1158.86 932.425 1153.47 929.074 1147.43 927.881L845.147 868.088C838.123 866.699 830.839 868.35 825.101 872.632L629.928 1018.29C622.133 1024.1 618.361 1033.87 620.227 1043.42Z" stroke="url(#paint39_linear_279_33942)"/>
<path opacity="0.594203" d="M609.23 1026.21L642.351 1265.14C643.337 1272.25 647.294 1278.6 653.237 1282.62L904.764 1452.8C909.888 1456.27 916.104 1457.74 922.237 1456.93L1196.94 1420.88C1205.66 1419.74 1213.16 1414.15 1216.75 1406.13L1308.31 1201.48C1311.9 1193.46 1311.07 1184.14 1306.11 1176.88L1149.91 948.05C1146.42 942.941 1141.18 939.286 1135.18 937.776L840.676 863.663C833.717 861.912 826.342 863.197 820.386 867.2L620.182 1001.74C612.152 1007.13 607.902 1016.63 609.23 1026.21Z" stroke="url(#paint40_linear_279_33942)"/>
<path opacity="0.608696" d="M598.956 1009.88L618.621 1247.95C619.213 1255.12 622.827 1261.7 628.56 1266.04L867.075 1446.73C872.034 1450.49 878.204 1452.29 884.405 1451.79L1156.99 1429.64C1165.73 1428.93 1173.48 1423.75 1177.47 1415.94L1278.84 1217.88C1282.83 1210.07 1282.51 1200.76 1277.97 1193.26L1136.51 959.199C1133.29 953.875 1128.23 949.922 1122.28 948.097L836.215 860.309C829.339 858.199 821.89 859.114 815.73 862.826L611.115 986.118C602.876 991.083 598.164 1000.29 598.956 1009.88Z" stroke="url(#paint41_linear_279_33942)"/>
<path opacity="0.623188" d="M589.362 994.43L595.754 1230.92C595.949 1238.12 599.208 1244.9 604.713 1249.56L829.813 1439.87C834.592 1443.91 840.699 1446.04 846.954 1445.84L1116.73 1437.27C1125.46 1436.99 1133.44 1432.23 1137.82 1424.67L1248.57 1233.64C1252.95 1226.08 1253.12 1216.8 1249.03 1209.08L1122.42 970.706C1119.48 965.178 1114.6 960.935 1108.72 958.795L831.716 858.009C824.942 855.545 817.438 856.086 811.088 859.497L602.683 971.453C594.257 975.98 589.103 984.869 589.362 994.43Z" stroke="url(#paint42_linear_279_33942)"/>
<path opacity="0.637681" d="M580.374 979.909L573.717 1214.08C573.512 1221.3 576.403 1228.26 581.663 1233.22L793.004 1432.25C797.588 1436.57 803.616 1439.02 809.911 1439.13L1076.21 1443.79C1084.92 1443.94 1093.09 1439.61 1097.85 1432.31L1217.52 1248.75C1222.28 1241.45 1222.95 1232.22 1219.3 1224.32L1107.6 982.534C1104.96 976.818 1100.28 972.292 1094.48 969.839L827.106 856.758C820.451 853.943 812.911 854.108 806.385 857.209L594.806 957.772C586.219 961.854 580.644 970.405 580.374 979.909Z" stroke="url(#paint43_linear_279_33942)"/>
<path opacity="0.652174" d="M571.939 966.336L552.496 1197.47C551.889 1204.69 554.403 1211.82 559.401 1217.06L756.697 1423.9C761.069 1428.48 767.002 1431.26 773.322 1431.68L1035.51 1449.19C1044.17 1449.77 1052.52 1445.86 1057.64 1438.85L1185.76 1263.17C1190.88 1256.15 1192.04 1247.01 1188.84 1238.93L1092.06 994.643C1089.72 988.753 1085.27 983.953 1079.56 981.191L822.33 856.539C815.813 853.381 808.255 853.166 801.569 855.95L587.43 945.094C578.705 948.726 572.731 956.918 571.939 966.336Z" stroke="url(#paint44_linear_279_33942)"/>
<path opacity="0.666667" d="M563.992 953.725L532.064 1181.14C531.055 1188.33 533.181 1195.61 537.903 1201.12L720.924 1414.85C725.07 1419.69 730.89 1422.79 737.222 1423.52L994.686 1453.46C1003.28 1454.46 1011.79 1451 1017.25 1444.29L1153.33 1276.86C1158.79 1270.14 1160.44 1261.11 1157.7 1252.9L1075.77 1006.99C1073.76 1000.94 1069.54 995.874 1063.95 992.805L817.329 857.329C810.967 853.834 803.41 853.24 796.579 855.697L580.487 933.431C571.649 936.61 565.298 944.423 563.992 953.725Z" stroke="url(#paint45_linear_279_33942)"/>
<path opacity="0.681159" d="M556.465 942.095L512.389 1165.13C510.979 1172.27 512.709 1179.67 517.139 1185.44L685.712 1405.13C689.618 1410.22 695.31 1413.64 701.638 1414.69L953.809 1456.62C962.315 1458.04 970.955 1455.02 976.736 1448.63L1120.27 1289.79C1126.05 1283.4 1128.18 1274.49 1125.91 1266.18L1058.74 1019.52C1057.05 1013.34 1053.08 1008.02 1047.62 1004.65L812.038 859.108C805.847 855.284 798.31 854.309 791.351 856.433L573.904 922.797C564.977 925.521 558.274 932.938 556.465 942.095Z" stroke="url(#paint46_linear_279_33942)"/>
<path opacity="0.695652" d="M549.302 931.458L493.452 1149.47C491.642 1156.53 492.969 1164.04 497.092 1170.05L651.104 1394.79C654.754 1400.12 660.302 1403.85 666.612 1405.22L912.949 1458.68C921.345 1460.5 930.092 1457.94 936.178 1451.87L1086.64 1301.95C1092.73 1295.89 1095.32 1287.15 1093.53 1278.75L1040.96 1032.22C1039.61 1025.9 1035.9 1020.34 1030.59 1016.67L806.409 861.852C800.407 857.707 792.909 856.353 785.837 858.138L567.625 913.201C558.634 915.47 551.604 922.475 549.302 931.458Z" stroke="url(#paint47_linear_279_33942)"/>
<path opacity="0.710145" d="M542.447 921.822L475.228 1134.2C473.022 1141.17 473.939 1148.75 477.742 1155L617.133 1383.87C620.514 1389.42 625.902 1393.45 632.179 1395.14L872.174 1459.64C880.44 1461.86 889.269 1459.75 895.641 1454.03L1052.5 1313.31C1058.87 1307.6 1061.92 1299.05 1060.6 1290.59L1022.43 1045.03C1021.43 1038.6 1018 1032.81 1012.85 1028.85L800.394 865.532C794.598 861.076 787.157 859.345 779.988 860.785L561.59 904.648C552.559 906.461 545.226 913.04 542.447 921.822Z" stroke="url(#paint48_linear_279_33942)"/>
<path opacity="0.724638" d="M535.819 913.191L457.67 1119.35C455.072 1126.2 455.573 1133.84 459.044 1140.3L583.812 1372.39C586.91 1378.15 592.121 1382.49 598.35 1384.5L831.532 1459.52C839.649 1462.13 848.536 1460.48 855.172 1455.13L1017.88 1323.86C1024.52 1318.5 1028.01 1310.16 1027.17 1301.68L1003.15 1057.91C1002.51 1051.39 999.368 1045.38 994.389 1041.14L793.926 870.116C788.35 865.359 780.986 863.253 773.738 864.344L555.718 897.136C546.671 898.497 539.063 904.636 535.819 913.191Z" stroke="url(#paint49_linear_279_33942)"/>
<path opacity="0.73913" d="M529.387 905.564L440.774 1104.95C437.79 1111.66 437.871 1119.34 440.997 1125.99L551.193 1360.41C553.996 1366.37 559.015 1371.01 565.182 1373.33L791.112 1458.35C799.062 1461.34 807.982 1460.15 814.863 1455.17L982.865 1333.57C989.746 1328.59 993.669 1320.49 993.311 1312L983.137 1070.82C982.859 1064.23 980.025 1058.02 975.236 1053.49L786.983 875.569C781.643 870.523 774.373 868.046 767.063 868.782L549.975 890.663C540.935 891.574 533.077 897.261 529.387 905.564Z" stroke="url(#paint50_linear_279_33942)"/>
<path opacity="0.753623" d="M523.055 898.939L424.472 1091.03C421.109 1097.58 420.768 1105.27 423.538 1112.1L519.266 1347.96C521.762 1354.11 526.573 1359.04 532.663 1361.67L750.942 1456.15C758.705 1459.51 767.635 1458.77 774.738 1454.17L947.476 1342.44C954.579 1337.84 958.917 1330 959.035 1321.54L962.369 1083.72C962.462 1077.08 959.944 1070.68 955.359 1065.88L779.485 881.856C774.396 876.532 767.239 873.688 759.883 874.069L544.262 885.221C535.253 885.687 527.174 890.913 523.055 898.939Z" stroke="url(#paint51_linear_279_33942)"/>
<path opacity="0.768116" d="M516.798 893.309L408.765 1077.62C405.031 1083.99 404.265 1091.67 406.67 1098.65L488.087 1335.1C490.264 1341.42 494.852 1346.62 500.85 1349.57L711.113 1452.94C718.674 1456.65 727.588 1456.37 734.892 1452.17L911.8 1350.45C919.104 1346.25 923.839 1338.7 924.43 1330.29L940.886 1096.57C941.356 1089.91 939.168 1083.32 934.801 1078.26L771.423 888.938C766.599 883.347 759.573 880.143 752.189 880.165L538.555 880.8C529.6 880.827 521.326 885.584 516.798 893.309Z" stroke="url(#paint52_linear_279_33942)"/>
<path opacity="0.782609" d="M510.522 888.668L393.582 1064.74C389.486 1070.9 388.296 1078.56 390.325 1085.68L457.64 1321.86C459.485 1328.34 463.836 1333.81 469.728 1337.07L671.649 1448.76C678.989 1452.82 687.865 1452.98 695.346 1449.18L875.856 1357.62C883.337 1353.82 888.452 1346.57 889.512 1338.25L918.665 1109.34C919.516 1102.66 917.669 1095.92 913.534 1090.61L762.721 896.776C758.175 890.933 751.298 887.374 743.903 887.036L532.757 877.389C523.879 876.984 515.439 881.265 510.522 888.668Z" stroke="url(#paint53_linear_279_33942)"/>
<path opacity="0.797101" d="M504.199 884.994L378.917 1052.41C374.47 1058.35 372.856 1065.95 374.502 1073.18L427.968 1308.29C429.473 1314.9 433.571 1320.64 439.342 1324.2L632.632 1443.64C639.736 1448.03 648.549 1448.63 656.185 1445.24L839.727 1363.92C847.363 1360.54 852.837 1353.61 854.359 1345.39L895.746 1121.99C896.982 1115.31 895.488 1108.43 891.598 1102.87L753.369 905.319C749.114 899.238 742.404 895.331 735.015 894.633L526.841 874.963C518.061 874.133 509.483 877.934 504.199 884.994Z" stroke="url(#paint54_linear_279_33942)"/>
<path opacity="0.811594" d="M497.742 882.279L364.7 1040.66C359.914 1046.36 357.878 1053.87 359.134 1061.2L399.055 1294.43C400.209 1301.17 404.04 1307.16 409.677 1311.03L594.082 1437.61C600.936 1442.32 609.664 1443.36 617.43 1440.39L803.434 1369.37C811.201 1366.41 817.016 1359.82 818.99 1351.74L872.113 1134.47C873.737 1127.83 872.604 1120.81 868.973 1115.02L743.302 914.531C739.35 908.226 732.824 903.98 725.458 902.922L520.718 873.508C512.058 872.263 503.37 875.581 497.742 882.279Z" stroke="url(#paint55_linear_279_33942)"/>
<path opacity="0.826087" d="M491.135 880.497L350.933 1029.49C345.82 1034.93 343.366 1042.34 344.224 1049.75L370.948 1280.34C371.742 1287.18 375.293 1293.41 380.78 1297.58L556.087 1430.72C562.676 1435.73 571.295 1437.19 579.169 1434.65L767.067 1373.97C774.941 1371.43 781.075 1365.2 783.492 1357.29L847.818 1146.76C849.831 1140.17 849.07 1133.04 845.71 1127.03L732.523 924.357C728.886 917.844 722.56 913.267 715.236 911.85L514.371 872.993C505.851 871.345 497.081 874.177 491.135 880.497Z" stroke="url(#paint56_linear_279_33942)"/>
<path opacity="0.84058" d="M484.299 879.627L337.551 1018.94C332.127 1024.09 329.258 1031.37 329.715 1038.84L343.632 1266.05C344.056 1272.99 347.313 1279.44 352.638 1283.9L518.668 1423.01C524.979 1428.3 533.468 1430.19 541.425 1428.07L730.653 1377.73C738.611 1375.62 745.04 1369.76 747.89 1362.04L822.855 1158.82C825.259 1152.3 824.878 1145.08 821.801 1138.85L720.981 934.753C717.668 928.047 711.559 923.15 704.292 921.376L507.723 873.396C499.363 871.356 490.54 873.703 484.299 879.627Z" stroke="url(#paint57_linear_279_33942)"/>
<path opacity="0.855072" d="M477.185 879.642L324.517 1008.99C318.796 1013.84 315.519 1020.98 315.571 1028.48L317.11 1251.62C317.158 1258.62 320.108 1265.29 325.256 1270.04L481.867 1414.52C487.889 1420.08 496.227 1422.37 504.243 1420.69L694.242 1380.66C702.258 1378.97 708.961 1373.5 712.23 1365.99L797.242 1170.61C800.037 1164.19 800.044 1156.89 797.262 1150.46L708.646 945.666C705.668 938.783 699.791 933.576 692.6 931.449L500.723 874.683C492.543 872.263 483.694 874.127 477.185 879.642Z" stroke="url(#paint58_linear_279_33942)"/>
<path opacity="0.869565" d="M469.756 880.51L311.804 999.675C305.802 1004.2 302.124 1011.17 301.767 1018.68L291.397 1237.08C291.062 1244.14 293.692 1251.01 298.65 1256.05L445.739 1405.3C451.459 1411.1 459.625 1413.8 467.677 1412.54L657.894 1382.76C665.946 1381.5 672.898 1376.44 676.571 1369.17L771.014 1182.1C774.197 1175.8 774.6 1168.45 772.125 1161.83L695.51 957.042C692.875 950 687.245 944.494 680.147 942.017L493.335 876.819C485.352 874.033 476.505 875.417 469.756 880.51Z" stroke="url(#paint59_linear_279_33942)"/>
<path opacity="0.884058" d="M461.942 882.207L299.349 990.996C293.084 995.188 289.013 1001.96 288.247 1009.46L266.471 1222.5C265.746 1229.59 268.044 1236.65 272.799 1241.96L410.295 1395.4C415.705 1401.43 423.679 1404.51 431.742 1403.68L621.634 1384.07C629.697 1383.24 636.873 1378.59 640.934 1371.58L744.168 1193.28C747.738 1187.11 748.544 1179.72 746.385 1172.93L681.527 968.837C679.244 961.652 673.876 955.86 666.886 953.037L485.491 879.775C477.723 876.638 468.905 877.548 461.942 882.207Z" stroke="url(#paint60_linear_279_33942)"/>
<path opacity="0.898551" d="M453.728 884.695L287.142 982.956C280.632 986.796 276.179 993.345 275.002 1000.81L242.356 1207.9C241.236 1215.01 243.19 1222.25 247.73 1227.82L375.599 1384.86C380.689 1391.11 388.451 1394.57 396.502 1394.16L585.536 1384.59C593.586 1384.19 600.96 1379.97 605.393 1373.24L716.758 1204.09C720.712 1198.09 721.924 1190.68 720.094 1183.73L666.711 980.992C664.786 973.682 659.695 967.616 652.83 964.452L477.176 883.508C469.639 880.035 460.877 880.478 453.728 884.695Z" stroke="url(#paint61_linear_279_33942)"/>
<path opacity="0.913043" d="M445.051 887.936L275.122 975.557C268.386 979.03 263.561 985.34 261.975 992.751L219.024 1193.35C217.505 1200.44 219.104 1207.85 223.415 1213.68L341.658 1373.75C346.42 1380.19 353.953 1384 361.967 1384.02L549.62 1384.36C557.634 1384.37 565.181 1380.59 569.966 1374.16L688.786 1214.52C693.118 1208.7 694.743 1201.3 693.25 1194.2L651.024 993.453C649.464 986.036 644.662 979.709 637.938 976.212L468.327 887.978C461.035 884.185 452.356 884.169 445.051 887.936Z" stroke="url(#paint62_linear_279_33942)"/>
<path opacity="0.927536" d="M435.883 891.894L263.263 968.802C256.322 971.894 251.138 977.943 249.143 985.275L196.481 1178.87C194.559 1185.94 195.792 1193.49 199.862 1199.58L308.511 1362.11C312.939 1368.73 320.225 1372.88 328.18 1373.31L513.943 1383.38C521.897 1383.81 529.59 1380.47 534.707 1374.37L660.291 1224.54C664.995 1218.93 667.038 1211.56 665.891 1204.32L634.469 1006.17C633.279 998.661 628.779 992.088 622.213 988.263L458.92 893.143C451.888 889.047 443.316 888.583 435.883 891.894Z" stroke="url(#paint63_linear_279_33942)"/>
<path opacity="0.942029" d="M426.178 896.53L251.515 962.69C244.389 965.389 238.859 971.155 236.46 978.387L174.704 1164.53C172.376 1171.55 173.233 1179.23 177.05 1185.56L276.17 1349.99C280.257 1356.77 287.281 1361.25 295.153 1362.09L478.532 1381.7C486.403 1382.54 494.215 1379.65 499.643 1373.89L631.289 1234.14C636.358 1228.75 638.821 1221.43 638.029 1214.07L617.027 1019.08C616.212 1011.5 612.026 1004.7 605.632 1000.56L448.907 898.961C442.149 894.58 433.709 893.677 426.178 896.53Z" stroke="url(#paint64_linear_279_33942)"/>
<path opacity="0.956522" d="M415.914 901.795L239.853 957.211C232.565 959.505 226.704 964.968 223.904 972.077L153.692 1150.35C150.956 1157.3 151.427 1165.1 154.98 1171.67L244.668 1337.46C248.41 1344.38 255.156 1349.16 262.922 1350.4L443.437 1379.33C451.203 1380.57 459.106 1378.14 464.822 1372.73L601.82 1243.27C607.247 1238.14 610.132 1230.88 609.703 1223.42L598.708 1032.13C598.27 1024.51 594.409 1017.48 588.203 1013.03L438.271 905.378C431.798 900.73 423.514 899.403 415.914 901.795Z" stroke="url(#paint65_linear_279_33942)"/>
<path opacity="0.971014" d="M405.061 907.654L228.239 952.367C220.813 954.245 214.637 959.386 211.442 966.349L133.43 1136.39C130.285 1143.25 130.361 1151.15 133.638 1157.94L214.018 1324.57C217.413 1331.6 223.867 1336.68 231.505 1338.32L408.693 1376.31C416.332 1377.95 424.299 1375.97 430.28 1370.94L571.915 1251.92C577.689 1247.07 580.998 1239.9 580.94 1232.36L579.51 1045.28C579.451 1037.62 575.926 1030.4 569.923 1025.64L426.983 912.355C420.806 907.46 412.701 905.722 405.061 907.654Z" stroke="url(#paint66_linear_279_33942)"/>
<path opacity="0.985507" d="M393.585 914.055L216.633 948.145C209.091 949.597 202.617 954.397 199.035 961.192L113.893 1122.68C110.339 1129.42 110.012 1137.41 113.002 1144.41L184.23 1311.37C187.274 1318.51 193.422 1323.85 200.912 1325.87L374.329 1372.67C381.818 1374.7 389.821 1373.17 396.042 1368.53L541.597 1260.09C547.707 1255.53 551.441 1248.47 551.761 1240.86L559.429 1058.46C559.752 1050.78 556.572 1043.38 550.785 1038.33L415.011 919.838C409.14 914.714 401.236 912.581 393.585 914.055Z" stroke="url(#paint67_linear_279_33942)"/>
<path d="M381.45 920.954L204.987 944.534C197.353 945.554 190.6 949.994 186.638 956.598L95.0499 1109.26C91.0879 1115.87 90.3489 1123.92 93.0419 1131.13L155.297 1297.92C157.99 1305.14 163.822 1310.74 171.142 1313.13L340.361 1368.45C347.681 1370.84 355.692 1369.77 362.127 1365.54L510.885 1267.73C517.32 1263.5 521.478 1256.57 522.182 1248.9L538.46 1071.61C539.165 1063.95 536.338 1056.37 530.781 1051.04L402.323 927.778C396.766 922.446 389.084 919.934 381.45 920.954Z" stroke="url(#paint68_linear_279_33942)"/>
<defs>
<linearGradient id="paint0_linear_279_33942" x1="1913.07" y1="1780.44" x2="1788.41" y2="573.47" gradientUnits="userSpaceOnUse">
<stop stop-color="#FF1CF7"/>
<stop offset="1" stop-color="#00F0FF"/>
</linearGradient>
<linearGradient id="paint1_linear_279_33942" x1="1859.75" y1="1776.78" x2="1798.97" y2="575.64" gradientUnits="userSpaceOnUse">
<stop stop-color="#FF1CF7"/>
<stop offset="1" stop-color="#00F0FF"/>
</linearGradient>
<linearGradient id="paint2_linear_279_33942" x1="1806.9" y1="1771.51" x2="1809.05" y2="579.544" gradientUnits="userSpaceOnUse">
<stop stop-color="#FF1CF7"/>
<stop offset="1" stop-color="#00F0FF"/>
</linearGradient>
<linearGradient id="paint3_linear_279_33942" x1="1754.59" y1="1764.67" x2="1818.54" y2="585.139" gradientUnits="userSpaceOnUse">
<stop stop-color="#FF1CF7"/>
<stop offset="1" stop-color="#00F0FF"/>
</linearGradient>
<linearGradient id="paint4_linear_279_33942" x1="1702.91" y1="1756.3" x2="1827.36" y2="592.382" gradientUnits="userSpaceOnUse">
<stop stop-color="#FF1CF7"/>
<stop offset="1" stop-color="#00F0FF"/>
</linearGradient>
<linearGradient id="paint5_linear_279_33942" x1="1651.91" y1="1746.45" x2="1835.42" y2="601.212" gradientUnits="userSpaceOnUse">
<stop stop-color="#FF1CF7"/>
<stop offset="1" stop-color="#00F0FF"/>
</linearGradient>
<linearGradient id="paint6_linear_279_33942" x1="1601.69" y1="1735.17" x2="1842.64" y2="611.576" gradientUnits="userSpaceOnUse">
<stop stop-color="#FF1CF7"/>
<stop offset="1" stop-color="#00F0FF"/>
</linearGradient>
<linearGradient id="paint7_linear_279_33942" x1="1552.34" y1="1722.51" x2="1848.97" y2="623.415" gradientUnits="userSpaceOnUse">
<stop stop-color="#FF1CF7"/>
<stop offset="1" stop-color="#00F0FF"/>
</linearGradient>
<linearGradient id="paint8_linear_279_33942" x1="1503.89" y1="1708.55" x2="1854.31" y2="636.663" gradientUnits="userSpaceOnUse">
<stop stop-color="#FF1CF7"/>
<stop offset="1" stop-color="#00F0FF"/>
</linearGradient>
<linearGradient id="paint9_linear_279_33942" x1="1456.42" y1="1693.34" x2="1858.6" y2="651.25" gradientUnits="userSpaceOnUse">
<stop stop-color="#FF1CF7"/>
<stop offset="1" stop-color="#00F0FF"/>
</linearGradient>
<linearGradient id="paint10_linear_279_33942" x1="1409.97" y1="1676.95" x2="1861.77" y2="667.11" gradientUnits="userSpaceOnUse">
<stop stop-color="#FF1CF7"/>
<stop offset="1" stop-color="#00F0FF"/>
</linearGradient>
<linearGradient id="paint11_linear_279_33942" x1="1364.63" y1="1659.44" x2="1863.77" y2="684.166" gradientUnits="userSpaceOnUse">
<stop stop-color="#FF1CF7"/>
<stop offset="1" stop-color="#00F0FF"/>
</linearGradient>
<linearGradient id="paint12_linear_279_33942" x1="1320.42" y1="1640.9" x2="1864.55" y2="702.345" gradientUnits="userSpaceOnUse">
<stop stop-color="#FF1CF7"/>
<stop offset="1" stop-color="#00F0FF"/>
</linearGradient>
<linearGradient id="paint13_linear_279_33942" x1="1277.4" y1="1621.38" x2="1864.05" y2="721.562" gradientUnits="userSpaceOnUse">
<stop stop-color="#FF1CF7"/>
<stop offset="1" stop-color="#00F0FF"/>
</linearGradient>
<linearGradient id="paint14_linear_279_33942" x1="1235.61" y1="1600.97" x2="1862.24" y2="741.743" gradientUnits="userSpaceOnUse">
<stop stop-color="#FF1CF7"/>
<stop offset="1" stop-color="#00F0FF"/>
</linearGradient>
<linearGradient id="paint15_linear_279_33942" x1="1195.06" y1="1579.74" x2="1859.05" y2="762.801" gradientUnits="userSpaceOnUse">
<stop stop-color="#FF1CF7"/>
<stop offset="1" stop-color="#00F0FF"/>
</linearGradient>
<linearGradient id="paint16_linear_279_33942" x1="1155.84" y1="1557.78" x2="1854.5" y2="784.652" gradientUnits="userSpaceOnUse">
<stop stop-color="#FF1CF7"/>
<stop offset="1" stop-color="#00F0FF"/>
</linearGradient>
<linearGradient id="paint17_linear_279_33942" x1="1117.92" y1="1535.15" x2="1848.5" y2="807.211" gradientUnits="userSpaceOnUse">
<stop stop-color="#FF1CF7"/>
<stop offset="1" stop-color="#00F0FF"/>
</linearGradient>
<linearGradient id="paint18_linear_279_33942" x1="1081.37" y1="1511.95" x2="1841.07" y2="830.391" gradientUnits="userSpaceOnUse">
<stop stop-color="#FF1CF7"/>
<stop offset="1" stop-color="#00F0FF"/>
</linearGradient>
<linearGradient id="paint19_linear_279_33942" x1="1046.16" y1="1488.25" x2="1832.16" y2="854.11" gradientUnits="userSpaceOnUse">
<stop stop-color="#FF1CF7"/>
<stop offset="1" stop-color="#00F0FF"/>
</linearGradient>
<linearGradient id="paint20_linear_279_33942" x1="1012.34" y1="1464.13" x2="1821.76" y2="878.275" gradientUnits="userSpaceOnUse">
<stop stop-color="#FF1CF7"/>
<stop offset="1" stop-color="#00F0FF"/>
</linearGradient>
<linearGradient id="paint21_linear_279_33942" x1="979.897" y1="1439.68" x2="1809.89" y2="902.804" gradientUnits="userSpaceOnUse">
<stop stop-color="#FF1CF7"/>
<stop offset="1" stop-color="#00F0FF"/>
</linearGradient>
<linearGradient id="paint22_linear_279_33942" x1="948.853" y1="1414.97" x2="1796.52" y2="927.605" gradientUnits="userSpaceOnUse">
<stop stop-color="#FF1CF7"/>
<stop offset="1" stop-color="#00F0FF"/>
</linearGradient>
<linearGradient id="paint23_linear_279_33942" x1="919.2" y1="1390.08" x2="1781.66" y2="952.595" gradientUnits="userSpaceOnUse">
<stop stop-color="#FF1CF7"/>
<stop offset="1" stop-color="#00F0FF"/>
</linearGradient>
<linearGradient id="paint24_linear_279_33942" x1="890.922" y1="1365.1" x2="1765.3" y2="977.688" gradientUnits="userSpaceOnUse">
<stop stop-color="#FF1CF7"/>
<stop offset="1" stop-color="#00F0FF"/>
</linearGradient>
<linearGradient id="paint25_linear_279_33942" x1="864.024" y1="1340.1" x2="1747.48" y2="1002.8" gradientUnits="userSpaceOnUse">
<stop stop-color="#FF1CF7"/>
<stop offset="1" stop-color="#00F0FF"/>
</linearGradient>
<linearGradient id="paint26_linear_279_33942" x1="838.484" y1="1315.16" x2="1728.19" y2="1027.85" gradientUnits="userSpaceOnUse">
<stop stop-color="#FF1CF7"/>
<stop offset="1" stop-color="#00F0FF"/>
</linearGradient>
<linearGradient id="paint27_linear_279_33942" x1="814.279" y1="1290.36" x2="1707.45" y2="1052.76" gradientUnits="userSpaceOnUse">
<stop stop-color="#FF1CF7"/>
<stop offset="1" stop-color="#00F0FF"/>
</linearGradient>
<linearGradient id="paint28_linear_279_33942" x1="791.397" y1="1265.76" x2="1685.3" y2="1077.44" gradientUnits="userSpaceOnUse">
<stop stop-color="#FF1CF7"/>
<stop offset="1" stop-color="#00F0FF"/>
</linearGradient>
<linearGradient id="paint29_linear_279_33942" x1="769.813" y1="1241.44" x2="1661.77" y2="1101.82" gradientUnits="userSpaceOnUse">
<stop stop-color="#FF1CF7"/>
<stop offset="1" stop-color="#00F0FF"/>
</linearGradient>
<linearGradient id="paint30_linear_279_33942" x1="749.48" y1="1217.47" x2="1636.86" y2="1125.82" gradientUnits="userSpaceOnUse">
<stop stop-color="#FF1CF7"/>
<stop offset="1" stop-color="#00F0FF"/>
</linearGradient>
<linearGradient id="paint31_linear_279_33942" x1="730.38" y1="1193.92" x2="1610.65" y2="1149.38" gradientUnits="userSpaceOnUse">
<stop stop-color="#FF1CF7"/>
<stop offset="1" stop-color="#00F0FF"/>
</linearGradient>
<linearGradient id="paint32_linear_279_33942" x1="712.473" y1="1170.85" x2="1583.16" y2="1172.42" gradientUnits="userSpaceOnUse">
<stop stop-color="#FF1CF7"/>
<stop offset="1" stop-color="#00F0FF"/>
</linearGradient>
<linearGradient id="paint33_linear_279_33942" x1="695.714" y1="1148.32" x2="1554.43" y2="1194.88" gradientUnits="userSpaceOnUse">
<stop stop-color="#FF1CF7"/>
<stop offset="1" stop-color="#00F0FF"/>
</linearGradient>
<linearGradient id="paint34_linear_279_33942" x1="680.061" y1="1126.39" x2="1524.51" y2="1216.69" gradientUnits="userSpaceOnUse">
<stop stop-color="#FF1CF7"/>
<stop offset="1" stop-color="#00F0FF"/>
</linearGradient>
<linearGradient id="paint35_linear_279_33942" x1="665.466" y1="1105.12" x2="1493.46" y2="1237.79" gradientUnits="userSpaceOnUse">
<stop stop-color="#FF1CF7"/>
<stop offset="1" stop-color="#00F0FF"/>
</linearGradient>
<linearGradient id="paint36_linear_279_33942" x1="651.873" y1="1084.56" x2="1461.32" y2="1258.14" gradientUnits="userSpaceOnUse">
<stop stop-color="#FF1CF7"/>
<stop offset="1" stop-color="#00F0FF"/>
</linearGradient>
<linearGradient id="paint37_linear_279_33942" x1="639.236" y1="1064.75" x2="1428.15" y2="1277.66" gradientUnits="userSpaceOnUse">
<stop stop-color="#FF1CF7"/>
<stop offset="1" stop-color="#00F0FF"/>
</linearGradient>
<linearGradient id="paint38_linear_279_33942" x1="627.511" y1="1045.75" x2="1394.02" y2="1296.33" gradientUnits="userSpaceOnUse">
<stop stop-color="#FF1CF7"/>
<stop offset="1" stop-color="#00F0FF"/>
</linearGradient>
<linearGradient id="paint39_linear_279_33942" x1="616.624" y1="1027.59" x2="1358.98" y2="1314.09" gradientUnits="userSpaceOnUse">
<stop stop-color="#FF1CF7"/>
<stop offset="1" stop-color="#00F0FF"/>
</linearGradient>
<linearGradient id="paint40_linear_279_33942" x1="606.521" y1="1010.31" x2="1323.09" y2="1330.9" gradientUnits="userSpaceOnUse">
<stop stop-color="#FF1CF7"/>
<stop offset="1" stop-color="#00F0FF"/>
</linearGradient>
<linearGradient id="paint41_linear_279_33942" x1="597.139" y1="993.956" x2="1286.41" y2="1346.72" gradientUnits="userSpaceOnUse">
<stop stop-color="#FF1CF7"/>
<stop offset="1" stop-color="#00F0FF"/>
</linearGradient>
<linearGradient id="paint42_linear_279_33942" x1="588.432" y1="978.541" x2="1249.03" y2="1361.53" gradientUnits="userSpaceOnUse">
<stop stop-color="#FF1CF7"/>
<stop offset="1" stop-color="#00F0FF"/>
</linearGradient>
<linearGradient id="paint43_linear_279_33942" x1="580.323" y1="964.103" x2="1211" y2="1375.29" gradientUnits="userSpaceOnUse">
<stop stop-color="#FF1CF7"/>
<stop offset="1" stop-color="#00F0FF"/>
</linearGradient>
<linearGradient id="paint44_linear_279_33942" x1="572.756" y1="950.662" x2="1172.4" y2="1387.98" gradientUnits="userSpaceOnUse">
<stop stop-color="#FF1CF7"/>
<stop offset="1" stop-color="#00F0FF"/>
</linearGradient>
<linearGradient id="paint45_linear_279_33942" x1="565.663" y1="938.232" x2="1133.28" y2="1399.58" gradientUnits="userSpaceOnUse">
<stop stop-color="#FF1CF7"/>
<stop offset="1" stop-color="#00F0FF"/>
</linearGradient>
<linearGradient id="paint46_linear_279_33942" x1="558.971" y1="926.831" x2="1093.72" y2="1410.07" gradientUnits="userSpaceOnUse">
<stop stop-color="#FF1CF7"/>
<stop offset="1" stop-color="#00F0FF"/>
</linearGradient>
<linearGradient id="paint47_linear_279_33942" x1="552.626" y1="916.47" x2="1053.79" y2="1419.45" gradientUnits="userSpaceOnUse">
<stop stop-color="#FF1CF7"/>
<stop offset="1" stop-color="#00F0FF"/>
</linearGradient>
<linearGradient id="paint48_linear_279_33942" x1="546.564" y1="907.155" x2="1013.57" y2="1427.7" gradientUnits="userSpaceOnUse">
<stop stop-color="#FF1CF7"/>
<stop offset="1" stop-color="#00F0FF"/>
</linearGradient>
<linearGradient id="paint49_linear_279_33942" x1="540.706" y1="898.889" x2="973.105" y2="1434.83" gradientUnits="userSpaceOnUse">
<stop stop-color="#FF1CF7"/>
<stop offset="1" stop-color="#00F0FF"/>
</linearGradient>
<linearGradient id="paint50_linear_279_33942" x1="535.016" y1="891.668" x2="932.494" y2="1440.83" gradientUnits="userSpaceOnUse">
<stop stop-color="#FF1CF7"/>
<stop offset="1" stop-color="#00F0FF"/>
</linearGradient>
<linearGradient id="paint51_linear_279_33942" x1="529.396" y1="885.49" x2="891.771" y2="1445.71" gradientUnits="userSpaceOnUse">
<stop stop-color="#FF1CF7"/>
<stop offset="1" stop-color="#00F0FF"/>
</linearGradient>
<linearGradient id="paint52_linear_279_33942" x1="523.818" y1="880.344" x2="851.039" y2="1449.48" gradientUnits="userSpaceOnUse">
<stop stop-color="#FF1CF7"/>
<stop offset="1" stop-color="#00F0FF"/>
</linearGradient>
<linearGradient id="paint53_linear_279_33942" x1="518.187" y1="876.223" x2="810.329" y2="1452.15" gradientUnits="userSpaceOnUse">
<stop stop-color="#FF1CF7"/>
<stop offset="1" stop-color="#00F0FF"/>
</linearGradient>
<linearGradient id="paint54_linear_279_33942" x1="512.474" y1="873.103" x2="769.735" y2="1453.74" gradientUnits="userSpaceOnUse">
<stop stop-color="#FF1CF7"/>
<stop offset="1" stop-color="#00F0FF"/>
</linearGradient>
<linearGradient id="paint55_linear_279_33942" x1="506.588" y1="870.972" x2="729.289" y2="1454.27" gradientUnits="userSpaceOnUse">
<stop stop-color="#FF1CF7"/>
<stop offset="1" stop-color="#00F0FF"/>
</linearGradient>
<linearGradient id="paint56_linear_279_33942" x1="500.511" y1="869.803" x2="689.088" y2="1453.77" gradientUnits="userSpaceOnUse">
<stop stop-color="#FF1CF7"/>
<stop offset="1" stop-color="#00F0FF"/>
</linearGradient>
<linearGradient id="paint57_linear_279_33942" x1="494.165" y1="869.572" x2="649.168" y2="1452.25" gradientUnits="userSpaceOnUse">
<stop stop-color="#FF1CF7"/>
<stop offset="1" stop-color="#00F0FF"/>
</linearGradient>
<linearGradient id="paint58_linear_279_33942" x1="487.497" y1="870.249" x2="609.585" y2="1449.77" gradientUnits="userSpaceOnUse">
<stop stop-color="#FF1CF7"/>
<stop offset="1" stop-color="#00F0FF"/>
</linearGradient>
<linearGradient id="paint59_linear_279_33942" x1="480.471" y1="871.799" x2="570.406" y2="1446.33" gradientUnits="userSpaceOnUse">
<stop stop-color="#FF1CF7"/>
<stop offset="1" stop-color="#00F0FF"/>
</linearGradient>
<linearGradient id="paint60_linear_279_33942" x1="473.015" y1="874.197" x2="531.657" y2="1441.99" gradientUnits="userSpaceOnUse">
<stop stop-color="#FF1CF7"/>
<stop offset="1" stop-color="#00F0FF"/>
</linearGradient>
<linearGradient id="paint61_linear_279_33942" x1="465.113" y1="877.399" x2="493.418" y2="1436.79" gradientUnits="userSpaceOnUse">
<stop stop-color="#FF1CF7"/>
<stop offset="1" stop-color="#00F0FF"/>
</linearGradient>
<linearGradient id="paint62_linear_279_33942" x1="456.701" y1="881.366" x2="455.71" y2="1430.76" gradientUnits="userSpaceOnUse">
<stop stop-color="#FF1CF7"/>
<stop offset="1" stop-color="#00F0FF"/>
</linearGradient>
<linearGradient id="paint63_linear_279_33942" x1="447.752" y1="886.059" x2="418.588" y2="1423.96" gradientUnits="userSpaceOnUse">
<stop stop-color="#FF1CF7"/>
<stop offset="1" stop-color="#00F0FF"/>
</linearGradient>
<linearGradient id="paint64_linear_279_33942" x1="438.217" y1="891.435" x2="382.081" y2="1416.42" gradientUnits="userSpaceOnUse">
<stop stop-color="#FF1CF7"/>
<stop offset="1" stop-color="#00F0FF"/>
</linearGradient>
<linearGradient id="paint65_linear_279_33942" x1="428.077" y1="897.443" x2="346.236" y2="1408.2" gradientUnits="userSpaceOnUse">
<stop stop-color="#FF1CF7"/>
<stop offset="1" stop-color="#00F0FF"/>
</linearGradient>
<linearGradient id="paint66_linear_279_33942" x1="417.3" y1="904.043" x2="311.086" y2="1399.34" gradientUnits="userSpaceOnUse">
<stop stop-color="#FF1CF7"/>
<stop offset="1" stop-color="#00F0FF"/>
</linearGradient>
<linearGradient id="paint67_linear_279_33942" x1="405.854" y1="911.183" x2="276.654" y2="1389.91" gradientUnits="userSpaceOnUse">
<stop stop-color="#FF1CF7"/>
<stop offset="1" stop-color="#00F0FF"/>
</linearGradient>
<linearGradient id="paint68_linear_279_33942" x1="393.702" y1="918.813" x2="242.953" y2="1379.94" gradientUnits="userSpaceOnUse">
<stop stop-color="#FF1CF7"/>
<stop offset="1" stop-color="#00F0FF"/>
</linearGradient>
</defs>
</svg>
