<svg width="48" height="48" viewBox="0 0 48 48" fill="none" xmlns="http://www.w3.org/2000/svg">
<g clip-path="url(#clip0_264_25169)">
<path d="M29.2148 14.1273C28.09 14.1273 27.1516 14.9379 26.9516 16.0054L19.5628 19.0745H16.8844C15.7112 19.0745 14.7568 19.9787 14.7568 21.0902V24.5577C14.7568 25.3899 15.292 26.1059 16.0533 26.4132V30.939C16.0533 32.1396 17.03 33.1163 18.2306 33.1163C19.4311 33.1163 20.4078 32.1396 20.4078 30.939V26.9244L26.9516 29.6425C27.1516 30.71 28.0901 31.5207 29.2148 31.5207C30.4848 31.5207 31.518 30.4874 31.518 29.2174V26.6228C33.214 26.1828 34.4651 24.625 34.4651 22.8239C34.4651 21.0228 33.214 19.4651 31.518 19.0252V16.4305C31.518 15.1604 30.4848 14.1273 29.2148 14.1273ZM20.4078 20.2493L26.9116 17.5478V28.1003L20.4078 25.3987V20.2493ZM16.1658 21.0902C16.1658 20.7557 16.4881 20.4835 16.8843 20.4835H18.9987V25.1643H16.8844C16.4882 25.1643 16.1659 24.8922 16.1659 24.5576V21.0902H16.1658ZM18.2306 31.7073C17.8069 31.7073 17.4623 31.3627 17.4623 30.939V26.5734H18.9987V30.939C18.9988 31.3627 18.6541 31.7073 18.2306 31.7073ZM30.109 29.2175C30.109 29.7105 29.7078 30.1117 29.2148 30.1117C28.7217 30.1117 28.3206 29.7105 28.3206 29.2175V16.4305C28.3206 15.9374 28.7217 15.5363 29.2148 15.5363C29.7078 15.5363 30.109 15.9374 30.109 16.4305V29.2175ZM33.0561 22.8239C33.0561 23.8503 32.4223 24.7535 31.518 25.1394V20.5086C32.4222 20.8944 33.0561 21.7975 33.0561 22.8239Z" fill="url(#paint0_linear_264_25169)"/>
<path d="M41.5377 36.0461C40.3085 36.0461 39.1418 36.4486 38.1853 37.1889L34.9917 33.9953C37.3952 31.3553 38.6761 28.0518 38.8336 24.7044H41.3932C41.7176 26.2094 43.0583 27.341 44.6589 27.341C46.5012 27.3411 48 25.8423 48 24C48 22.1577 46.5012 20.6589 44.6589 20.6589C43.0583 20.6589 41.7177 21.7905 41.3932 23.2955H38.8336C38.6761 19.9482 37.3952 16.6448 34.9917 14.0046L38.1853 10.811C39.1369 11.5474 40.2972 11.9498 41.5196 11.9538H41.5221C41.91 11.9538 42.2252 11.6399 42.2265 11.2516C42.2278 10.8625 41.9134 10.5461 41.5243 10.5448C40.439 10.5412 39.4185 10.1167 38.651 9.34912C37.0593 7.75734 37.0593 5.16731 38.651 3.57553C39.4221 2.80444 40.4472 2.37984 41.5378 2.37984C42.6283 2.37984 43.6535 2.80444 44.4246 3.57553C45.1958 4.34662 45.6203 5.37178 45.6203 6.46228C45.6203 7.55278 45.1958 8.57794 44.4246 9.34912C44.2439 9.52978 44.0467 9.69356 43.8382 9.83606C43.517 10.0555 43.4346 10.494 43.654 10.8152C43.8735 11.1363 44.3119 11.2189 44.6332 10.9993C44.9137 10.8076 45.1788 10.5876 45.4209 10.3453C46.4582 9.30806 47.0293 7.929 47.0293 6.46219C47.0293 4.99538 46.4581 3.61631 45.4209 2.57916C44.3838 1.542 43.0047 0.970781 41.5378 0.970781C40.0709 0.970781 38.6919 1.542 37.6546 2.57916C35.6825 4.55137 35.5284 7.66209 37.1895 9.81413L33.9955 13.0082C31.3553 10.6047 28.052 9.32381 24.7046 9.16631V6.60675C26.2096 6.28237 27.3412 4.94166 27.3412 3.34106C27.3411 1.49878 25.8423 0 24 0C22.1577 0 20.6589 1.49878 20.6589 3.34106C20.6589 4.94166 21.7905 6.28237 23.2955 6.60675V9.16641C19.9482 9.32391 16.6448 10.6048 14.0046 13.0083L10.8105 9.81422C12.4716 7.66219 12.3175 4.55147 10.3454 2.57925C9.30825 1.54209 7.92919 0.970875 6.46237 0.970875C4.99556 0.970875 3.6165 1.54209 2.57925 2.57925C1.542 3.61641 0.970781 4.99556 0.970781 6.46237C0.970781 7.92919 1.542 9.30825 2.57916 10.3455C3.61631 11.3827 4.99538 11.9539 6.46228 11.9539C7.69153 11.9539 8.85825 11.5514 9.81469 10.8111L13.0092 14.0057C12.2264 14.8655 11.5473 15.8087 10.9886 16.8202C10.8006 17.1607 10.9241 17.5893 11.2647 17.7774C11.6052 17.9656 12.0338 17.8419 12.222 17.5014C12.8295 16.4015 13.5928 15.3885 14.4907 14.4907C19.7339 9.24731 28.2658 9.24722 33.5093 14.4907C38.7528 19.7342 38.7528 28.2658 33.5093 33.5093C28.2658 38.7527 19.7341 38.7527 14.4907 33.5093C10.9342 29.9529 9.66197 24.7602 11.1706 19.9576C11.2872 19.5864 11.0808 19.1909 10.7096 19.0744C10.3378 18.9578 9.94294 19.1643 9.82631 19.5353C9.43697 20.7747 9.2175 22.0376 9.15647 23.2956H6.60675C6.28237 21.7906 4.94166 20.659 3.34106 20.659C1.49878 20.6589 0 22.1577 0 24C0 25.8423 1.49878 27.3411 3.34106 27.3411C4.94166 27.3411 6.28228 26.2095 6.60675 24.7045H9.15487C9.31378 28.1104 10.6457 31.3988 13.0093 33.9944L9.81478 37.1889C8.85834 36.4486 7.69163 36.0461 6.46237 36.0461C4.99547 36.0461 3.6165 36.6173 2.57925 37.6546C1.542 38.6918 0.970875 40.0708 0.970875 41.5376C0.970875 43.0044 1.54209 44.3835 2.57925 45.4207C3.61641 46.458 4.99556 47.0291 6.46237 47.0291C6.85153 47.0291 7.16691 46.7137 7.16691 46.3246C7.16691 45.9355 6.85153 45.6201 6.46237 45.6201C5.37187 45.6201 4.34662 45.1954 3.57562 44.4244C2.80444 43.6533 2.37984 42.6281 2.37984 41.5375C2.37984 40.447 2.80444 39.4219 3.57562 38.6508C4.34662 37.8797 5.37187 37.4551 6.46237 37.4551C7.55288 37.4551 8.57803 37.8797 9.34922 38.6508C10.9409 40.2426 10.9409 42.8326 9.34931 44.4243C9.153 44.6205 8.93738 44.7967 8.70825 44.948C8.3835 45.1624 8.29406 45.5993 8.50847 45.924C8.72278 46.2487 9.15984 46.3382 9.4845 46.1239C9.79256 45.9205 10.0822 45.6839 10.3456 45.4207C12.3177 43.4483 12.4718 40.3376 10.8107 38.1857L14.0048 34.9916C16.6449 37.3951 19.9484 38.676 23.2957 38.8335V41.3932C21.7907 41.7175 20.6591 43.0583 20.6591 44.6588C20.6589 46.5012 22.1577 48 24 48C25.8423 48 27.3411 46.5012 27.3411 44.6589C27.3411 43.0583 26.2095 41.7176 24.7045 41.3932V38.8336C28.0518 38.6761 31.3553 37.3952 33.9954 34.9917L37.1894 38.1858C35.5283 40.3378 35.6824 43.4485 37.6545 45.4207C38.6918 46.458 40.0708 47.0291 41.5377 47.0291C43.0046 47.0291 44.3836 46.4579 45.4208 45.4207C46.4581 44.3836 47.0292 43.0045 47.0292 41.5377C47.0292 40.0709 46.458 38.6918 45.4208 37.6546C44.3837 36.6173 43.0045 36.0461 41.5377 36.0461ZM22.0679 3.34106C22.0679 2.27569 22.9346 1.40897 24 1.40897C25.0654 1.40897 25.9321 2.27569 25.9321 3.34106C25.9321 4.40644 25.0654 5.27316 24 5.27316C22.9346 5.27316 22.0679 4.40644 22.0679 3.34106ZM3.57562 9.34912C2.80444 8.57803 2.37984 7.55288 2.37984 6.46228C2.37984 5.37178 2.80444 4.34662 3.57562 3.57553C4.34662 2.80444 5.37187 2.37984 6.46237 2.37984C7.55288 2.37984 8.57803 2.80444 9.34922 3.57553C10.9409 5.16731 10.9409 7.75734 9.34922 9.34912C8.57812 10.1202 7.55297 10.5448 6.46237 10.5448C5.37178 10.5448 4.34662 10.1202 3.57562 9.34912ZM44.6589 22.0679C45.7243 22.0679 46.591 22.9346 46.591 24C46.591 25.0654 45.7243 25.9321 44.6589 25.9321C43.5936 25.9321 42.7268 25.0654 42.7268 24C42.7268 22.9346 43.5936 22.0679 44.6589 22.0679ZM3.34106 25.9321C2.27569 25.9321 1.40897 25.0654 1.40897 24C1.40897 22.9346 2.27569 22.0679 3.34106 22.0679C4.40644 22.0679 5.27316 22.9347 5.27316 24C5.27316 25.0653 4.40644 25.9321 3.34106 25.9321ZM25.9321 44.6589C25.9321 45.7242 25.0654 46.591 24 46.591C22.9346 46.591 22.0679 45.7243 22.0679 44.6589C22.0679 43.5936 22.9346 42.7268 24 42.7268C25.0654 42.7268 25.9321 43.5936 25.9321 44.6589ZM44.4244 44.4245C43.6534 45.1956 42.6281 45.6202 41.5376 45.6202C40.4471 45.6202 39.4219 45.1956 38.6508 44.4245C37.0591 42.8327 37.0591 40.2427 38.6508 38.6509C39.4219 37.8798 40.447 37.4552 41.5376 37.4552C42.6281 37.4552 43.6533 37.8798 44.4244 38.6509C45.1956 39.422 45.6202 40.4471 45.6202 41.5377C45.6203 42.6281 45.1956 43.6533 44.4244 44.4245Z" fill="url(#paint1_linear_264_25169)"/>
</g>
<defs>
<linearGradient id="paint0_linear_264_25169" x1="53.8335" y1="14.1273" x2="-44.7312" y2="28.1869" gradientUnits="userSpaceOnUse">
<stop stop-color="#05D5FF"/>
<stop offset="1" stop-color="#5533FF"/>
</linearGradient>
<linearGradient id="paint1_linear_264_25169" x1="95.1724" y1="-7.08678e-06" x2="-145.228" y2="33.04" gradientUnits="userSpaceOnUse">
<stop stop-color="#05D5FF"/>
<stop offset="1" stop-color="#5533FF"/>
</linearGradient>
<clipPath id="clip0_264_25169">
<rect width="48" height="48" fill="white"/>
</clipPath>
</defs>
</svg>
