<svg width="24" height="24" viewBox="0 0 24 24" fill="none" xmlns="http://www.w3.org/2000/svg">
<path d="M24 3.61528C23.1013 4.0315 22.148 4.30475 21.172 4.42596C22.1871 3.78792 22.968 2.77961 23.3355 1.5764C22.369 2.17628 21.3116 2.59892 20.2089 2.82605C19.2783 1.78654 17.9769 1.19773 16.6153 1.2002C13.8972 1.2002 11.6912 3.50541 11.6912 6.34905C11.6912 6.75311 11.7347 7.14692 11.8198 7.52295C7.72705 7.30787 4.09978 5.25874 1.67078 2.14285C1.24665 2.90244 1.00473 3.78792 1.00473 4.73185C1.00473 6.51753 1.87366 8.09389 3.19457 9.01748C2.4125 8.99241 1.64759 8.77152 0.964005 8.37335V8.43901C0.964005 10.9332 2.66143 13.0145 4.91281 13.4886C4.18772 13.6939 3.42747 13.724 2.6896 13.5766C3.31645 15.6227 5.13544 17.1112 7.28914 17.1544C5.60428 18.5333 3.48151 19.3581 1.17408 19.3581C0.781722 19.3576 0.389716 19.3336 0 19.286C2.17881 20.7466 4.76751 21.6002 7.54791 21.6002C16.6046 21.6002 21.5563 13.7522 21.5563 6.94641C21.5563 6.7238 21.5563 6.50119 21.541 6.28018C22.5045 5.55104 23.3366 4.64873 23.9985 3.61528H24Z" fill="white"/>
</svg>
