<svg width="16" height="16" viewBox="0 0 16 16" fill="none" xmlns="http://www.w3.org/2000/svg">
<path d="M3.00036 8.58666H3.00033C2.12551 8.58666 1.41366 7.87481 1.41366 6.99999V4.33332C1.41366 4.19384 1.52751 4.07999 1.66699 4.07999H14.3337C14.4734 4.07999 14.587 4.19379 14.587 4.33332V6.99999C14.587 7.87481 13.8751 8.58666 13.0003 8.58666V8.66666L13.0002 8.58666H12.9999H12.9988L12.9943 8.58666L12.9763 8.58666L12.9063 8.58666L12.6387 8.58668L11.6714 8.58675L8.62307 8.58691C6.33065 8.58699 3.83067 8.58699 3.00036 8.58666ZM14.3337 3.25332H11.0803V2.33332C11.0803 1.37014 10.2968 0.586656 9.33366 0.586656H6.66699C5.70381 0.586656 4.92033 1.37014 4.92033 2.33332V3.25332H1.66699C1.07148 3.25332 0.586992 3.73781 0.586992 4.33332V6.99999C0.586992 7.45421 0.715067 7.87807 0.934163 8.24092C0.926625 8.26797 0.920326 8.29921 0.920326 8.33332V13.6667C0.920326 14.6298 1.70381 15.4133 2.66699 15.4133H13.3337C14.2968 15.4133 15.0803 14.6298 15.0803 13.6667V8.33332C15.0803 8.29921 15.074 8.26797 15.0665 8.24092C15.2856 7.87806 15.4137 7.45421 15.4137 6.99999V4.33332C15.4137 3.73781 14.9292 3.25332 14.3337 3.25332ZM5.74699 2.33332C5.74699 1.82617 6.15984 1.41332 6.66699 1.41332H9.33366C9.84081 1.41332 10.2537 1.82617 10.2537 2.33332V3.25332H5.74699V2.33332ZM14.2537 13.6667C14.2537 14.1738 13.8408 14.5867 13.3337 14.5867H2.66699C2.15984 14.5867 1.74699 14.1738 1.74699 13.6667V9.05994C2.11244 9.28342 2.54132 9.41332 3.00033 9.41332H5.92033V10.3333C5.92033 10.5615 6.10548 10.7467 6.33366 10.7467H9.66699C9.89556 10.7467 10.0803 10.5615 10.0803 10.3333V9.41332H13.0003C13.4593 9.41332 13.8882 9.28342 14.2537 9.05994V13.6667ZM6.74699 9.91999V9.41332H9.25366V9.91999H6.74699Z" fill="#05A0FE" stroke="#05A0FE" stroke-width="0.16"/>
</svg>
