<svg width="88" height="88" viewBox="0 0 88 88" fill="none" xmlns="http://www.w3.org/2000/svg">
<rect width="88" height="88" rx="44" fill="white" fill-opacity="0.05"/>
<g clip-path="url(#clip0_264_33740)">
<path d="M20.792 20.2541H67.9453V67.7532H20.792V20.2541Z" fill="white"/>
<path d="M44.3506 23.4912H64.6484V64.7685H44.3506V23.4912Z" fill="#ED1A3B"/>
<path d="M24.1934 23.4864V64.7654H46.7995L44.4609 62.2115V23.4865L24.1934 23.4864Z" fill="#004FA2"/>
<path d="M45.5714 20.339L37.446 40.5392C34.807 46.9625 33.573 50.4622 29.5723 50.8165V51.482H41.573V50.8165C35.7712 49.9419 35.7432 48.6287 38.4357 41.8222V41.8834C42.5866 42.4601 42.6226 43.5405 42.7264 47.2534V55.3267C42.7264 58.2101 41.6185 66.2837 52.341 66.2837C60.0192 66.2837 61.921 61.5623 62.0248 56.9129L62.2325 49.0206C62.3708 44.2626 62.5792 42.2433 65.7261 41.8833V41.3424H55.6956V41.8833C60.5371 42.3516 60.8829 44.4421 60.8829 49.0206V50.6353C57.8693 49.857 56.9456 47.25 55.7835 44.3062L46.168 20.3123H45.5702L45.5714 20.339ZM44.4654 26.7629L50.2707 41.3427H38.6278C38.8891 40.6872 39.1399 40.0572 39.4451 39.2999L44.4651 26.7626L44.4654 26.7629ZM50.502 41.9256L51.2737 43.8621C52.3803 46.6532 54.3378 50.1967 48.339 50.8169V51.4824H60.8836V52.805C60.8836 57.203 61.6102 64.6268 54.1394 64.6268C44.6622 64.6268 45.7692 55.3283 45.7692 54.6435V47.254C45.7692 43.3683 46.2204 42.5995 50.5023 41.9255L50.502 41.9256Z" fill="white"/>
</g>
<defs>
<clipPath id="clip0_264_33740">
<rect width="48" height="48" fill="white" transform="translate(20 20)"/>
</clipPath>
</defs>
</svg>
