<svg width="24" height="24" viewBox="0 0 24 24" fill="none" xmlns="http://www.w3.org/2000/svg">
<path d="M23.496 6.792C24 8.712 24 12.72 24 12.72C24 12.72 24 16.728 23.496 18.648C23.232 19.704 22.416 20.544 21.384 20.832C19.512 21.36 12 21.36 12 21.36C12 21.36 4.488 21.36 2.616 20.832C1.584 20.544 0.768 19.704 0.504 18.648C0 16.728 0 12.72 0 12.72C0 12.72 0 8.712 0.504 6.792C0.768 5.736 1.584 4.896 2.616 4.608C4.488 4.104 12 4.104 12 4.104C12 4.104 19.512 4.104 21.384 4.608C22.416 4.896 23.232 5.736 23.496 6.792ZM9.744 16.848L15.744 13.104L9.744 9.36V16.848Z" fill="white"/>
</svg>
